<mxfile host="Electron" agent="Mozilla/5.0 (Windows NT 10.0; Win64; x64) AppleWebKit/537.36 (KHTML, like Gecko) draw.io/26.0.9 Chrome/128.0.6613.186 Electron/32.2.5 Safari/537.36" version="26.0.9">
  <diagram id="R2lEEEUBdFMjLlhIrx00" name="Page-1">
    <mxGraphModel dx="2367" dy="1370" grid="1" gridSize="10" guides="1" tooltips="1" connect="1" arrows="1" fold="1" page="1" pageScale="1" pageWidth="1654" pageHeight="1169" math="0" shadow="0" extFonts="Permanent Marker^https://fonts.googleapis.com/css?family=Permanent+Marker">
      <root>
        <mxCell id="0" />
        <mxCell id="1" parent="0" />
        <mxCell id="TYwK7YG-o5u04QrMeNLJ-17" value="USERS" style="whiteSpace=wrap;html=1;align=center;" parent="1" vertex="1">
          <mxGeometry x="540" y="310" width="70" height="30" as="geometry" />
        </mxCell>
        <mxCell id="TYwK7YG-o5u04QrMeNLJ-18" value="u&lt;span style=&quot;background-color: transparent; color: light-dark(rgb(0, 0, 0), rgb(255, 255, 255));&quot;&gt;serId&lt;/span&gt;" style="ellipse;whiteSpace=wrap;html=1;align=center;fontStyle=4;" parent="1" vertex="1">
          <mxGeometry x="440" y="230" width="60" height="30" as="geometry" />
        </mxCell>
        <mxCell id="TYwK7YG-o5u04QrMeNLJ-20" value="" style="endArrow=none;html=1;rounded=0;exitX=0.5;exitY=1;exitDx=0;exitDy=0;entryX=0;entryY=0;entryDx=0;entryDy=0;" parent="1" source="TYwK7YG-o5u04QrMeNLJ-18" target="TYwK7YG-o5u04QrMeNLJ-17" edge="1">
          <mxGeometry relative="1" as="geometry">
            <mxPoint x="810" y="520" as="sourcePoint" />
            <mxPoint x="970" y="520" as="targetPoint" />
          </mxGeometry>
        </mxCell>
        <mxCell id="TYwK7YG-o5u04QrMeNLJ-21" value="name" style="ellipse;whiteSpace=wrap;html=1;align=center;" parent="1" vertex="1">
          <mxGeometry x="500" y="210" width="60" height="30" as="geometry" />
        </mxCell>
        <mxCell id="TYwK7YG-o5u04QrMeNLJ-22" value="" style="endArrow=none;html=1;rounded=0;exitX=0.5;exitY=1;exitDx=0;exitDy=0;entryX=0.143;entryY=0;entryDx=0;entryDy=0;entryPerimeter=0;" parent="1" source="TYwK7YG-o5u04QrMeNLJ-21" target="TYwK7YG-o5u04QrMeNLJ-17" edge="1">
          <mxGeometry relative="1" as="geometry">
            <mxPoint x="570" y="350" as="sourcePoint" />
            <mxPoint x="730" y="350" as="targetPoint" />
          </mxGeometry>
        </mxCell>
        <mxCell id="TYwK7YG-o5u04QrMeNLJ-23" value="email" style="ellipse;whiteSpace=wrap;html=1;align=center;" parent="1" vertex="1">
          <mxGeometry x="540" y="250" width="50" height="20" as="geometry" />
        </mxCell>
        <mxCell id="TYwK7YG-o5u04QrMeNLJ-24" value="" style="endArrow=none;html=1;rounded=0;exitX=0.5;exitY=1;exitDx=0;exitDy=0;entryX=0.413;entryY=0.019;entryDx=0;entryDy=0;entryPerimeter=0;" parent="1" source="TYwK7YG-o5u04QrMeNLJ-23" target="TYwK7YG-o5u04QrMeNLJ-17" edge="1">
          <mxGeometry relative="1" as="geometry">
            <mxPoint x="570" y="350" as="sourcePoint" />
            <mxPoint x="730" y="350" as="targetPoint" />
          </mxGeometry>
        </mxCell>
        <mxCell id="TYwK7YG-o5u04QrMeNLJ-25" value="password" style="ellipse;whiteSpace=wrap;html=1;align=center;" parent="1" vertex="1">
          <mxGeometry x="580" y="210" width="70" height="30" as="geometry" />
        </mxCell>
        <mxCell id="TYwK7YG-o5u04QrMeNLJ-26" value="" style="endArrow=none;html=1;rounded=0;exitX=0.318;exitY=0.971;exitDx=0;exitDy=0;exitPerimeter=0;entryX=0.571;entryY=0;entryDx=0;entryDy=0;entryPerimeter=0;" parent="1" source="TYwK7YG-o5u04QrMeNLJ-25" target="TYwK7YG-o5u04QrMeNLJ-17" edge="1">
          <mxGeometry relative="1" as="geometry">
            <mxPoint x="570" y="350" as="sourcePoint" />
            <mxPoint x="620" y="290" as="targetPoint" />
          </mxGeometry>
        </mxCell>
        <mxCell id="TYwK7YG-o5u04QrMeNLJ-27" value="phone_num" style="ellipse;whiteSpace=wrap;html=1;align=center;" parent="1" vertex="1">
          <mxGeometry x="610" y="240" width="70" height="30" as="geometry" />
        </mxCell>
        <mxCell id="TYwK7YG-o5u04QrMeNLJ-29" value="" style="endArrow=none;html=1;rounded=0;exitX=0.311;exitY=0.956;exitDx=0;exitDy=0;entryX=0.807;entryY=-0.013;entryDx=0;entryDy=0;entryPerimeter=0;exitPerimeter=0;" parent="1" source="TYwK7YG-o5u04QrMeNLJ-27" target="TYwK7YG-o5u04QrMeNLJ-17" edge="1">
          <mxGeometry relative="1" as="geometry">
            <mxPoint x="570" y="350" as="sourcePoint" />
            <mxPoint x="730" y="350" as="targetPoint" />
          </mxGeometry>
        </mxCell>
        <mxCell id="TYwK7YG-o5u04QrMeNLJ-30" value="user_type" style="ellipse;whiteSpace=wrap;html=1;align=center;" parent="1" vertex="1">
          <mxGeometry x="640" y="280" width="60" height="30" as="geometry" />
        </mxCell>
        <mxCell id="TYwK7YG-o5u04QrMeNLJ-31" value="" style="endArrow=none;html=1;rounded=0;exitX=0;exitY=0.5;exitDx=0;exitDy=0;entryX=1;entryY=0;entryDx=0;entryDy=0;" parent="1" source="TYwK7YG-o5u04QrMeNLJ-30" target="TYwK7YG-o5u04QrMeNLJ-17" edge="1">
          <mxGeometry relative="1" as="geometry">
            <mxPoint x="560" y="320" as="sourcePoint" />
            <mxPoint x="720" y="320" as="targetPoint" />
          </mxGeometry>
        </mxCell>
        <mxCell id="TYwK7YG-o5u04QrMeNLJ-32" value="created_at" style="ellipse;whiteSpace=wrap;html=1;align=center;" parent="1" vertex="1">
          <mxGeometry x="440" y="290" width="70" height="30" as="geometry" />
        </mxCell>
        <mxCell id="TYwK7YG-o5u04QrMeNLJ-34" value="" style="endArrow=none;html=1;rounded=0;exitX=1;exitY=1;exitDx=0;exitDy=0;entryX=0;entryY=0.5;entryDx=0;entryDy=0;" parent="1" source="TYwK7YG-o5u04QrMeNLJ-32" target="TYwK7YG-o5u04QrMeNLJ-17" edge="1">
          <mxGeometry relative="1" as="geometry">
            <mxPoint x="560" y="320" as="sourcePoint" />
            <mxPoint x="720" y="320" as="targetPoint" />
          </mxGeometry>
        </mxCell>
        <mxCell id="TYwK7YG-o5u04QrMeNLJ-35" value="COMPANIES" style="whiteSpace=wrap;html=1;align=center;" parent="1" vertex="1">
          <mxGeometry x="160" y="310" width="90" height="30" as="geometry" />
        </mxCell>
        <mxCell id="TYwK7YG-o5u04QrMeNLJ-36" value="&lt;span style=&quot;background-color: transparent; color: light-dark(rgb(0, 0, 0), rgb(255, 255, 255));&quot;&gt;cmpyId&lt;/span&gt;" style="ellipse;whiteSpace=wrap;html=1;align=center;fontStyle=4;" parent="1" vertex="1">
          <mxGeometry x="70" y="240" width="60" height="30" as="geometry" />
        </mxCell>
        <mxCell id="TYwK7YG-o5u04QrMeNLJ-37" value="" style="endArrow=none;html=1;rounded=0;exitX=0.5;exitY=1;exitDx=0;exitDy=0;entryX=0;entryY=0;entryDx=0;entryDy=0;" parent="1" source="TYwK7YG-o5u04QrMeNLJ-36" target="TYwK7YG-o5u04QrMeNLJ-35" edge="1">
          <mxGeometry relative="1" as="geometry">
            <mxPoint x="440" y="530" as="sourcePoint" />
            <mxPoint x="600" y="530" as="targetPoint" />
          </mxGeometry>
        </mxCell>
        <mxCell id="TYwK7YG-o5u04QrMeNLJ-38" value="cmpy&lt;span style=&quot;background-color: transparent; color: light-dark(rgb(0, 0, 0), rgb(255, 255, 255));&quot;&gt;Name&lt;/span&gt;" style="ellipse;whiteSpace=wrap;html=1;align=center;" parent="1" vertex="1">
          <mxGeometry x="122" y="220" width="70" height="30" as="geometry" />
        </mxCell>
        <mxCell id="TYwK7YG-o5u04QrMeNLJ-39" value="" style="endArrow=none;html=1;rounded=0;exitX=0.5;exitY=1;exitDx=0;exitDy=0;entryX=0.143;entryY=0;entryDx=0;entryDy=0;entryPerimeter=0;" parent="1" source="TYwK7YG-o5u04QrMeNLJ-38" target="TYwK7YG-o5u04QrMeNLJ-35" edge="1">
          <mxGeometry relative="1" as="geometry">
            <mxPoint x="200" y="360" as="sourcePoint" />
            <mxPoint x="360" y="360" as="targetPoint" />
          </mxGeometry>
        </mxCell>
        <mxCell id="TYwK7YG-o5u04QrMeNLJ-40" value="email" style="ellipse;whiteSpace=wrap;html=1;align=center;" parent="1" vertex="1">
          <mxGeometry x="170" y="260" width="50" height="20" as="geometry" />
        </mxCell>
        <mxCell id="TYwK7YG-o5u04QrMeNLJ-41" value="" style="endArrow=none;html=1;rounded=0;exitX=0.5;exitY=1;exitDx=0;exitDy=0;entryX=0.413;entryY=0.019;entryDx=0;entryDy=0;entryPerimeter=0;" parent="1" source="TYwK7YG-o5u04QrMeNLJ-40" target="TYwK7YG-o5u04QrMeNLJ-35" edge="1">
          <mxGeometry relative="1" as="geometry">
            <mxPoint x="200" y="360" as="sourcePoint" />
            <mxPoint x="360" y="360" as="targetPoint" />
          </mxGeometry>
        </mxCell>
        <mxCell id="TYwK7YG-o5u04QrMeNLJ-42" value="industryType" style="ellipse;whiteSpace=wrap;html=1;align=center;" parent="1" vertex="1">
          <mxGeometry x="200" y="220" width="80" height="30" as="geometry" />
        </mxCell>
        <mxCell id="TYwK7YG-o5u04QrMeNLJ-43" value="" style="endArrow=none;html=1;rounded=0;exitX=0.318;exitY=0.971;exitDx=0;exitDy=0;exitPerimeter=0;entryX=0.571;entryY=0;entryDx=0;entryDy=0;entryPerimeter=0;" parent="1" source="TYwK7YG-o5u04QrMeNLJ-42" target="TYwK7YG-o5u04QrMeNLJ-35" edge="1">
          <mxGeometry relative="1" as="geometry">
            <mxPoint x="200" y="360" as="sourcePoint" />
            <mxPoint x="250" y="300" as="targetPoint" />
          </mxGeometry>
        </mxCell>
        <mxCell id="TYwK7YG-o5u04QrMeNLJ-44" value="phone" style="ellipse;whiteSpace=wrap;html=1;align=center;" parent="1" vertex="1">
          <mxGeometry x="230" y="254" width="60" height="20" as="geometry" />
        </mxCell>
        <mxCell id="TYwK7YG-o5u04QrMeNLJ-45" value="" style="endArrow=none;html=1;rounded=0;exitX=0.311;exitY=0.956;exitDx=0;exitDy=0;entryX=0.807;entryY=-0.013;entryDx=0;entryDy=0;entryPerimeter=0;exitPerimeter=0;" parent="1" source="TYwK7YG-o5u04QrMeNLJ-44" target="TYwK7YG-o5u04QrMeNLJ-35" edge="1">
          <mxGeometry relative="1" as="geometry">
            <mxPoint x="200" y="360" as="sourcePoint" />
            <mxPoint x="360" y="360" as="targetPoint" />
          </mxGeometry>
        </mxCell>
        <mxCell id="TYwK7YG-o5u04QrMeNLJ-46" value="address" style="ellipse;whiteSpace=wrap;html=1;align=center;" parent="1" vertex="1">
          <mxGeometry x="260" y="280" width="60" height="30" as="geometry" />
        </mxCell>
        <mxCell id="TYwK7YG-o5u04QrMeNLJ-47" value="" style="endArrow=none;html=1;rounded=0;exitX=0;exitY=1;exitDx=0;exitDy=0;entryX=1;entryY=0;entryDx=0;entryDy=0;" parent="1" source="TYwK7YG-o5u04QrMeNLJ-46" target="TYwK7YG-o5u04QrMeNLJ-35" edge="1">
          <mxGeometry relative="1" as="geometry">
            <mxPoint x="190" y="330" as="sourcePoint" />
            <mxPoint x="350" y="330" as="targetPoint" />
          </mxGeometry>
        </mxCell>
        <mxCell id="TYwK7YG-o5u04QrMeNLJ-48" value="reg_at" style="ellipse;whiteSpace=wrap;html=1;align=center;" parent="1" vertex="1">
          <mxGeometry x="52" y="280" width="70" height="30" as="geometry" />
        </mxCell>
        <mxCell id="TYwK7YG-o5u04QrMeNLJ-49" value="" style="endArrow=none;html=1;rounded=0;exitX=1;exitY=1;exitDx=0;exitDy=0;entryX=0;entryY=0.5;entryDx=0;entryDy=0;" parent="1" source="TYwK7YG-o5u04QrMeNLJ-48" target="TYwK7YG-o5u04QrMeNLJ-35" edge="1">
          <mxGeometry relative="1" as="geometry">
            <mxPoint x="190" y="330" as="sourcePoint" />
            <mxPoint x="350" y="330" as="targetPoint" />
          </mxGeometry>
        </mxCell>
        <mxCell id="TYwK7YG-o5u04QrMeNLJ-51" value="EMPLOYEES" style="whiteSpace=wrap;html=1;align=center;" parent="1" vertex="1">
          <mxGeometry x="898" y="300" width="80" height="30" as="geometry" />
        </mxCell>
        <mxCell id="TYwK7YG-o5u04QrMeNLJ-52" value="empId" style="ellipse;whiteSpace=wrap;html=1;align=center;fontStyle=4;" parent="1" vertex="1">
          <mxGeometry x="798" y="220" width="60" height="30" as="geometry" />
        </mxCell>
        <mxCell id="TYwK7YG-o5u04QrMeNLJ-53" value="" style="endArrow=none;html=1;rounded=0;exitX=0.5;exitY=1;exitDx=0;exitDy=0;entryX=0;entryY=0;entryDx=0;entryDy=0;" parent="1" source="TYwK7YG-o5u04QrMeNLJ-52" target="TYwK7YG-o5u04QrMeNLJ-51" edge="1">
          <mxGeometry relative="1" as="geometry">
            <mxPoint x="1168" y="510" as="sourcePoint" />
            <mxPoint x="1328" y="510" as="targetPoint" />
          </mxGeometry>
        </mxCell>
        <mxCell id="TYwK7YG-o5u04QrMeNLJ-55" value="" style="endArrow=none;html=1;rounded=0;exitX=0.448;exitY=0.957;exitDx=0;exitDy=0;entryX=0.143;entryY=0;entryDx=0;entryDy=0;entryPerimeter=0;exitPerimeter=0;" parent="1" source="TYwK7YG-o5u04QrMeNLJ-66" target="TYwK7YG-o5u04QrMeNLJ-51" edge="1">
          <mxGeometry relative="1" as="geometry">
            <mxPoint x="888" y="230" as="sourcePoint" />
            <mxPoint x="1088" y="340" as="targetPoint" />
          </mxGeometry>
        </mxCell>
        <mxCell id="TYwK7YG-o5u04QrMeNLJ-56" value="name" style="ellipse;whiteSpace=wrap;html=1;align=center;" parent="1" vertex="1">
          <mxGeometry x="868" y="210" width="50" height="20" as="geometry" />
        </mxCell>
        <mxCell id="TYwK7YG-o5u04QrMeNLJ-57" value="" style="endArrow=none;html=1;rounded=0;exitX=0.5;exitY=1;exitDx=0;exitDy=0;entryX=0.413;entryY=0.019;entryDx=0;entryDy=0;entryPerimeter=0;" parent="1" source="TYwK7YG-o5u04QrMeNLJ-56" target="TYwK7YG-o5u04QrMeNLJ-51" edge="1">
          <mxGeometry relative="1" as="geometry">
            <mxPoint x="928" y="340" as="sourcePoint" />
            <mxPoint x="1088" y="340" as="targetPoint" />
          </mxGeometry>
        </mxCell>
        <mxCell id="TYwK7YG-o5u04QrMeNLJ-58" value="email" style="ellipse;whiteSpace=wrap;html=1;align=center;" parent="1" vertex="1">
          <mxGeometry x="898" y="185" width="50" height="20" as="geometry" />
        </mxCell>
        <mxCell id="TYwK7YG-o5u04QrMeNLJ-59" value="" style="endArrow=none;html=1;rounded=0;exitX=0.5;exitY=1;exitDx=0;exitDy=0;entryX=0.571;entryY=0;entryDx=0;entryDy=0;entryPerimeter=0;" parent="1" source="TYwK7YG-o5u04QrMeNLJ-58" target="TYwK7YG-o5u04QrMeNLJ-51" edge="1">
          <mxGeometry relative="1" as="geometry">
            <mxPoint x="928" y="340" as="sourcePoint" />
            <mxPoint x="978" y="280" as="targetPoint" />
          </mxGeometry>
        </mxCell>
        <mxCell id="TYwK7YG-o5u04QrMeNLJ-60" value="&lt;font style=&quot;font-size: 10px;&quot;&gt;phone_num&lt;/font&gt;" style="ellipse;whiteSpace=wrap;html=1;align=center;" parent="1" vertex="1">
          <mxGeometry x="928" y="205" width="60" height="25" as="geometry" />
        </mxCell>
        <mxCell id="TYwK7YG-o5u04QrMeNLJ-61" value="" style="endArrow=none;html=1;rounded=0;exitX=0.5;exitY=1;exitDx=0;exitDy=0;entryX=0.807;entryY=-0.013;entryDx=0;entryDy=0;entryPerimeter=0;" parent="1" source="TYwK7YG-o5u04QrMeNLJ-60" target="TYwK7YG-o5u04QrMeNLJ-51" edge="1">
          <mxGeometry relative="1" as="geometry">
            <mxPoint x="928" y="340" as="sourcePoint" />
            <mxPoint x="1088" y="340" as="targetPoint" />
          </mxGeometry>
        </mxCell>
        <mxCell id="TYwK7YG-o5u04QrMeNLJ-62" value="position" style="ellipse;whiteSpace=wrap;html=1;align=center;" parent="1" vertex="1">
          <mxGeometry x="988" y="190" width="60" height="30" as="geometry" />
        </mxCell>
        <mxCell id="TYwK7YG-o5u04QrMeNLJ-63" value="" style="endArrow=none;html=1;rounded=0;exitX=0.23;exitY=0.915;exitDx=0;exitDy=0;entryX=1;entryY=0;entryDx=0;entryDy=0;exitPerimeter=0;" parent="1" source="TYwK7YG-o5u04QrMeNLJ-62" target="TYwK7YG-o5u04QrMeNLJ-51" edge="1">
          <mxGeometry relative="1" as="geometry">
            <mxPoint x="918" y="310" as="sourcePoint" />
            <mxPoint x="1078" y="310" as="targetPoint" />
          </mxGeometry>
        </mxCell>
        <mxCell id="TYwK7YG-o5u04QrMeNLJ-66" value="cmpyId" style="ellipse;whiteSpace=wrap;html=1;align=center;fontStyle=4;" parent="1" vertex="1">
          <mxGeometry x="828" y="180" width="60" height="30" as="geometry" />
        </mxCell>
        <mxCell id="TYwK7YG-o5u04QrMeNLJ-67" value="&lt;font style=&quot;font-size: 9px;&quot;&gt;availability_status&lt;/font&gt;" style="ellipse;whiteSpace=wrap;html=1;align=center;" parent="1" vertex="1">
          <mxGeometry x="1003" y="227.5" width="80" height="32.5" as="geometry" />
        </mxCell>
        <mxCell id="TYwK7YG-o5u04QrMeNLJ-68" value="" style="endArrow=none;html=1;rounded=0;entryX=0;entryY=1;entryDx=0;entryDy=0;exitX=1;exitY=0.25;exitDx=0;exitDy=0;" parent="1" source="TYwK7YG-o5u04QrMeNLJ-51" target="TYwK7YG-o5u04QrMeNLJ-67" edge="1">
          <mxGeometry relative="1" as="geometry">
            <mxPoint x="868" y="290" as="sourcePoint" />
            <mxPoint x="1028" y="290" as="targetPoint" />
          </mxGeometry>
        </mxCell>
        <mxCell id="TYwK7YG-o5u04QrMeNLJ-69" value="rate" style="ellipse;whiteSpace=wrap;html=1;align=center;" parent="1" vertex="1">
          <mxGeometry x="1023" y="270" width="40" height="20" as="geometry" />
        </mxCell>
        <mxCell id="TYwK7YG-o5u04QrMeNLJ-70" value="" style="endArrow=none;html=1;rounded=0;entryX=0;entryY=1;entryDx=0;entryDy=0;exitX=1;exitY=0.5;exitDx=0;exitDy=0;" parent="1" source="TYwK7YG-o5u04QrMeNLJ-51" target="TYwK7YG-o5u04QrMeNLJ-69" edge="1">
          <mxGeometry relative="1" as="geometry">
            <mxPoint x="788" y="250" as="sourcePoint" />
            <mxPoint x="948" y="250" as="targetPoint" />
          </mxGeometry>
        </mxCell>
        <mxCell id="TYwK7YG-o5u04QrMeNLJ-72" value="&lt;font style=&quot;font-size: 11px;&quot;&gt;EMPLOYEEMENT&lt;/font&gt;&lt;div&gt;&lt;span style=&quot;background-color: transparent; color: light-dark(rgb(0, 0, 0), rgb(255, 255, 255));&quot;&gt;&lt;font style=&quot;font-size: 11px;&quot;&gt;RECORDS&lt;/font&gt;&lt;/span&gt;&lt;/div&gt;" style="whiteSpace=wrap;html=1;align=center;" parent="1" vertex="1">
          <mxGeometry x="1290" y="300" width="110" height="40" as="geometry" />
        </mxCell>
        <mxCell id="TYwK7YG-o5u04QrMeNLJ-74" value="recordId" style="ellipse;whiteSpace=wrap;html=1;align=center;fontStyle=4;" parent="1" vertex="1">
          <mxGeometry x="1180" y="270" width="70" height="30" as="geometry" />
        </mxCell>
        <mxCell id="TYwK7YG-o5u04QrMeNLJ-75" value="empId" style="ellipse;whiteSpace=wrap;html=1;align=center;fontStyle=4;" parent="1" vertex="1">
          <mxGeometry x="1210" y="230" width="50" height="30" as="geometry" />
        </mxCell>
        <mxCell id="TYwK7YG-o5u04QrMeNLJ-76" value="cmpyId" style="ellipse;whiteSpace=wrap;html=1;align=center;fontStyle=4;" parent="1" vertex="1">
          <mxGeometry x="1250" y="200" width="60" height="30" as="geometry" />
        </mxCell>
        <mxCell id="TYwK7YG-o5u04QrMeNLJ-77" value="startDate" style="ellipse;whiteSpace=wrap;html=1;align=center;" parent="1" vertex="1">
          <mxGeometry x="1300" y="230" width="60" height="25" as="geometry" />
        </mxCell>
        <mxCell id="TYwK7YG-o5u04QrMeNLJ-78" value="endDate" style="ellipse;whiteSpace=wrap;html=1;align=center;" parent="1" vertex="1">
          <mxGeometry x="1350" y="200" width="60" height="30" as="geometry" />
        </mxCell>
        <mxCell id="TYwK7YG-o5u04QrMeNLJ-79" value="jobTitle" style="ellipse;whiteSpace=wrap;html=1;align=center;" parent="1" vertex="1">
          <mxGeometry x="1380" y="240" width="60" height="25" as="geometry" />
        </mxCell>
        <mxCell id="TYwK7YG-o5u04QrMeNLJ-80" value="&lt;font style=&quot;font-size: 10px;&quot;&gt;performace_rating&lt;/font&gt;" style="ellipse;whiteSpace=wrap;html=1;align=center;" parent="1" vertex="1">
          <mxGeometry x="1440" y="210" width="90" height="40" as="geometry" />
        </mxCell>
        <mxCell id="TYwK7YG-o5u04QrMeNLJ-81" value="remarks" style="ellipse;whiteSpace=wrap;html=1;align=center;" parent="1" vertex="1">
          <mxGeometry x="1430" y="290" width="60" height="30" as="geometry" />
        </mxCell>
        <mxCell id="TYwK7YG-o5u04QrMeNLJ-82" value="" style="endArrow=none;html=1;rounded=0;exitX=1;exitY=1;exitDx=0;exitDy=0;entryX=0;entryY=0.25;entryDx=0;entryDy=0;" parent="1" source="TYwK7YG-o5u04QrMeNLJ-74" target="TYwK7YG-o5u04QrMeNLJ-72" edge="1">
          <mxGeometry relative="1" as="geometry">
            <mxPoint x="1190" y="260" as="sourcePoint" />
            <mxPoint x="1350" y="260" as="targetPoint" />
          </mxGeometry>
        </mxCell>
        <mxCell id="TYwK7YG-o5u04QrMeNLJ-83" value="" style="endArrow=none;html=1;rounded=0;exitX=1;exitY=1;exitDx=0;exitDy=0;entryX=0;entryY=0;entryDx=0;entryDy=0;" parent="1" source="TYwK7YG-o5u04QrMeNLJ-75" target="TYwK7YG-o5u04QrMeNLJ-72" edge="1">
          <mxGeometry relative="1" as="geometry">
            <mxPoint x="1280" y="260" as="sourcePoint" />
            <mxPoint x="1440" y="260" as="targetPoint" />
          </mxGeometry>
        </mxCell>
        <mxCell id="TYwK7YG-o5u04QrMeNLJ-84" value="" style="endArrow=none;html=1;rounded=0;exitX=0.5;exitY=1;exitDx=0;exitDy=0;entryX=0.137;entryY=0;entryDx=0;entryDy=0;entryPerimeter=0;" parent="1" source="TYwK7YG-o5u04QrMeNLJ-76" target="TYwK7YG-o5u04QrMeNLJ-72" edge="1">
          <mxGeometry relative="1" as="geometry">
            <mxPoint x="1280" y="260" as="sourcePoint" />
            <mxPoint x="1440" y="260" as="targetPoint" />
          </mxGeometry>
        </mxCell>
        <mxCell id="TYwK7YG-o5u04QrMeNLJ-85" value="" style="endArrow=none;html=1;rounded=0;exitX=0.5;exitY=1;exitDx=0;exitDy=0;entryX=0.25;entryY=0;entryDx=0;entryDy=0;" parent="1" source="TYwK7YG-o5u04QrMeNLJ-77" target="TYwK7YG-o5u04QrMeNLJ-72" edge="1">
          <mxGeometry relative="1" as="geometry">
            <mxPoint x="1280" y="260" as="sourcePoint" />
            <mxPoint x="1440" y="260" as="targetPoint" />
          </mxGeometry>
        </mxCell>
        <mxCell id="TYwK7YG-o5u04QrMeNLJ-86" value="" style="endArrow=none;html=1;rounded=0;exitX=0.5;exitY=1;exitDx=0;exitDy=0;entryX=0.5;entryY=0;entryDx=0;entryDy=0;" parent="1" source="TYwK7YG-o5u04QrMeNLJ-78" target="TYwK7YG-o5u04QrMeNLJ-72" edge="1">
          <mxGeometry relative="1" as="geometry">
            <mxPoint x="1280" y="260" as="sourcePoint" />
            <mxPoint x="1440" y="260" as="targetPoint" />
          </mxGeometry>
        </mxCell>
        <mxCell id="TYwK7YG-o5u04QrMeNLJ-87" value="" style="endArrow=none;html=1;rounded=0;exitX=0.5;exitY=1;exitDx=0;exitDy=0;entryX=0.75;entryY=0;entryDx=0;entryDy=0;" parent="1" source="TYwK7YG-o5u04QrMeNLJ-79" target="TYwK7YG-o5u04QrMeNLJ-72" edge="1">
          <mxGeometry relative="1" as="geometry">
            <mxPoint x="1280" y="260" as="sourcePoint" />
            <mxPoint x="1440" y="260" as="targetPoint" />
          </mxGeometry>
        </mxCell>
        <mxCell id="TYwK7YG-o5u04QrMeNLJ-88" value="" style="endArrow=none;html=1;rounded=0;entryX=0.5;entryY=1;entryDx=0;entryDy=0;exitX=1;exitY=0;exitDx=0;exitDy=0;" parent="1" source="TYwK7YG-o5u04QrMeNLJ-72" target="TYwK7YG-o5u04QrMeNLJ-80" edge="1">
          <mxGeometry relative="1" as="geometry">
            <mxPoint x="1280" y="260" as="sourcePoint" />
            <mxPoint x="1440" y="260" as="targetPoint" />
          </mxGeometry>
        </mxCell>
        <mxCell id="TYwK7YG-o5u04QrMeNLJ-89" value="" style="endArrow=none;html=1;rounded=0;entryX=0;entryY=0.5;entryDx=0;entryDy=0;exitX=1;exitY=0.25;exitDx=0;exitDy=0;" parent="1" source="TYwK7YG-o5u04QrMeNLJ-72" target="TYwK7YG-o5u04QrMeNLJ-81" edge="1">
          <mxGeometry relative="1" as="geometry">
            <mxPoint x="1280" y="260" as="sourcePoint" />
            <mxPoint x="1440" y="260" as="targetPoint" />
          </mxGeometry>
        </mxCell>
        <mxCell id="TYwK7YG-o5u04QrMeNLJ-90" value="CONTRACTS" style="whiteSpace=wrap;html=1;align=center;flipV=0;flipH=0;" parent="1" vertex="1">
          <mxGeometry x="790" y="727.5" width="90" height="30" as="geometry" />
        </mxCell>
        <mxCell id="TYwK7YG-o5u04QrMeNLJ-91" value="contractId" style="ellipse;whiteSpace=wrap;html=1;align=center;fontStyle=4;flipV=0;flipH=0;" parent="1" vertex="1">
          <mxGeometry x="680" y="717.5" width="70" height="30" as="geometry" />
        </mxCell>
        <mxCell id="TYwK7YG-o5u04QrMeNLJ-92" value="&lt;font style=&quot;font-size: 10px;&quot;&gt;parentCompanyId&lt;/font&gt;" style="ellipse;whiteSpace=wrap;html=1;align=center;fontStyle=4;flipV=0;flipH=0;" parent="1" vertex="1">
          <mxGeometry x="680" y="667.5" width="90" height="40" as="geometry" />
        </mxCell>
        <mxCell id="TYwK7YG-o5u04QrMeNLJ-93" value="&lt;font style=&quot;font-size: 11px;&quot;&gt;clientCompanyId&lt;/font&gt;" style="ellipse;whiteSpace=wrap;html=1;align=center;fontStyle=4;flipV=0;flipH=0;" parent="1" vertex="1">
          <mxGeometry x="695" y="617.5" width="100" height="40" as="geometry" />
        </mxCell>
        <mxCell id="TYwK7YG-o5u04QrMeNLJ-94" value="empId" style="ellipse;whiteSpace=wrap;html=1;align=center;fontStyle=4;flipV=0;flipH=0;" parent="1" vertex="1">
          <mxGeometry x="770" y="577.5" width="50" height="30" as="geometry" />
        </mxCell>
        <mxCell id="TYwK7YG-o5u04QrMeNLJ-95" value="startDate" style="ellipse;whiteSpace=wrap;html=1;align=center;flipV=0;flipH=0;" parent="1" vertex="1">
          <mxGeometry x="810" y="607.5" width="70" height="30" as="geometry" />
        </mxCell>
        <mxCell id="TYwK7YG-o5u04QrMeNLJ-96" value="endDate" style="ellipse;whiteSpace=wrap;html=1;align=center;flipV=0;flipH=0;" parent="1" vertex="1">
          <mxGeometry x="890" y="587.5" width="60" height="30" as="geometry" />
        </mxCell>
        <mxCell id="TYwK7YG-o5u04QrMeNLJ-97" value="contractStatus" style="ellipse;whiteSpace=wrap;html=1;align=center;flipV=0;flipH=0;" parent="1" vertex="1">
          <mxGeometry x="910" y="622.5" width="90" height="35" as="geometry" />
        </mxCell>
        <mxCell id="TYwK7YG-o5u04QrMeNLJ-98" value="contractTerms" style="ellipse;whiteSpace=wrap;html=1;align=center;flipV=0;flipH=0;" parent="1" vertex="1">
          <mxGeometry x="920" y="667.5" width="90" height="40" as="geometry" />
        </mxCell>
        <mxCell id="TYwK7YG-o5u04QrMeNLJ-100" value="" style="endArrow=none;html=1;rounded=0;exitX=1;exitY=0.5;exitDx=0;exitDy=0;entryX=0;entryY=0.5;entryDx=0;entryDy=0;" parent="1" source="TYwK7YG-o5u04QrMeNLJ-91" target="TYwK7YG-o5u04QrMeNLJ-90" edge="1">
          <mxGeometry relative="1" as="geometry">
            <mxPoint x="790" y="667.5" as="sourcePoint" />
            <mxPoint x="950" y="667.5" as="targetPoint" />
          </mxGeometry>
        </mxCell>
        <mxCell id="TYwK7YG-o5u04QrMeNLJ-101" value="" style="endArrow=none;html=1;rounded=0;exitX=1;exitY=1;exitDx=0;exitDy=0;entryX=0;entryY=0;entryDx=0;entryDy=0;" parent="1" source="TYwK7YG-o5u04QrMeNLJ-92" target="TYwK7YG-o5u04QrMeNLJ-90" edge="1">
          <mxGeometry relative="1" as="geometry">
            <mxPoint x="790" y="667.5" as="sourcePoint" />
            <mxPoint x="950" y="667.5" as="targetPoint" />
          </mxGeometry>
        </mxCell>
        <mxCell id="TYwK7YG-o5u04QrMeNLJ-102" value="" style="endArrow=none;html=1;rounded=0;entryX=0.136;entryY=-0.011;entryDx=0;entryDy=0;entryPerimeter=0;exitX=0.698;exitY=0.971;exitDx=0;exitDy=0;exitPerimeter=0;" parent="1" source="TYwK7YG-o5u04QrMeNLJ-93" target="TYwK7YG-o5u04QrMeNLJ-90" edge="1">
          <mxGeometry relative="1" as="geometry">
            <mxPoint x="815.9200000000005" y="660.48" as="sourcePoint" />
            <mxPoint x="975.9200000000005" y="660.48" as="targetPoint" />
          </mxGeometry>
        </mxCell>
        <mxCell id="TYwK7YG-o5u04QrMeNLJ-104" value="" style="endArrow=none;html=1;rounded=0;exitX=0.5;exitY=1;exitDx=0;exitDy=0;entryX=0.25;entryY=0;entryDx=0;entryDy=0;" parent="1" source="TYwK7YG-o5u04QrMeNLJ-94" target="TYwK7YG-o5u04QrMeNLJ-90" edge="1">
          <mxGeometry relative="1" as="geometry">
            <mxPoint x="790" y="667.5" as="sourcePoint" />
            <mxPoint x="950" y="667.5" as="targetPoint" />
          </mxGeometry>
        </mxCell>
        <mxCell id="TYwK7YG-o5u04QrMeNLJ-105" value="" style="endArrow=none;html=1;rounded=0;entryX=0.5;entryY=0;entryDx=0;entryDy=0;exitX=0.5;exitY=1;exitDx=0;exitDy=0;" parent="1" source="TYwK7YG-o5u04QrMeNLJ-95" target="TYwK7YG-o5u04QrMeNLJ-90" edge="1">
          <mxGeometry relative="1" as="geometry">
            <mxPoint x="790" y="667.5" as="sourcePoint" />
            <mxPoint x="950" y="667.5" as="targetPoint" />
          </mxGeometry>
        </mxCell>
        <mxCell id="TYwK7YG-o5u04QrMeNLJ-106" value="" style="endArrow=none;html=1;rounded=0;entryX=0;entryY=1;entryDx=0;entryDy=0;exitX=0.664;exitY=-0.002;exitDx=0;exitDy=0;exitPerimeter=0;" parent="1" source="TYwK7YG-o5u04QrMeNLJ-90" target="TYwK7YG-o5u04QrMeNLJ-96" edge="1">
          <mxGeometry relative="1" as="geometry">
            <mxPoint x="760.4800000000005" y="697.6199999999999" as="sourcePoint" />
            <mxPoint x="920.4800000000005" y="697.6199999999999" as="targetPoint" />
          </mxGeometry>
        </mxCell>
        <mxCell id="TYwK7YG-o5u04QrMeNLJ-107" value="" style="endArrow=none;html=1;rounded=0;entryX=0;entryY=1;entryDx=0;entryDy=0;exitX=0.75;exitY=0;exitDx=0;exitDy=0;" parent="1" source="TYwK7YG-o5u04QrMeNLJ-90" target="TYwK7YG-o5u04QrMeNLJ-97" edge="1">
          <mxGeometry relative="1" as="geometry">
            <mxPoint x="790" y="667.5" as="sourcePoint" />
            <mxPoint x="950" y="667.5" as="targetPoint" />
          </mxGeometry>
        </mxCell>
        <mxCell id="TYwK7YG-o5u04QrMeNLJ-108" value="" style="endArrow=none;html=1;rounded=0;exitX=1;exitY=0;exitDx=0;exitDy=0;" parent="1" source="TYwK7YG-o5u04QrMeNLJ-90" target="TYwK7YG-o5u04QrMeNLJ-98" edge="1">
          <mxGeometry relative="1" as="geometry">
            <mxPoint x="789.9999999999995" y="667.5" as="sourcePoint" />
            <mxPoint x="949.9999999999995" y="667.5" as="targetPoint" />
          </mxGeometry>
        </mxCell>
        <mxCell id="TYwK7YG-o5u04QrMeNLJ-109" value="" style="endArrow=none;html=1;rounded=0;entryX=0;entryY=0.5;entryDx=0;entryDy=0;exitX=1;exitY=0.25;exitDx=0;exitDy=0;" parent="1" source="TYwK7YG-o5u04QrMeNLJ-90" target="GSeCoP7me-vstZVjyjfA-73" edge="1">
          <mxGeometry relative="1" as="geometry">
            <mxPoint x="790" y="667.5" as="sourcePoint" />
            <mxPoint x="905" y="732.5" as="targetPoint" />
          </mxGeometry>
        </mxCell>
        <mxCell id="TYwK7YG-o5u04QrMeNLJ-110" value="&lt;font style=&quot;font-size: 11px;&quot;&gt;JOB_POSTINGS&lt;/font&gt;" style="whiteSpace=wrap;html=1;align=center;" parent="1" vertex="1">
          <mxGeometry x="275" y="760" width="90" height="30" as="geometry" />
        </mxCell>
        <mxCell id="TYwK7YG-o5u04QrMeNLJ-111" value="jobId" style="ellipse;whiteSpace=wrap;html=1;align=center;fontStyle=4;" parent="1" vertex="1">
          <mxGeometry x="185" y="735" width="50" height="25" as="geometry" />
        </mxCell>
        <mxCell id="TYwK7YG-o5u04QrMeNLJ-112" value="cmpyId" style="ellipse;whiteSpace=wrap;html=1;align=center;fontStyle=4;" parent="1" vertex="1">
          <mxGeometry x="170" y="690" width="70" height="30" as="geometry" />
        </mxCell>
        <mxCell id="TYwK7YG-o5u04QrMeNLJ-113" value="jobTitle" style="ellipse;whiteSpace=wrap;html=1;align=center;" parent="1" vertex="1">
          <mxGeometry x="200" y="650" width="60" height="30" as="geometry" />
        </mxCell>
        <mxCell id="TYwK7YG-o5u04QrMeNLJ-114" value="&lt;font style=&quot;font-size: 11px;&quot;&gt;requiredSkills&lt;/font&gt;" style="ellipse;whiteSpace=wrap;html=1;align=center;" parent="1" vertex="1">
          <mxGeometry x="240" y="620" width="80" height="30" as="geometry" />
        </mxCell>
        <mxCell id="TYwK7YG-o5u04QrMeNLJ-115" value="jobDetails" style="ellipse;whiteSpace=wrap;html=1;align=center;" parent="1" vertex="1">
          <mxGeometry x="330" y="605" width="70" height="35" as="geometry" />
        </mxCell>
        <mxCell id="TYwK7YG-o5u04QrMeNLJ-116" value="hourlyRate" style="ellipse;whiteSpace=wrap;html=1;align=center;" parent="1" vertex="1">
          <mxGeometry x="363.5" y="650" width="73" height="30" as="geometry" />
        </mxCell>
        <mxCell id="TYwK7YG-o5u04QrMeNLJ-117" value="status" style="ellipse;whiteSpace=wrap;html=1;align=center;" parent="1" vertex="1">
          <mxGeometry x="390" y="690" width="46.5" height="30" as="geometry" />
        </mxCell>
        <mxCell id="TYwK7YG-o5u04QrMeNLJ-118" value="postedTime" style="ellipse;whiteSpace=wrap;html=1;align=center;" parent="1" vertex="1">
          <mxGeometry x="390" y="732.5" width="80" height="30" as="geometry" />
        </mxCell>
        <mxCell id="TYwK7YG-o5u04QrMeNLJ-119" value="" style="endArrow=none;html=1;rounded=0;exitX=1;exitY=1;exitDx=0;exitDy=0;entryX=0;entryY=0.5;entryDx=0;entryDy=0;" parent="1" source="TYwK7YG-o5u04QrMeNLJ-111" target="TYwK7YG-o5u04QrMeNLJ-110" edge="1">
          <mxGeometry relative="1" as="geometry">
            <mxPoint x="280" y="690" as="sourcePoint" />
            <mxPoint x="440" y="690" as="targetPoint" />
          </mxGeometry>
        </mxCell>
        <mxCell id="TYwK7YG-o5u04QrMeNLJ-120" value="" style="endArrow=none;html=1;rounded=0;exitX=1;exitY=1;exitDx=0;exitDy=0;entryX=0;entryY=0;entryDx=0;entryDy=0;" parent="1" source="TYwK7YG-o5u04QrMeNLJ-112" target="TYwK7YG-o5u04QrMeNLJ-110" edge="1">
          <mxGeometry relative="1" as="geometry">
            <mxPoint x="280" y="690" as="sourcePoint" />
            <mxPoint x="440" y="690" as="targetPoint" />
          </mxGeometry>
        </mxCell>
        <mxCell id="TYwK7YG-o5u04QrMeNLJ-121" value="" style="endArrow=none;html=1;rounded=0;exitX=0.769;exitY=0.903;exitDx=0;exitDy=0;entryX=0.129;entryY=0.022;entryDx=0;entryDy=0;entryPerimeter=0;exitPerimeter=0;" parent="1" source="TYwK7YG-o5u04QrMeNLJ-113" target="TYwK7YG-o5u04QrMeNLJ-110" edge="1">
          <mxGeometry relative="1" as="geometry">
            <mxPoint x="280" y="690" as="sourcePoint" />
            <mxPoint x="440" y="690" as="targetPoint" />
          </mxGeometry>
        </mxCell>
        <mxCell id="TYwK7YG-o5u04QrMeNLJ-122" value="" style="endArrow=none;html=1;rounded=0;exitX=0.5;exitY=1;exitDx=0;exitDy=0;entryX=0.25;entryY=0;entryDx=0;entryDy=0;" parent="1" source="TYwK7YG-o5u04QrMeNLJ-114" target="TYwK7YG-o5u04QrMeNLJ-110" edge="1">
          <mxGeometry relative="1" as="geometry">
            <mxPoint x="280" y="690" as="sourcePoint" />
            <mxPoint x="440" y="690" as="targetPoint" />
          </mxGeometry>
        </mxCell>
        <mxCell id="TYwK7YG-o5u04QrMeNLJ-123" value="" style="endArrow=none;html=1;rounded=0;exitX=0;exitY=1;exitDx=0;exitDy=0;entryX=0.5;entryY=0;entryDx=0;entryDy=0;" parent="1" source="TYwK7YG-o5u04QrMeNLJ-115" target="TYwK7YG-o5u04QrMeNLJ-110" edge="1">
          <mxGeometry relative="1" as="geometry">
            <mxPoint x="280" y="690" as="sourcePoint" />
            <mxPoint x="440" y="690" as="targetPoint" />
          </mxGeometry>
        </mxCell>
        <mxCell id="TYwK7YG-o5u04QrMeNLJ-124" value="" style="endArrow=none;html=1;rounded=0;entryX=0;entryY=1;entryDx=0;entryDy=0;exitX=0.75;exitY=0;exitDx=0;exitDy=0;" parent="1" source="TYwK7YG-o5u04QrMeNLJ-110" target="TYwK7YG-o5u04QrMeNLJ-116" edge="1">
          <mxGeometry relative="1" as="geometry">
            <mxPoint x="280" y="690" as="sourcePoint" />
            <mxPoint x="440" y="690" as="targetPoint" />
          </mxGeometry>
        </mxCell>
        <mxCell id="TYwK7YG-o5u04QrMeNLJ-125" value="" style="endArrow=none;html=1;rounded=0;entryX=0;entryY=1;entryDx=0;entryDy=0;exitX=1;exitY=0;exitDx=0;exitDy=0;" parent="1" source="TYwK7YG-o5u04QrMeNLJ-110" target="TYwK7YG-o5u04QrMeNLJ-117" edge="1">
          <mxGeometry relative="1" as="geometry">
            <mxPoint x="280" y="690" as="sourcePoint" />
            <mxPoint x="440" y="690" as="targetPoint" />
          </mxGeometry>
        </mxCell>
        <mxCell id="TYwK7YG-o5u04QrMeNLJ-126" value="" style="endArrow=none;html=1;rounded=0;entryX=0;entryY=1;entryDx=0;entryDy=0;exitX=1;exitY=0.25;exitDx=0;exitDy=0;" parent="1" source="TYwK7YG-o5u04QrMeNLJ-110" target="TYwK7YG-o5u04QrMeNLJ-118" edge="1">
          <mxGeometry relative="1" as="geometry">
            <mxPoint x="280" y="690" as="sourcePoint" />
            <mxPoint x="440" y="690" as="targetPoint" />
          </mxGeometry>
        </mxCell>
        <mxCell id="TYwK7YG-o5u04QrMeNLJ-138" value="MATCHES" style="whiteSpace=wrap;html=1;align=center;" parent="1" vertex="1">
          <mxGeometry x="527.25" y="970" width="80" height="30" as="geometry" />
        </mxCell>
        <mxCell id="TYwK7YG-o5u04QrMeNLJ-139" value="matchId" style="ellipse;whiteSpace=wrap;html=1;align=center;fontStyle=4;" parent="1" vertex="1">
          <mxGeometry x="447.25" y="955" width="60" height="30" as="geometry" />
        </mxCell>
        <mxCell id="TYwK7YG-o5u04QrMeNLJ-140" value="&lt;font style=&quot;font-size: 11px;&quot;&gt;parentCompanyId&lt;/font&gt;" style="ellipse;whiteSpace=wrap;html=1;align=center;fontStyle=4;" parent="1" vertex="1">
          <mxGeometry x="427.25" y="905" width="100" height="40" as="geometry" />
        </mxCell>
        <mxCell id="TYwK7YG-o5u04QrMeNLJ-141" value="clientCompanyId" style="ellipse;whiteSpace=wrap;html=1;align=center;fontStyle=4;" parent="1" vertex="1">
          <mxGeometry x="467.25" y="855" width="100" height="40" as="geometry" />
        </mxCell>
        <mxCell id="TYwK7YG-o5u04QrMeNLJ-142" value="employeeId" style="ellipse;whiteSpace=wrap;html=1;align=center;fontStyle=4;" parent="1" vertex="1">
          <mxGeometry x="577.25" y="860" width="80" height="35" as="geometry" />
        </mxCell>
        <mxCell id="TYwK7YG-o5u04QrMeNLJ-143" value="matchTime" style="ellipse;whiteSpace=wrap;html=1;align=center;" parent="1" vertex="1">
          <mxGeometry x="607.25" y="905" width="70" height="30" as="geometry" />
        </mxCell>
        <mxCell id="TYwK7YG-o5u04QrMeNLJ-144" value="status" style="ellipse;whiteSpace=wrap;html=1;align=center;" parent="1" vertex="1">
          <mxGeometry x="627.25" y="950" width="50" height="20" as="geometry" />
        </mxCell>
        <mxCell id="TYwK7YG-o5u04QrMeNLJ-145" value="" style="endArrow=none;html=1;rounded=0;exitX=1;exitY=1;exitDx=0;exitDy=0;entryX=0;entryY=0.5;entryDx=0;entryDy=0;" parent="1" source="TYwK7YG-o5u04QrMeNLJ-139" target="TYwK7YG-o5u04QrMeNLJ-138" edge="1">
          <mxGeometry relative="1" as="geometry">
            <mxPoint x="507.25" y="920" as="sourcePoint" />
            <mxPoint x="667.25" y="920" as="targetPoint" />
          </mxGeometry>
        </mxCell>
        <mxCell id="TYwK7YG-o5u04QrMeNLJ-146" value="" style="endArrow=none;html=1;rounded=0;exitX=1;exitY=1;exitDx=0;exitDy=0;entryX=0;entryY=0;entryDx=0;entryDy=0;" parent="1" source="TYwK7YG-o5u04QrMeNLJ-140" target="TYwK7YG-o5u04QrMeNLJ-138" edge="1">
          <mxGeometry relative="1" as="geometry">
            <mxPoint x="507.25" y="920" as="sourcePoint" />
            <mxPoint x="667.25" y="920" as="targetPoint" />
          </mxGeometry>
        </mxCell>
        <mxCell id="TYwK7YG-o5u04QrMeNLJ-147" value="" style="endArrow=none;html=1;rounded=0;exitX=0.675;exitY=0.97;exitDx=0;exitDy=0;exitPerimeter=0;entryX=0.25;entryY=0;entryDx=0;entryDy=0;" parent="1" source="TYwK7YG-o5u04QrMeNLJ-141" target="TYwK7YG-o5u04QrMeNLJ-138" edge="1">
          <mxGeometry relative="1" as="geometry">
            <mxPoint x="507.25" y="920" as="sourcePoint" />
            <mxPoint x="667.25" y="920" as="targetPoint" />
          </mxGeometry>
        </mxCell>
        <mxCell id="TYwK7YG-o5u04QrMeNLJ-148" value="" style="endArrow=none;html=1;rounded=0;entryX=0;entryY=1;entryDx=0;entryDy=0;exitX=0.5;exitY=0;exitDx=0;exitDy=0;" parent="1" source="TYwK7YG-o5u04QrMeNLJ-138" target="TYwK7YG-o5u04QrMeNLJ-142" edge="1">
          <mxGeometry relative="1" as="geometry">
            <mxPoint x="507.25" y="920" as="sourcePoint" />
            <mxPoint x="667.25" y="920" as="targetPoint" />
          </mxGeometry>
        </mxCell>
        <mxCell id="TYwK7YG-o5u04QrMeNLJ-149" value="" style="endArrow=none;html=1;rounded=0;entryX=0;entryY=1;entryDx=0;entryDy=0;exitX=0.75;exitY=0;exitDx=0;exitDy=0;" parent="1" source="TYwK7YG-o5u04QrMeNLJ-138" target="TYwK7YG-o5u04QrMeNLJ-143" edge="1">
          <mxGeometry relative="1" as="geometry">
            <mxPoint x="507.25" y="920" as="sourcePoint" />
            <mxPoint x="667.25" y="920" as="targetPoint" />
          </mxGeometry>
        </mxCell>
        <mxCell id="TYwK7YG-o5u04QrMeNLJ-150" value="" style="endArrow=none;html=1;rounded=0;entryX=0;entryY=0.5;entryDx=0;entryDy=0;exitX=1;exitY=0;exitDx=0;exitDy=0;" parent="1" source="TYwK7YG-o5u04QrMeNLJ-138" target="TYwK7YG-o5u04QrMeNLJ-144" edge="1">
          <mxGeometry relative="1" as="geometry">
            <mxPoint x="507.25" y="920" as="sourcePoint" />
            <mxPoint x="667.25" y="920" as="targetPoint" />
          </mxGeometry>
        </mxCell>
        <mxCell id="TYwK7YG-o5u04QrMeNLJ-151" value="PAYMENT" style="whiteSpace=wrap;html=1;align=center;" parent="1" vertex="1">
          <mxGeometry x="1145" y="712.5" width="80" height="30" as="geometry" />
        </mxCell>
        <mxCell id="TYwK7YG-o5u04QrMeNLJ-152" value="paymentId" style="ellipse;whiteSpace=wrap;html=1;align=center;fontStyle=4;" parent="1" vertex="1">
          <mxGeometry x="1035" y="692.5" width="75" height="30" as="geometry" />
        </mxCell>
        <mxCell id="TYwK7YG-o5u04QrMeNLJ-153" value="contractId" style="ellipse;whiteSpace=wrap;html=1;align=center;fontStyle=4;" parent="1" vertex="1">
          <mxGeometry x="1060" y="642.5" width="70" height="30" as="geometry" />
        </mxCell>
        <mxCell id="TYwK7YG-o5u04QrMeNLJ-155" value="paymentDate" style="ellipse;whiteSpace=wrap;html=1;align=center;" parent="1" vertex="1">
          <mxGeometry x="1200" y="622.5" width="90" height="40" as="geometry" />
        </mxCell>
        <mxCell id="TYwK7YG-o5u04QrMeNLJ-156" value="status" style="ellipse;whiteSpace=wrap;html=1;align=center;" parent="1" vertex="1">
          <mxGeometry x="1245" y="672.5" width="55" height="30" as="geometry" />
        </mxCell>
        <mxCell id="TYwK7YG-o5u04QrMeNLJ-157" value="" style="endArrow=none;html=1;rounded=0;entryX=0;entryY=0.5;entryDx=0;entryDy=0;exitX=1;exitY=1;exitDx=0;exitDy=0;" parent="1" source="TYwK7YG-o5u04QrMeNLJ-152" target="TYwK7YG-o5u04QrMeNLJ-151" edge="1">
          <mxGeometry relative="1" as="geometry">
            <mxPoint x="1140" y="682.5" as="sourcePoint" />
            <mxPoint x="1300" y="682.5" as="targetPoint" />
          </mxGeometry>
        </mxCell>
        <mxCell id="TYwK7YG-o5u04QrMeNLJ-158" value="" style="endArrow=none;html=1;rounded=0;exitX=1;exitY=1;exitDx=0;exitDy=0;entryX=0;entryY=0;entryDx=0;entryDy=0;" parent="1" source="TYwK7YG-o5u04QrMeNLJ-153" target="TYwK7YG-o5u04QrMeNLJ-151" edge="1">
          <mxGeometry relative="1" as="geometry">
            <mxPoint x="1140" y="682.5" as="sourcePoint" />
            <mxPoint x="1300" y="682.5" as="targetPoint" />
          </mxGeometry>
        </mxCell>
        <mxCell id="TYwK7YG-o5u04QrMeNLJ-159" value="" style="endArrow=none;html=1;rounded=0;exitX=0.5;exitY=1;exitDx=0;exitDy=0;entryX=0.25;entryY=0;entryDx=0;entryDy=0;" parent="1" source="GSeCoP7me-vstZVjyjfA-84" target="TYwK7YG-o5u04QrMeNLJ-151" edge="1">
          <mxGeometry relative="1" as="geometry">
            <mxPoint x="1160" y="642.5" as="sourcePoint" />
            <mxPoint x="1300" y="682.5" as="targetPoint" />
          </mxGeometry>
        </mxCell>
        <mxCell id="TYwK7YG-o5u04QrMeNLJ-160" value="" style="endArrow=none;html=1;rounded=0;exitX=0;exitY=1;exitDx=0;exitDy=0;entryX=0.75;entryY=0;entryDx=0;entryDy=0;" parent="1" source="TYwK7YG-o5u04QrMeNLJ-155" target="TYwK7YG-o5u04QrMeNLJ-151" edge="1">
          <mxGeometry relative="1" as="geometry">
            <mxPoint x="1140" y="682.5" as="sourcePoint" />
            <mxPoint x="1300" y="682.5" as="targetPoint" />
          </mxGeometry>
        </mxCell>
        <mxCell id="TYwK7YG-o5u04QrMeNLJ-161" value="" style="endArrow=none;html=1;rounded=0;entryX=0;entryY=1;entryDx=0;entryDy=0;exitX=0.938;exitY=0;exitDx=0;exitDy=0;exitPerimeter=0;" parent="1" source="TYwK7YG-o5u04QrMeNLJ-151" target="TYwK7YG-o5u04QrMeNLJ-156" edge="1">
          <mxGeometry relative="1" as="geometry">
            <mxPoint x="1140" y="682.5" as="sourcePoint" />
            <mxPoint x="1300" y="682.5" as="targetPoint" />
          </mxGeometry>
        </mxCell>
        <mxCell id="TYwK7YG-o5u04QrMeNLJ-162" value="REVIEWS" style="whiteSpace=wrap;html=1;align=center;" parent="1" vertex="1">
          <mxGeometry x="1419" y="585" width="90" height="30" as="geometry" />
        </mxCell>
        <mxCell id="TYwK7YG-o5u04QrMeNLJ-163" value="reviewId" style="ellipse;whiteSpace=wrap;html=1;align=center;fontStyle=4;" parent="1" vertex="1">
          <mxGeometry x="1336" y="565" width="60" height="30" as="geometry" />
        </mxCell>
        <mxCell id="TYwK7YG-o5u04QrMeNLJ-164" value="contractId" style="ellipse;whiteSpace=wrap;html=1;align=center;fontStyle=4;" parent="1" vertex="1">
          <mxGeometry x="1330" y="520" width="74" height="35" as="geometry" />
        </mxCell>
        <mxCell id="TYwK7YG-o5u04QrMeNLJ-165" value="&lt;font style=&quot;font-size: 10px;&quot;&gt;parentCompanyId&lt;/font&gt;" style="ellipse;whiteSpace=wrap;html=1;align=center;fontStyle=4;" parent="1" vertex="1">
          <mxGeometry x="1347.5" y="475" width="90" height="40" as="geometry" />
        </mxCell>
        <mxCell id="TYwK7YG-o5u04QrMeNLJ-167" value="&lt;font style=&quot;font-size: 10px;&quot;&gt;clientCompanyId&lt;/font&gt;" style="ellipse;whiteSpace=wrap;html=1;align=center;fontStyle=4;" parent="1" vertex="1">
          <mxGeometry x="1434" y="445" width="86.5" height="40" as="geometry" />
        </mxCell>
        <mxCell id="TYwK7YG-o5u04QrMeNLJ-168" value="rating" style="ellipse;whiteSpace=wrap;html=1;align=center;" parent="1" vertex="1">
          <mxGeometry x="1504" y="485" width="50" height="30" as="geometry" />
        </mxCell>
        <mxCell id="TYwK7YG-o5u04QrMeNLJ-169" value="comment" style="ellipse;whiteSpace=wrap;html=1;align=center;" parent="1" vertex="1">
          <mxGeometry x="1517.5" y="525" width="66.5" height="25" as="geometry" />
        </mxCell>
        <mxCell id="TYwK7YG-o5u04QrMeNLJ-170" value="time" style="ellipse;whiteSpace=wrap;html=1;align=center;" parent="1" vertex="1">
          <mxGeometry x="1534" y="555" width="40" height="20" as="geometry" />
        </mxCell>
        <mxCell id="TYwK7YG-o5u04QrMeNLJ-171" value="" style="endArrow=none;html=1;rounded=0;exitX=1;exitY=1;exitDx=0;exitDy=0;entryX=0;entryY=0.5;entryDx=0;entryDy=0;" parent="1" source="TYwK7YG-o5u04QrMeNLJ-163" target="TYwK7YG-o5u04QrMeNLJ-162" edge="1">
          <mxGeometry relative="1" as="geometry">
            <mxPoint x="1384" y="545" as="sourcePoint" />
            <mxPoint x="1544" y="545" as="targetPoint" />
          </mxGeometry>
        </mxCell>
        <mxCell id="TYwK7YG-o5u04QrMeNLJ-172" value="" style="endArrow=none;html=1;rounded=0;exitX=1;exitY=1;exitDx=0;exitDy=0;entryX=0;entryY=0;entryDx=0;entryDy=0;" parent="1" source="TYwK7YG-o5u04QrMeNLJ-164" target="TYwK7YG-o5u04QrMeNLJ-162" edge="1">
          <mxGeometry relative="1" as="geometry">
            <mxPoint x="1384" y="545" as="sourcePoint" />
            <mxPoint x="1544" y="545" as="targetPoint" />
          </mxGeometry>
        </mxCell>
        <mxCell id="TYwK7YG-o5u04QrMeNLJ-173" value="" style="endArrow=none;html=1;rounded=0;exitX=1;exitY=1;exitDx=0;exitDy=0;entryX=0.25;entryY=0;entryDx=0;entryDy=0;" parent="1" source="TYwK7YG-o5u04QrMeNLJ-165" target="TYwK7YG-o5u04QrMeNLJ-162" edge="1">
          <mxGeometry relative="1" as="geometry">
            <mxPoint x="1384" y="545" as="sourcePoint" />
            <mxPoint x="1544" y="545" as="targetPoint" />
          </mxGeometry>
        </mxCell>
        <mxCell id="TYwK7YG-o5u04QrMeNLJ-174" value="" style="endArrow=none;html=1;rounded=0;exitX=0.5;exitY=1;exitDx=0;exitDy=0;entryX=0.5;entryY=0;entryDx=0;entryDy=0;" parent="1" source="TYwK7YG-o5u04QrMeNLJ-167" target="TYwK7YG-o5u04QrMeNLJ-162" edge="1">
          <mxGeometry relative="1" as="geometry">
            <mxPoint x="1384" y="545" as="sourcePoint" />
            <mxPoint x="1544" y="545" as="targetPoint" />
          </mxGeometry>
        </mxCell>
        <mxCell id="TYwK7YG-o5u04QrMeNLJ-175" value="" style="endArrow=none;html=1;rounded=0;entryX=0;entryY=1;entryDx=0;entryDy=0;exitX=0.75;exitY=0;exitDx=0;exitDy=0;" parent="1" source="TYwK7YG-o5u04QrMeNLJ-162" target="TYwK7YG-o5u04QrMeNLJ-168" edge="1">
          <mxGeometry relative="1" as="geometry">
            <mxPoint x="1384" y="545" as="sourcePoint" />
            <mxPoint x="1544" y="545" as="targetPoint" />
          </mxGeometry>
        </mxCell>
        <mxCell id="TYwK7YG-o5u04QrMeNLJ-176" value="" style="endArrow=none;html=1;rounded=0;entryX=0;entryY=1;entryDx=0;entryDy=0;exitX=1;exitY=0;exitDx=0;exitDy=0;" parent="1" source="TYwK7YG-o5u04QrMeNLJ-162" target="TYwK7YG-o5u04QrMeNLJ-169" edge="1">
          <mxGeometry relative="1" as="geometry">
            <mxPoint x="1384" y="545" as="sourcePoint" />
            <mxPoint x="1524" y="545" as="targetPoint" />
          </mxGeometry>
        </mxCell>
        <mxCell id="TYwK7YG-o5u04QrMeNLJ-177" value="" style="endArrow=none;html=1;rounded=0;entryX=0.5;entryY=1;entryDx=0;entryDy=0;exitX=1;exitY=0.25;exitDx=0;exitDy=0;" parent="1" source="TYwK7YG-o5u04QrMeNLJ-162" target="TYwK7YG-o5u04QrMeNLJ-170" edge="1">
          <mxGeometry relative="1" as="geometry">
            <mxPoint x="1384" y="545" as="sourcePoint" />
            <mxPoint x="1544" y="545" as="targetPoint" />
          </mxGeometry>
        </mxCell>
        <mxCell id="TYwK7YG-o5u04QrMeNLJ-178" value="NOTIFICATIONS" style="whiteSpace=wrap;html=1;align=center;" parent="1" vertex="1">
          <mxGeometry x="998" y="1070" width="100" height="30" as="geometry" />
        </mxCell>
        <mxCell id="TYwK7YG-o5u04QrMeNLJ-180" value="notificationId" style="ellipse;whiteSpace=wrap;html=1;align=center;fontStyle=4;" parent="1" vertex="1">
          <mxGeometry x="888" y="1030" width="90" height="40" as="geometry" />
        </mxCell>
        <mxCell id="TYwK7YG-o5u04QrMeNLJ-181" value="userId" style="ellipse;whiteSpace=wrap;html=1;align=center;fontStyle=4;" parent="1" vertex="1">
          <mxGeometry x="948" y="980" width="50" height="30" as="geometry" />
        </mxCell>
        <mxCell id="TYwK7YG-o5u04QrMeNLJ-182" value="message" style="ellipse;whiteSpace=wrap;html=1;align=center;" parent="1" vertex="1">
          <mxGeometry x="1008" y="995" width="60" height="30" as="geometry" />
        </mxCell>
        <mxCell id="TYwK7YG-o5u04QrMeNLJ-183" value="readStatus" style="ellipse;whiteSpace=wrap;html=1;align=center;" parent="1" vertex="1">
          <mxGeometry x="1083" y="980" width="70" height="30" as="geometry" />
        </mxCell>
        <mxCell id="TYwK7YG-o5u04QrMeNLJ-184" value="time" style="ellipse;whiteSpace=wrap;html=1;align=center;" parent="1" vertex="1">
          <mxGeometry x="1118" y="1030" width="50" height="30" as="geometry" />
        </mxCell>
        <mxCell id="TYwK7YG-o5u04QrMeNLJ-185" value="" style="endArrow=none;html=1;rounded=0;exitX=1;exitY=1;exitDx=0;exitDy=0;entryX=0;entryY=0.25;entryDx=0;entryDy=0;" parent="1" source="TYwK7YG-o5u04QrMeNLJ-180" target="TYwK7YG-o5u04QrMeNLJ-178" edge="1">
          <mxGeometry relative="1" as="geometry">
            <mxPoint x="978" y="1040" as="sourcePoint" />
            <mxPoint x="1138" y="1040" as="targetPoint" />
          </mxGeometry>
        </mxCell>
        <mxCell id="TYwK7YG-o5u04QrMeNLJ-186" value="" style="endArrow=none;html=1;rounded=0;exitX=0.5;exitY=1;exitDx=0;exitDy=0;entryX=0.25;entryY=0;entryDx=0;entryDy=0;" parent="1" source="TYwK7YG-o5u04QrMeNLJ-181" target="TYwK7YG-o5u04QrMeNLJ-178" edge="1">
          <mxGeometry relative="1" as="geometry">
            <mxPoint x="978" y="1040" as="sourcePoint" />
            <mxPoint x="1138" y="1040" as="targetPoint" />
          </mxGeometry>
        </mxCell>
        <mxCell id="TYwK7YG-o5u04QrMeNLJ-187" value="" style="endArrow=none;html=1;rounded=0;exitX=0.5;exitY=1;exitDx=0;exitDy=0;entryX=0.5;entryY=0;entryDx=0;entryDy=0;" parent="1" source="TYwK7YG-o5u04QrMeNLJ-182" target="TYwK7YG-o5u04QrMeNLJ-178" edge="1">
          <mxGeometry relative="1" as="geometry">
            <mxPoint x="978" y="1040" as="sourcePoint" />
            <mxPoint x="1138" y="1040" as="targetPoint" />
          </mxGeometry>
        </mxCell>
        <mxCell id="TYwK7YG-o5u04QrMeNLJ-188" value="" style="endArrow=none;html=1;rounded=0;entryX=0.5;entryY=1;entryDx=0;entryDy=0;exitX=0.75;exitY=0;exitDx=0;exitDy=0;" parent="1" source="TYwK7YG-o5u04QrMeNLJ-178" target="TYwK7YG-o5u04QrMeNLJ-183" edge="1">
          <mxGeometry relative="1" as="geometry">
            <mxPoint x="978" y="1040" as="sourcePoint" />
            <mxPoint x="1138" y="1040" as="targetPoint" />
          </mxGeometry>
        </mxCell>
        <mxCell id="TYwK7YG-o5u04QrMeNLJ-189" value="" style="endArrow=none;html=1;rounded=0;entryX=0;entryY=1;entryDx=0;entryDy=0;exitX=1;exitY=0;exitDx=0;exitDy=0;" parent="1" source="TYwK7YG-o5u04QrMeNLJ-178" target="TYwK7YG-o5u04QrMeNLJ-184" edge="1">
          <mxGeometry relative="1" as="geometry">
            <mxPoint x="978" y="1040" as="sourcePoint" />
            <mxPoint x="1138" y="1040" as="targetPoint" />
          </mxGeometry>
        </mxCell>
        <mxCell id="TYwK7YG-o5u04QrMeNLJ-190" value="ACTIVITY LOG" style="whiteSpace=wrap;html=1;align=center;" parent="1" vertex="1">
          <mxGeometry x="1407.5" y="985" width="100" height="30" as="geometry" />
        </mxCell>
        <mxCell id="TYwK7YG-o5u04QrMeNLJ-192" value="userId" style="ellipse;whiteSpace=wrap;html=1;align=center;fontStyle=4;" parent="1" vertex="1">
          <mxGeometry x="1397.5" y="890" width="50" height="30" as="geometry" />
        </mxCell>
        <mxCell id="TYwK7YG-o5u04QrMeNLJ-193" value="action" style="ellipse;whiteSpace=wrap;html=1;align=center;" parent="1" vertex="1">
          <mxGeometry x="1477.5" y="905" width="50" height="30" as="geometry" />
        </mxCell>
        <mxCell id="TYwK7YG-o5u04QrMeNLJ-194" value="time" style="ellipse;whiteSpace=wrap;html=1;align=center;" parent="1" vertex="1">
          <mxGeometry x="1527.5" y="935" width="40" height="25" as="geometry" />
        </mxCell>
        <mxCell id="TYwK7YG-o5u04QrMeNLJ-195" value="" style="endArrow=none;html=1;rounded=0;exitX=0.5;exitY=1;exitDx=0;exitDy=0;entryX=0;entryY=0;entryDx=0;entryDy=0;" parent="1" source="TYwK7YG-o5u04QrMeNLJ-191" target="TYwK7YG-o5u04QrMeNLJ-190" edge="1">
          <mxGeometry relative="1" as="geometry">
            <mxPoint x="1377.5" y="955" as="sourcePoint" />
            <mxPoint x="1537.5" y="955" as="targetPoint" />
          </mxGeometry>
        </mxCell>
        <mxCell id="TYwK7YG-o5u04QrMeNLJ-196" value="" style="endArrow=none;html=1;rounded=0;exitX=0.5;exitY=1;exitDx=0;exitDy=0;entryX=0.25;entryY=0;entryDx=0;entryDy=0;" parent="1" source="TYwK7YG-o5u04QrMeNLJ-192" target="TYwK7YG-o5u04QrMeNLJ-190" edge="1">
          <mxGeometry relative="1" as="geometry">
            <mxPoint x="1377.5" y="955" as="sourcePoint" />
            <mxPoint x="1537.5" y="955" as="targetPoint" />
          </mxGeometry>
        </mxCell>
        <mxCell id="TYwK7YG-o5u04QrMeNLJ-197" value="" style="endArrow=none;html=1;rounded=0;entryX=0.5;entryY=1;entryDx=0;entryDy=0;exitX=0.75;exitY=0;exitDx=0;exitDy=0;" parent="1" source="TYwK7YG-o5u04QrMeNLJ-190" target="TYwK7YG-o5u04QrMeNLJ-193" edge="1">
          <mxGeometry relative="1" as="geometry">
            <mxPoint x="1377.5" y="955" as="sourcePoint" />
            <mxPoint x="1537.5" y="955" as="targetPoint" />
          </mxGeometry>
        </mxCell>
        <mxCell id="TYwK7YG-o5u04QrMeNLJ-198" value="" style="endArrow=none;html=1;rounded=0;entryX=0.5;entryY=1;entryDx=0;entryDy=0;exitX=1;exitY=0;exitDx=0;exitDy=0;" parent="1" source="TYwK7YG-o5u04QrMeNLJ-190" target="TYwK7YG-o5u04QrMeNLJ-194" edge="1">
          <mxGeometry relative="1" as="geometry">
            <mxPoint x="1407.5" y="975" as="sourcePoint" />
            <mxPoint x="1567.7799999999997" y="987.76" as="targetPoint" />
          </mxGeometry>
        </mxCell>
        <mxCell id="TYwK7YG-o5u04QrMeNLJ-199" value="" style="endArrow=none;html=1;rounded=0;" parent="1" target="TYwK7YG-o5u04QrMeNLJ-191" edge="1">
          <mxGeometry relative="1" as="geometry">
            <mxPoint x="1377.5" y="955" as="sourcePoint" />
            <mxPoint x="1537.5" y="955" as="targetPoint" />
          </mxGeometry>
        </mxCell>
        <mxCell id="TYwK7YG-o5u04QrMeNLJ-191" value="logId" style="ellipse;whiteSpace=wrap;html=1;align=center;fontStyle=4;" parent="1" vertex="1">
          <mxGeometry x="1347.5" y="925" width="50" height="30" as="geometry" />
        </mxCell>
        <mxCell id="KCzj076Op5GSjTgJGmM5-1" value="MANAGES" style="shape=rhombus;perimeter=rhombusPerimeter;whiteSpace=wrap;html=1;align=center;" parent="1" vertex="1">
          <mxGeometry x="310" y="457.5" width="90" height="50" as="geometry" />
        </mxCell>
        <mxCell id="KCzj076Op5GSjTgJGmM5-2" value="" style="endArrow=none;html=1;rounded=0;exitX=1;exitY=0.5;exitDx=0;exitDy=0;entryX=0.5;entryY=1;entryDx=0;entryDy=0;" parent="1" source="KCzj076Op5GSjTgJGmM5-1" target="TYwK7YG-o5u04QrMeNLJ-17" edge="1">
          <mxGeometry relative="1" as="geometry">
            <mxPoint x="520" y="480" as="sourcePoint" />
            <mxPoint x="680" y="480" as="targetPoint" />
            <Array as="points" />
          </mxGeometry>
        </mxCell>
        <mxCell id="KCzj076Op5GSjTgJGmM5-4" value="MANAGES" style="shape=rhombus;perimeter=rhombusPerimeter;whiteSpace=wrap;html=1;align=center;" parent="1" vertex="1">
          <mxGeometry x="727" y="465" width="90" height="50" as="geometry" />
        </mxCell>
        <mxCell id="KCzj076Op5GSjTgJGmM5-6" value="" style="endArrow=none;html=1;rounded=0;entryX=0;entryY=0.5;entryDx=0;entryDy=0;exitX=0.5;exitY=1;exitDx=0;exitDy=0;" parent="1" source="TYwK7YG-o5u04QrMeNLJ-17" target="KCzj076Op5GSjTgJGmM5-4" edge="1">
          <mxGeometry relative="1" as="geometry">
            <mxPoint x="840" y="480" as="sourcePoint" />
            <mxPoint x="1000" y="480" as="targetPoint" />
            <Array as="points" />
          </mxGeometry>
        </mxCell>
        <mxCell id="KCzj076Op5GSjTgJGmM5-8" value="HIRES" style="shape=rhombus;perimeter=rhombusPerimeter;whiteSpace=wrap;html=1;align=center;" parent="1" vertex="1">
          <mxGeometry x="507.25" y="135" width="68" height="50" as="geometry" />
        </mxCell>
        <mxCell id="KCzj076Op5GSjTgJGmM5-11" value="POSTS" style="shape=rhombus;perimeter=rhombusPerimeter;whiteSpace=wrap;html=1;align=center;" parent="1" vertex="1">
          <mxGeometry x="70" y="477.5" width="80" height="55" as="geometry" />
        </mxCell>
        <mxCell id="KCzj076Op5GSjTgJGmM5-14" value="SIGNS" style="shape=rhombus;perimeter=rhombusPerimeter;whiteSpace=wrap;html=1;align=center;" parent="1" vertex="1">
          <mxGeometry x="476.5" y="515" width="107" height="55" as="geometry" />
        </mxCell>
        <mxCell id="KCzj076Op5GSjTgJGmM5-18" value="&lt;font style=&quot;font-size: 10px;&quot;&gt;BElONGS TO&lt;/font&gt;" style="shape=rhombus;perimeter=rhombusPerimeter;whiteSpace=wrap;html=1;align=center;" parent="1" vertex="1">
          <mxGeometry x="529.5" y="400" width="87" height="50" as="geometry" />
        </mxCell>
        <mxCell id="KCzj076Op5GSjTgJGmM5-19" value="" style="endArrow=none;html=1;rounded=0;exitX=0.5;exitY=1;exitDx=0;exitDy=0;entryX=0;entryY=0.5;entryDx=0;entryDy=0;" parent="1" source="TYwK7YG-o5u04QrMeNLJ-35" target="KCzj076Op5GSjTgJGmM5-18" edge="1">
          <mxGeometry relative="1" as="geometry">
            <mxPoint x="530" y="480" as="sourcePoint" />
            <mxPoint x="690" y="480" as="targetPoint" />
            <Array as="points">
              <mxPoint x="330" y="420" />
            </Array>
          </mxGeometry>
        </mxCell>
        <mxCell id="KCzj076Op5GSjTgJGmM5-21" value="APPLIES" style="shape=rhombus;perimeter=rhombusPerimeter;whiteSpace=wrap;html=1;align=center;" parent="1" vertex="1">
          <mxGeometry x="159" y="448" width="92" height="50" as="geometry" />
        </mxCell>
        <mxCell id="KCzj076Op5GSjTgJGmM5-24" value="ASSIGNED TO" style="shape=rhombus;perimeter=rhombusPerimeter;whiteSpace=wrap;html=1;align=center;" parent="1" vertex="1">
          <mxGeometry x="1083" y="360" width="120" height="60" as="geometry" />
        </mxCell>
        <mxCell id="KCzj076Op5GSjTgJGmM5-27" value="HAS" style="shape=rhombus;perimeter=rhombusPerimeter;whiteSpace=wrap;html=1;align=center;" parent="1" vertex="1">
          <mxGeometry x="1130" y="480" width="60" height="50" as="geometry" />
        </mxCell>
        <mxCell id="KCzj076Op5GSjTgJGmM5-28" value="" style="endArrow=none;html=1;rounded=0;exitX=0.5;exitY=1;exitDx=0;exitDy=0;entryX=0;entryY=0.5;entryDx=0;entryDy=0;" parent="1" source="TYwK7YG-o5u04QrMeNLJ-51" target="KCzj076Op5GSjTgJGmM5-27" edge="1">
          <mxGeometry relative="1" as="geometry">
            <mxPoint x="1120" y="580" as="sourcePoint" />
            <mxPoint x="1280" y="580" as="targetPoint" />
            <Array as="points">
              <mxPoint x="1020" y="460" />
            </Array>
          </mxGeometry>
        </mxCell>
        <mxCell id="KCzj076Op5GSjTgJGmM5-29" value="" style="endArrow=none;html=1;rounded=0;entryX=1;entryY=0.5;entryDx=0;entryDy=0;exitX=0;exitY=1;exitDx=0;exitDy=0;" parent="1" source="TYwK7YG-o5u04QrMeNLJ-162" target="KCzj076Op5GSjTgJGmM5-27" edge="1">
          <mxGeometry relative="1" as="geometry">
            <mxPoint x="1120" y="580" as="sourcePoint" />
            <mxPoint x="1280" y="580" as="targetPoint" />
            <Array as="points">
              <mxPoint x="1330" y="615" />
              <mxPoint x="1280" y="510" />
            </Array>
          </mxGeometry>
        </mxCell>
        <mxCell id="KCzj076Op5GSjTgJGmM5-39" value="LINKED TO" style="shape=rhombus;perimeter=rhombusPerimeter;whiteSpace=wrap;html=1;align=center;" parent="1" vertex="1">
          <mxGeometry x="267.5" y="1010" width="105" height="60" as="geometry" />
        </mxCell>
        <mxCell id="KCzj076Op5GSjTgJGmM5-42" value="LINKED TO" style="shape=rhombus;perimeter=rhombusPerimeter;whiteSpace=wrap;html=1;align=center;" parent="1" vertex="1">
          <mxGeometry x="958" y="785" width="110" height="55" as="geometry" />
        </mxCell>
        <mxCell id="KCzj076Op5GSjTgJGmM5-45" value="GIVES" style="shape=rhombus;perimeter=rhombusPerimeter;whiteSpace=wrap;html=1;align=center;" parent="1" vertex="1">
          <mxGeometry x="770" y="70" width="75" height="45" as="geometry" />
        </mxCell>
        <mxCell id="KCzj076Op5GSjTgJGmM5-46" value="" style="endArrow=none;html=1;rounded=0;exitX=0.5;exitY=1;exitDx=0;exitDy=0;entryX=0;entryY=0.5;entryDx=0;entryDy=0;" parent="1" source="TYwK7YG-o5u04QrMeNLJ-35" target="KCzj076Op5GSjTgJGmM5-45" edge="1">
          <mxGeometry relative="1" as="geometry">
            <mxPoint x="200" y="340" as="sourcePoint" />
            <mxPoint x="1050" y="80" as="targetPoint" />
            <Array as="points">
              <mxPoint x="90" y="370" />
              <mxPoint x="30" y="370" />
              <mxPoint x="30" y="240" />
              <mxPoint x="30" y="90" />
              <mxPoint x="260" y="90" />
            </Array>
          </mxGeometry>
        </mxCell>
        <mxCell id="KCzj076Op5GSjTgJGmM5-47" value="" style="endArrow=none;html=1;rounded=0;exitX=1;exitY=0.5;exitDx=0;exitDy=0;entryX=0.5;entryY=1;entryDx=0;entryDy=0;" parent="1" source="KCzj076Op5GSjTgJGmM5-45" target="TYwK7YG-o5u04QrMeNLJ-162" edge="1">
          <mxGeometry relative="1" as="geometry">
            <mxPoint x="1240" y="340" as="sourcePoint" />
            <mxPoint x="1440" y="650" as="targetPoint" />
            <Array as="points">
              <mxPoint x="1610" y="93" />
              <mxPoint x="1610" y="690" />
              <mxPoint x="1510" y="690" />
            </Array>
          </mxGeometry>
        </mxCell>
        <mxCell id="KCzj076Op5GSjTgJGmM5-48" value="GETS" style="shape=rhombus;perimeter=rhombusPerimeter;whiteSpace=wrap;html=1;align=center;" parent="1" vertex="1">
          <mxGeometry x="813" y="860" width="52" height="50" as="geometry" />
        </mxCell>
        <mxCell id="KCzj076Op5GSjTgJGmM5-50" value="" style="endArrow=none;html=1;rounded=0;exitX=0.5;exitY=0;exitDx=0;exitDy=0;entryX=0.5;entryY=1;entryDx=0;entryDy=0;" parent="1" source="KCzj076Op5GSjTgJGmM5-48" target="TYwK7YG-o5u04QrMeNLJ-17" edge="1">
          <mxGeometry relative="1" as="geometry">
            <mxPoint x="820" y="830" as="sourcePoint" />
            <mxPoint x="660" y="380" as="targetPoint" />
            <Array as="points">
              <mxPoint x="840" y="800" />
              <mxPoint x="590" y="800" />
              <mxPoint x="590" y="640" />
              <mxPoint x="670" y="470" />
            </Array>
          </mxGeometry>
        </mxCell>
        <mxCell id="KCzj076Op5GSjTgJGmM5-55" value="LOGS" style="shape=rhombus;perimeter=rhombusPerimeter;whiteSpace=wrap;html=1;align=center;" parent="1" vertex="1">
          <mxGeometry x="1230" y="850" width="80" height="50" as="geometry" />
        </mxCell>
        <mxCell id="KCzj076Op5GSjTgJGmM5-56" value="" style="endArrow=none;html=1;rounded=0;exitX=0.5;exitY=1;exitDx=0;exitDy=0;entryX=0.5;entryY=0;entryDx=0;entryDy=0;" parent="1" source="TYwK7YG-o5u04QrMeNLJ-17" target="KCzj076Op5GSjTgJGmM5-55" edge="1">
          <mxGeometry relative="1" as="geometry">
            <mxPoint x="610" y="360" as="sourcePoint" />
            <mxPoint x="1200" y="920" as="targetPoint" />
            <Array as="points">
              <mxPoint x="720" y="370" />
              <mxPoint x="980" y="570" />
              <mxPoint x="1250" y="570" />
              <mxPoint x="1350" y="650" />
              <mxPoint x="1370" y="760" />
            </Array>
          </mxGeometry>
        </mxCell>
        <mxCell id="KCzj076Op5GSjTgJGmM5-63" value="" style="shape=link;html=1;rounded=0;entryX=1;entryY=0.5;entryDx=0;entryDy=0;exitX=0;exitY=0.75;exitDx=0;exitDy=0;" parent="1" source="TYwK7YG-o5u04QrMeNLJ-51" target="KCzj076Op5GSjTgJGmM5-8" edge="1">
          <mxGeometry relative="1" as="geometry">
            <mxPoint x="480" y="340" as="sourcePoint" />
            <mxPoint x="640" y="340" as="targetPoint" />
            <Array as="points">
              <mxPoint x="760" y="323" />
              <mxPoint x="720" y="160" />
            </Array>
          </mxGeometry>
        </mxCell>
        <mxCell id="KCzj076Op5GSjTgJGmM5-64" value="N" style="resizable=0;html=1;whiteSpace=wrap;align=right;verticalAlign=bottom;" parent="KCzj076Op5GSjTgJGmM5-63" connectable="0" vertex="1">
          <mxGeometry x="1" relative="1" as="geometry" />
        </mxCell>
        <mxCell id="KCzj076Op5GSjTgJGmM5-74" value="" style="endArrow=none;html=1;rounded=0;exitX=1;exitY=0.5;exitDx=0;exitDy=0;entryX=0;entryY=0.5;entryDx=0;entryDy=0;" parent="1" source="TYwK7YG-o5u04QrMeNLJ-35" target="KCzj076Op5GSjTgJGmM5-8" edge="1">
          <mxGeometry relative="1" as="geometry">
            <mxPoint x="630" y="320" as="sourcePoint" />
            <mxPoint x="790" y="320" as="targetPoint" />
            <Array as="points">
              <mxPoint x="360" y="325" />
              <mxPoint x="430" y="160" />
            </Array>
          </mxGeometry>
        </mxCell>
        <mxCell id="KCzj076Op5GSjTgJGmM5-75" value="1" style="resizable=0;html=1;whiteSpace=wrap;align=right;verticalAlign=bottom;" parent="KCzj076Op5GSjTgJGmM5-74" connectable="0" vertex="1">
          <mxGeometry x="1" relative="1" as="geometry" />
        </mxCell>
        <mxCell id="KCzj076Op5GSjTgJGmM5-76" value="" style="shape=link;html=1;rounded=0;exitX=1;exitY=0.5;exitDx=0;exitDy=0;entryX=0.5;entryY=1;entryDx=0;entryDy=0;" parent="1" source="KCzj076Op5GSjTgJGmM5-18" target="TYwK7YG-o5u04QrMeNLJ-51" edge="1">
          <mxGeometry relative="1" as="geometry">
            <mxPoint x="510" y="340" as="sourcePoint" />
            <mxPoint x="670" y="340" as="targetPoint" />
            <Array as="points">
              <mxPoint x="850" y="420" />
            </Array>
          </mxGeometry>
        </mxCell>
        <mxCell id="KCzj076Op5GSjTgJGmM5-77" value="" style="resizable=0;html=1;whiteSpace=wrap;align=right;verticalAlign=bottom;" parent="KCzj076Op5GSjTgJGmM5-76" connectable="0" vertex="1">
          <mxGeometry x="1" relative="1" as="geometry" />
        </mxCell>
        <mxCell id="KCzj076Op5GSjTgJGmM5-78" value="N" style="text;html=1;align=center;verticalAlign=middle;resizable=0;points=[];autosize=1;strokeColor=none;fillColor=none;" parent="1" vertex="1">
          <mxGeometry x="605" y="398" width="30" height="30" as="geometry" />
        </mxCell>
        <mxCell id="KCzj076Op5GSjTgJGmM5-79" value="1" style="text;html=1;align=center;verticalAlign=middle;resizable=0;points=[];autosize=1;strokeColor=none;fillColor=none;" parent="1" vertex="1">
          <mxGeometry x="510" y="400" width="30" height="30" as="geometry" />
        </mxCell>
        <mxCell id="KCzj076Op5GSjTgJGmM5-80" value="" style="endArrow=none;html=1;rounded=0;exitX=0.5;exitY=1;exitDx=0;exitDy=0;entryX=0.5;entryY=0;entryDx=0;entryDy=0;" parent="1" source="TYwK7YG-o5u04QrMeNLJ-35" target="KCzj076Op5GSjTgJGmM5-11" edge="1">
          <mxGeometry relative="1" as="geometry">
            <mxPoint x="330" y="570" as="sourcePoint" />
            <mxPoint x="490" y="570" as="targetPoint" />
          </mxGeometry>
        </mxCell>
        <mxCell id="KCzj076Op5GSjTgJGmM5-81" value="M" style="resizable=0;html=1;whiteSpace=wrap;align=right;verticalAlign=bottom;" parent="KCzj076Op5GSjTgJGmM5-80" connectable="0" vertex="1">
          <mxGeometry x="1" relative="1" as="geometry" />
        </mxCell>
        <mxCell id="KCzj076Op5GSjTgJGmM5-82" value="" style="endArrow=none;html=1;rounded=0;entryX=0.5;entryY=1;entryDx=0;entryDy=0;exitX=0;exitY=1;exitDx=0;exitDy=0;" parent="1" source="TYwK7YG-o5u04QrMeNLJ-110" target="KCzj076Op5GSjTgJGmM5-11" edge="1">
          <mxGeometry relative="1" as="geometry">
            <mxPoint x="330" y="570" as="sourcePoint" />
            <mxPoint x="490" y="570" as="targetPoint" />
            <Array as="points">
              <mxPoint x="140" y="790" />
            </Array>
          </mxGeometry>
        </mxCell>
        <mxCell id="KCzj076Op5GSjTgJGmM5-83" value="N" style="resizable=0;html=1;whiteSpace=wrap;align=right;verticalAlign=bottom;" parent="KCzj076Op5GSjTgJGmM5-82" connectable="0" vertex="1">
          <mxGeometry x="1" relative="1" as="geometry" />
        </mxCell>
        <mxCell id="KCzj076Op5GSjTgJGmM5-84" value="" style="endArrow=none;html=1;rounded=0;exitX=0.5;exitY=1;exitDx=0;exitDy=0;entryX=0;entryY=0.5;entryDx=0;entryDy=0;" parent="1" source="TYwK7YG-o5u04QrMeNLJ-51" target="KCzj076Op5GSjTgJGmM5-24" edge="1">
          <mxGeometry relative="1" as="geometry">
            <mxPoint x="1030" y="400" as="sourcePoint" />
            <mxPoint x="1190" y="400" as="targetPoint" />
            <Array as="points">
              <mxPoint x="1000" y="390" />
            </Array>
          </mxGeometry>
        </mxCell>
        <mxCell id="KCzj076Op5GSjTgJGmM5-85" value="1" style="resizable=0;html=1;whiteSpace=wrap;align=right;verticalAlign=bottom;" parent="KCzj076Op5GSjTgJGmM5-84" connectable="0" vertex="1">
          <mxGeometry x="1" relative="1" as="geometry" />
        </mxCell>
        <mxCell id="KCzj076Op5GSjTgJGmM5-86" value="" style="shape=link;html=1;rounded=0;entryX=1;entryY=0.5;entryDx=0;entryDy=0;exitX=0.5;exitY=1;exitDx=0;exitDy=0;" parent="1" source="TYwK7YG-o5u04QrMeNLJ-72" target="KCzj076Op5GSjTgJGmM5-24" edge="1">
          <mxGeometry relative="1" as="geometry">
            <mxPoint x="1030" y="400" as="sourcePoint" />
            <mxPoint x="1190" y="400" as="targetPoint" />
            <Array as="points">
              <mxPoint x="1290" y="390" />
            </Array>
          </mxGeometry>
        </mxCell>
        <mxCell id="KCzj076Op5GSjTgJGmM5-87" value="1" style="resizable=0;html=1;whiteSpace=wrap;align=right;verticalAlign=bottom;" parent="KCzj076Op5GSjTgJGmM5-86" connectable="0" vertex="1">
          <mxGeometry x="1" relative="1" as="geometry" />
        </mxCell>
        <mxCell id="KCzj076Op5GSjTgJGmM5-88" value="" style="shape=link;html=1;rounded=0;entryX=0.5;entryY=1;entryDx=0;entryDy=0;exitX=1;exitY=1;exitDx=0;exitDy=0;" parent="1" source="TYwK7YG-o5u04QrMeNLJ-110" target="KCzj076Op5GSjTgJGmM5-21" edge="1">
          <mxGeometry relative="1" as="geometry">
            <mxPoint x="360" y="560" as="sourcePoint" />
            <mxPoint x="520" y="560" as="targetPoint" />
            <Array as="points">
              <mxPoint x="500" y="780" />
              <mxPoint x="510" y="670" />
              <mxPoint x="380" y="550" />
            </Array>
          </mxGeometry>
        </mxCell>
        <mxCell id="KCzj076Op5GSjTgJGmM5-89" value="N" style="resizable=0;html=1;whiteSpace=wrap;align=right;verticalAlign=bottom;" parent="KCzj076Op5GSjTgJGmM5-88" connectable="0" vertex="1">
          <mxGeometry x="1" relative="1" as="geometry" />
        </mxCell>
        <mxCell id="KCzj076Op5GSjTgJGmM5-90" value="" style="endArrow=none;html=1;rounded=0;exitX=0.5;exitY=1;exitDx=0;exitDy=0;entryX=0.5;entryY=0;entryDx=0;entryDy=0;" parent="1" source="TYwK7YG-o5u04QrMeNLJ-35" target="KCzj076Op5GSjTgJGmM5-21" edge="1">
          <mxGeometry relative="1" as="geometry">
            <mxPoint x="360" y="560" as="sourcePoint" />
            <mxPoint x="520" y="560" as="targetPoint" />
            <Array as="points" />
          </mxGeometry>
        </mxCell>
        <mxCell id="KCzj076Op5GSjTgJGmM5-91" value="M" style="resizable=0;html=1;whiteSpace=wrap;align=right;verticalAlign=bottom;" parent="KCzj076Op5GSjTgJGmM5-90" connectable="0" vertex="1">
          <mxGeometry x="1" relative="1" as="geometry" />
        </mxCell>
        <mxCell id="KCzj076Op5GSjTgJGmM5-92" value="" style="shape=link;html=1;rounded=0;exitX=0;exitY=1;exitDx=0;exitDy=0;entryX=1;entryY=0.5;entryDx=0;entryDy=0;" parent="1" source="TYwK7YG-o5u04QrMeNLJ-90" target="KCzj076Op5GSjTgJGmM5-14" edge="1">
          <mxGeometry relative="1" as="geometry">
            <mxPoint x="450" y="540" as="sourcePoint" />
            <mxPoint x="560" y="620" as="targetPoint" />
            <Array as="points">
              <mxPoint x="650" y="758" />
              <mxPoint x="650" y="560" />
            </Array>
          </mxGeometry>
        </mxCell>
        <mxCell id="KCzj076Op5GSjTgJGmM5-93" value="N" style="resizable=0;html=1;whiteSpace=wrap;align=right;verticalAlign=bottom;" parent="KCzj076Op5GSjTgJGmM5-92" connectable="0" vertex="1">
          <mxGeometry x="1" relative="1" as="geometry" />
        </mxCell>
        <mxCell id="KCzj076Op5GSjTgJGmM5-94" value="" style="endArrow=none;html=1;rounded=0;entryX=0.5;entryY=1;entryDx=0;entryDy=0;exitX=0;exitY=0.5;exitDx=0;exitDy=0;" parent="1" source="KCzj076Op5GSjTgJGmM5-14" target="TYwK7YG-o5u04QrMeNLJ-35" edge="1">
          <mxGeometry relative="1" as="geometry">
            <mxPoint x="450" y="540" as="sourcePoint" />
            <mxPoint x="610" y="540" as="targetPoint" />
            <Array as="points">
              <mxPoint x="450" y="370" />
            </Array>
          </mxGeometry>
        </mxCell>
        <mxCell id="KCzj076Op5GSjTgJGmM5-95" value="M" style="resizable=0;html=1;whiteSpace=wrap;align=left;verticalAlign=bottom;" parent="KCzj076Op5GSjTgJGmM5-94" connectable="0" vertex="1">
          <mxGeometry x="-1" relative="1" as="geometry" />
        </mxCell>
        <mxCell id="KCzj076Op5GSjTgJGmM5-96" value="" style="resizable=0;html=1;whiteSpace=wrap;align=right;verticalAlign=bottom;" parent="KCzj076Op5GSjTgJGmM5-94" connectable="0" vertex="1">
          <mxGeometry x="1" relative="1" as="geometry" />
        </mxCell>
        <mxCell id="KCzj076Op5GSjTgJGmM5-97" value="HAS" style="shape=rhombus;perimeter=rhombusPerimeter;whiteSpace=wrap;html=1;align=center;" parent="1" vertex="1">
          <mxGeometry x="1043" y="515" width="40" height="38.75" as="geometry" />
        </mxCell>
        <mxCell id="KCzj076Op5GSjTgJGmM5-98" value="" style="endArrow=none;html=1;rounded=0;entryX=0.5;entryY=0;entryDx=0;entryDy=0;exitX=0.5;exitY=1;exitDx=0;exitDy=0;" parent="1" source="TYwK7YG-o5u04QrMeNLJ-51" target="KCzj076Op5GSjTgJGmM5-97" edge="1">
          <mxGeometry relative="1" as="geometry">
            <mxPoint x="810" y="560" as="sourcePoint" />
            <mxPoint x="970" y="560" as="targetPoint" />
            <Array as="points">
              <mxPoint x="1030" y="380" />
            </Array>
          </mxGeometry>
        </mxCell>
        <mxCell id="KCzj076Op5GSjTgJGmM5-99" value="N" style="resizable=0;html=1;whiteSpace=wrap;align=right;verticalAlign=bottom;" parent="KCzj076Op5GSjTgJGmM5-98" connectable="0" vertex="1">
          <mxGeometry x="1" relative="1" as="geometry" />
        </mxCell>
        <mxCell id="KCzj076Op5GSjTgJGmM5-100" value="" style="shape=link;html=1;rounded=0;entryX=0.5;entryY=1;entryDx=0;entryDy=0;exitX=0.5;exitY=1;exitDx=0;exitDy=0;" parent="1" source="TYwK7YG-o5u04QrMeNLJ-90" target="KCzj076Op5GSjTgJGmM5-97" edge="1">
          <mxGeometry relative="1" as="geometry">
            <mxPoint x="810" y="560" as="sourcePoint" />
            <mxPoint x="970" y="560" as="targetPoint" />
            <Array as="points">
              <mxPoint x="835" y="770" />
              <mxPoint x="1000" y="770" />
            </Array>
          </mxGeometry>
        </mxCell>
        <mxCell id="KCzj076Op5GSjTgJGmM5-101" value="1" style="resizable=0;html=1;whiteSpace=wrap;align=right;verticalAlign=bottom;" parent="KCzj076Op5GSjTgJGmM5-100" connectable="0" vertex="1">
          <mxGeometry x="1" relative="1" as="geometry" />
        </mxCell>
        <mxCell id="KCzj076Op5GSjTgJGmM5-102" value="" style="endArrow=none;html=1;rounded=0;exitX=0.5;exitY=1;exitDx=0;exitDy=0;entryX=0;entryY=0.5;entryDx=0;entryDy=0;" parent="1" source="TYwK7YG-o5u04QrMeNLJ-90" target="KCzj076Op5GSjTgJGmM5-42" edge="1">
          <mxGeometry relative="1" as="geometry">
            <mxPoint x="900" y="610" as="sourcePoint" />
            <mxPoint x="1060" y="610" as="targetPoint" />
          </mxGeometry>
        </mxCell>
        <mxCell id="KCzj076Op5GSjTgJGmM5-103" value="1" style="resizable=0;html=1;whiteSpace=wrap;align=right;verticalAlign=bottom;" parent="KCzj076Op5GSjTgJGmM5-102" connectable="0" vertex="1">
          <mxGeometry x="1" relative="1" as="geometry" />
        </mxCell>
        <mxCell id="KCzj076Op5GSjTgJGmM5-104" value="" style="shape=link;html=1;rounded=0;entryX=1;entryY=0.5;entryDx=0;entryDy=0;exitX=0.5;exitY=1;exitDx=0;exitDy=0;" parent="1" source="TYwK7YG-o5u04QrMeNLJ-151" target="KCzj076Op5GSjTgJGmM5-42" edge="1">
          <mxGeometry relative="1" as="geometry">
            <mxPoint x="900" y="610" as="sourcePoint" />
            <mxPoint x="1060" y="610" as="targetPoint" />
          </mxGeometry>
        </mxCell>
        <mxCell id="KCzj076Op5GSjTgJGmM5-105" value="N" style="resizable=0;html=1;whiteSpace=wrap;align=right;verticalAlign=bottom;" parent="KCzj076Op5GSjTgJGmM5-104" connectable="0" vertex="1">
          <mxGeometry x="1" relative="1" as="geometry" />
        </mxCell>
        <mxCell id="KCzj076Op5GSjTgJGmM5-106" value="skillset" style="ellipse;whiteSpace=wrap;html=1;align=center;" parent="1" vertex="1">
          <mxGeometry x="788" y="260" width="50" height="30" as="geometry" />
        </mxCell>
        <mxCell id="KCzj076Op5GSjTgJGmM5-107" value="" style="endArrow=none;html=1;rounded=0;exitX=1;exitY=1;exitDx=0;exitDy=0;entryX=0;entryY=0.25;entryDx=0;entryDy=0;" parent="1" source="KCzj076Op5GSjTgJGmM5-106" target="TYwK7YG-o5u04QrMeNLJ-51" edge="1">
          <mxGeometry relative="1" as="geometry">
            <mxPoint x="780" y="300" as="sourcePoint" />
            <mxPoint x="940" y="300" as="targetPoint" />
          </mxGeometry>
        </mxCell>
        <mxCell id="KCzj076Op5GSjTgJGmM5-110" value="&lt;u&gt;empId&lt;/u&gt;" style="ellipse;whiteSpace=wrap;html=1;align=center;" parent="1" vertex="1">
          <mxGeometry x="1534" y="585" width="56" height="22.5" as="geometry" />
        </mxCell>
        <mxCell id="KCzj076Op5GSjTgJGmM5-113" value="" style="endArrow=none;html=1;rounded=0;entryX=0;entryY=0.5;entryDx=0;entryDy=0;exitX=1;exitY=0.5;exitDx=0;exitDy=0;" parent="1" source="TYwK7YG-o5u04QrMeNLJ-162" target="KCzj076Op5GSjTgJGmM5-110" edge="1">
          <mxGeometry relative="1" as="geometry">
            <mxPoint x="1370" y="560" as="sourcePoint" />
            <mxPoint x="1530" y="560" as="targetPoint" />
          </mxGeometry>
        </mxCell>
        <mxCell id="KCzj076Op5GSjTgJGmM5-114" value="N" style="text;html=1;align=center;verticalAlign=middle;resizable=0;points=[];autosize=1;strokeColor=none;fillColor=none;" parent="1" vertex="1">
          <mxGeometry x="1180" y="480" width="30" height="30" as="geometry" />
        </mxCell>
        <mxCell id="KCzj076Op5GSjTgJGmM5-115" value="1" style="text;html=1;align=center;verticalAlign=middle;resizable=0;points=[];autosize=1;strokeColor=none;fillColor=none;" parent="1" vertex="1">
          <mxGeometry x="1110" y="477.5" width="30" height="30" as="geometry" />
        </mxCell>
        <mxCell id="KCzj076Op5GSjTgJGmM5-117" value="1" style="text;html=1;align=center;verticalAlign=middle;resizable=0;points=[];autosize=1;strokeColor=none;fillColor=none;" parent="1" vertex="1">
          <mxGeometry x="1245" y="818" width="30" height="30" as="geometry" />
        </mxCell>
        <mxCell id="KCzj076Op5GSjTgJGmM5-118" value="" style="shape=link;html=1;rounded=0;entryX=0.5;entryY=1;entryDx=0;entryDy=0;exitX=0;exitY=1;exitDx=0;exitDy=0;" parent="1" source="TYwK7YG-o5u04QrMeNLJ-190" target="KCzj076Op5GSjTgJGmM5-55" edge="1">
          <mxGeometry relative="1" as="geometry">
            <mxPoint x="1070" y="730" as="sourcePoint" />
            <mxPoint x="1230" y="730" as="targetPoint" />
            <Array as="points">
              <mxPoint x="1270" y="1015" />
            </Array>
          </mxGeometry>
        </mxCell>
        <mxCell id="KCzj076Op5GSjTgJGmM5-119" value="N" style="resizable=0;html=1;whiteSpace=wrap;align=right;verticalAlign=bottom;" parent="KCzj076Op5GSjTgJGmM5-118" connectable="0" vertex="1">
          <mxGeometry x="1" relative="1" as="geometry" />
        </mxCell>
        <mxCell id="KCzj076Op5GSjTgJGmM5-120" value="" style="shape=link;html=1;rounded=0;exitX=0.5;exitY=1;exitDx=0;exitDy=0;entryX=0;entryY=0.5;entryDx=0;entryDy=0;" parent="1" source="TYwK7YG-o5u04QrMeNLJ-35" target="KCzj076Op5GSjTgJGmM5-1" edge="1">
          <mxGeometry relative="1" as="geometry">
            <mxPoint x="260" y="440" as="sourcePoint" />
            <mxPoint x="420" y="440" as="targetPoint" />
            <Array as="points" />
          </mxGeometry>
        </mxCell>
        <mxCell id="KCzj076Op5GSjTgJGmM5-121" value="1" style="resizable=0;html=1;whiteSpace=wrap;align=right;verticalAlign=bottom;" parent="KCzj076Op5GSjTgJGmM5-120" connectable="0" vertex="1">
          <mxGeometry x="1" relative="1" as="geometry" />
        </mxCell>
        <mxCell id="KCzj076Op5GSjTgJGmM5-122" value="1" style="text;html=1;align=center;verticalAlign=middle;resizable=0;points=[];autosize=1;strokeColor=none;fillColor=none;" parent="1" vertex="1">
          <mxGeometry x="400" y="475" width="30" height="30" as="geometry" />
        </mxCell>
        <mxCell id="KCzj076Op5GSjTgJGmM5-123" value="1" style="text;html=1;align=center;verticalAlign=middle;resizable=0;points=[];autosize=1;strokeColor=none;fillColor=none;" parent="1" vertex="1">
          <mxGeometry x="695" y="448" width="30" height="30" as="geometry" />
        </mxCell>
        <mxCell id="KCzj076Op5GSjTgJGmM5-125" value="" style="shape=link;html=1;rounded=0;entryX=1;entryY=0.5;entryDx=0;entryDy=0;exitX=0.5;exitY=1;exitDx=0;exitDy=0;" parent="1" source="TYwK7YG-o5u04QrMeNLJ-51" target="KCzj076Op5GSjTgJGmM5-4" edge="1">
          <mxGeometry relative="1" as="geometry">
            <mxPoint x="660" y="420" as="sourcePoint" />
            <mxPoint x="820" y="420" as="targetPoint" />
            <Array as="points" />
          </mxGeometry>
        </mxCell>
        <mxCell id="KCzj076Op5GSjTgJGmM5-126" value="N" style="resizable=0;html=1;whiteSpace=wrap;align=right;verticalAlign=bottom;" parent="KCzj076Op5GSjTgJGmM5-125" connectable="0" vertex="1">
          <mxGeometry x="1" relative="1" as="geometry" />
        </mxCell>
        <mxCell id="KCzj076Op5GSjTgJGmM5-129" value="" style="shape=link;html=1;rounded=0;entryX=0.5;entryY=1;entryDx=0;entryDy=0;exitX=0.5;exitY=1;exitDx=0;exitDy=0;" parent="1" source="TYwK7YG-o5u04QrMeNLJ-138" target="KCzj076Op5GSjTgJGmM5-39" edge="1">
          <mxGeometry relative="1" as="geometry">
            <mxPoint x="179.25" y="895" as="sourcePoint" />
            <mxPoint x="339.25" y="895" as="targetPoint" />
            <Array as="points">
              <mxPoint x="530" y="1070" />
            </Array>
          </mxGeometry>
        </mxCell>
        <mxCell id="KCzj076Op5GSjTgJGmM5-130" value="1" style="resizable=0;html=1;whiteSpace=wrap;align=right;verticalAlign=bottom;" parent="KCzj076Op5GSjTgJGmM5-129" connectable="0" vertex="1">
          <mxGeometry x="1" relative="1" as="geometry" />
        </mxCell>
        <mxCell id="KCzj076Op5GSjTgJGmM5-131" value="" style="shape=link;html=1;rounded=0;entryX=0.5;entryY=1;entryDx=0;entryDy=0;exitX=0.5;exitY=1;exitDx=0;exitDy=0;" parent="1" source="TYwK7YG-o5u04QrMeNLJ-178" target="KCzj076Op5GSjTgJGmM5-48" edge="1">
          <mxGeometry relative="1" as="geometry">
            <mxPoint x="860" y="930" as="sourcePoint" />
            <mxPoint x="1020" y="930" as="targetPoint" />
            <Array as="points">
              <mxPoint x="1010" y="1140" />
              <mxPoint x="840" y="1140" />
            </Array>
          </mxGeometry>
        </mxCell>
        <mxCell id="KCzj076Op5GSjTgJGmM5-132" value="" style="resizable=0;html=1;whiteSpace=wrap;align=right;verticalAlign=bottom;" parent="KCzj076Op5GSjTgJGmM5-131" connectable="0" vertex="1">
          <mxGeometry x="1" relative="1" as="geometry" />
        </mxCell>
        <mxCell id="KCzj076Op5GSjTgJGmM5-133" value="1" style="text;html=1;align=center;verticalAlign=middle;resizable=0;points=[];autosize=1;strokeColor=none;fillColor=none;" parent="1" vertex="1">
          <mxGeometry x="817" y="830" width="30" height="30" as="geometry" />
        </mxCell>
        <mxCell id="KCzj076Op5GSjTgJGmM5-134" value="N" style="text;html=1;align=center;verticalAlign=middle;resizable=0;points=[];autosize=1;strokeColor=none;fillColor=none;" parent="1" vertex="1">
          <mxGeometry x="838" y="900" width="30" height="30" as="geometry" />
        </mxCell>
        <mxCell id="KCzj076Op5GSjTgJGmM5-136" value="" style="endArrow=none;html=1;rounded=0;entryX=0.5;entryY=0;entryDx=0;entryDy=0;exitX=0.5;exitY=1;exitDx=0;exitDy=0;" parent="1" source="TYwK7YG-o5u04QrMeNLJ-110" target="KCzj076Op5GSjTgJGmM5-39" edge="1">
          <mxGeometry relative="1" as="geometry">
            <mxPoint x="470" y="780" as="sourcePoint" />
            <mxPoint x="630" y="780" as="targetPoint" />
          </mxGeometry>
        </mxCell>
        <mxCell id="KCzj076Op5GSjTgJGmM5-137" value="" style="resizable=0;html=1;whiteSpace=wrap;align=right;verticalAlign=bottom;" parent="KCzj076Op5GSjTgJGmM5-136" connectable="0" vertex="1">
          <mxGeometry x="1" relative="1" as="geometry" />
        </mxCell>
        <mxCell id="KCzj076Op5GSjTgJGmM5-139" value="M" style="text;html=1;align=center;verticalAlign=middle;resizable=0;points=[];autosize=1;strokeColor=none;fillColor=none;" parent="1" vertex="1">
          <mxGeometry x="735" y="98" width="30" height="30" as="geometry" />
        </mxCell>
        <mxCell id="KCzj076Op5GSjTgJGmM5-140" value="N" style="text;html=1;align=center;verticalAlign=middle;resizable=0;points=[];autosize=1;strokeColor=none;fillColor=none;" parent="1" vertex="1">
          <mxGeometry x="835" y="98" width="30" height="30" as="geometry" />
        </mxCell>
        <mxCell id="KCzj076Op5GSjTgJGmM5-141" value="1" style="text;html=1;align=center;verticalAlign=middle;resizable=0;points=[];autosize=1;strokeColor=none;fillColor=none;" parent="1" vertex="1">
          <mxGeometry x="285" y="988" width="30" height="30" as="geometry" />
        </mxCell>
        <mxCell id="KCzj076Op5GSjTgJGmM5-142" value="Name: Md. Nafis Muktashid Arpon&lt;div&gt;ID: 2232602042&lt;span style=&quot;white-space: pre;&quot;&gt;&#x9;&lt;/span&gt;Group: 09&lt;/div&gt;" style="text;html=1;align=center;verticalAlign=middle;resizable=0;points=[];autosize=1;strokeColor=none;fillColor=none;" parent="1" vertex="1">
          <mxGeometry x="1407.5" y="1090" width="210" height="40" as="geometry" />
        </mxCell>
        <mxCell id="GSeCoP7me-vstZVjyjfA-8" value="" style="shape=table;startSize=0;container=1;collapsible=0;childLayout=tableLayout;" parent="1" vertex="1">
          <mxGeometry x="1760" y="165" width="541" height="40" as="geometry" />
        </mxCell>
        <mxCell id="GSeCoP7me-vstZVjyjfA-9" value="" style="shape=tableRow;horizontal=0;startSize=0;swimlaneHead=0;swimlaneBody=0;strokeColor=inherit;top=0;left=0;bottom=0;right=0;collapsible=0;dropTarget=0;fillColor=none;points=[[0,0.5],[1,0.5]];portConstraint=eastwest;" parent="GSeCoP7me-vstZVjyjfA-8" vertex="1">
          <mxGeometry width="541" height="40" as="geometry" />
        </mxCell>
        <mxCell id="GSeCoP7me-vstZVjyjfA-10" value="&lt;u&gt;userId&lt;/u&gt;" style="shape=partialRectangle;html=1;whiteSpace=wrap;connectable=0;strokeColor=inherit;overflow=hidden;fillColor=none;top=0;left=0;bottom=0;right=0;pointerEvents=1;" parent="GSeCoP7me-vstZVjyjfA-9" vertex="1">
          <mxGeometry width="78" height="40" as="geometry">
            <mxRectangle width="78" height="40" as="alternateBounds" />
          </mxGeometry>
        </mxCell>
        <mxCell id="GSeCoP7me-vstZVjyjfA-11" value="password" style="shape=partialRectangle;html=1;whiteSpace=wrap;connectable=0;strokeColor=inherit;overflow=hidden;fillColor=none;top=0;left=0;bottom=0;right=0;pointerEvents=1;" parent="GSeCoP7me-vstZVjyjfA-9" vertex="1">
          <mxGeometry x="78" width="77" height="40" as="geometry">
            <mxRectangle width="77" height="40" as="alternateBounds" />
          </mxGeometry>
        </mxCell>
        <mxCell id="GSeCoP7me-vstZVjyjfA-14" value="name" style="shape=partialRectangle;html=1;whiteSpace=wrap;connectable=0;strokeColor=inherit;overflow=hidden;fillColor=none;top=0;left=0;bottom=0;right=0;pointerEvents=1;" parent="GSeCoP7me-vstZVjyjfA-9" vertex="1">
          <mxGeometry x="155" width="65" height="40" as="geometry">
            <mxRectangle width="65" height="40" as="alternateBounds" />
          </mxGeometry>
        </mxCell>
        <mxCell id="GSeCoP7me-vstZVjyjfA-12" value="email" style="shape=partialRectangle;html=1;whiteSpace=wrap;connectable=0;strokeColor=inherit;overflow=hidden;fillColor=none;top=0;left=0;bottom=0;right=0;pointerEvents=1;" parent="GSeCoP7me-vstZVjyjfA-9" vertex="1">
          <mxGeometry x="220" width="70" height="40" as="geometry">
            <mxRectangle width="70" height="40" as="alternateBounds" />
          </mxGeometry>
        </mxCell>
        <mxCell id="GSeCoP7me-vstZVjyjfA-13" value="phone_num" style="shape=partialRectangle;html=1;whiteSpace=wrap;connectable=0;strokeColor=inherit;overflow=hidden;fillColor=none;top=0;left=0;bottom=0;right=0;pointerEvents=1;" parent="GSeCoP7me-vstZVjyjfA-9" vertex="1">
          <mxGeometry x="290" width="97" height="40" as="geometry">
            <mxRectangle width="97" height="40" as="alternateBounds" />
          </mxGeometry>
        </mxCell>
        <mxCell id="GSeCoP7me-vstZVjyjfA-16" value="user_type" style="shape=partialRectangle;html=1;whiteSpace=wrap;connectable=0;strokeColor=inherit;overflow=hidden;fillColor=none;top=0;left=0;bottom=0;right=0;pointerEvents=1;" parent="GSeCoP7me-vstZVjyjfA-9" vertex="1">
          <mxGeometry x="387" width="77" height="40" as="geometry">
            <mxRectangle width="77" height="40" as="alternateBounds" />
          </mxGeometry>
        </mxCell>
        <mxCell id="GSeCoP7me-vstZVjyjfA-17" value="created_at" style="shape=partialRectangle;html=1;whiteSpace=wrap;connectable=0;strokeColor=inherit;overflow=hidden;fillColor=none;top=0;left=0;bottom=0;right=0;pointerEvents=1;" parent="GSeCoP7me-vstZVjyjfA-9" vertex="1">
          <mxGeometry x="464" width="77" height="40" as="geometry">
            <mxRectangle width="77" height="40" as="alternateBounds" />
          </mxGeometry>
        </mxCell>
        <mxCell id="GSeCoP7me-vstZVjyjfA-18" value="USERS" style="text;html=1;align=center;verticalAlign=middle;resizable=0;points=[];autosize=1;strokeColor=none;fillColor=none;" parent="1" vertex="1">
          <mxGeometry x="1760" y="135" width="60" height="30" as="geometry" />
        </mxCell>
        <mxCell id="GSeCoP7me-vstZVjyjfA-19" value="" style="shape=table;startSize=0;container=1;collapsible=0;childLayout=tableLayout;" parent="1" vertex="1">
          <mxGeometry x="1760" y="310" width="480" height="40" as="geometry" />
        </mxCell>
        <mxCell id="GSeCoP7me-vstZVjyjfA-20" value="" style="shape=tableRow;horizontal=0;startSize=0;swimlaneHead=0;swimlaneBody=0;strokeColor=inherit;top=0;left=0;bottom=0;right=0;collapsible=0;dropTarget=0;fillColor=none;points=[[0,0.5],[1,0.5]];portConstraint=eastwest;" parent="GSeCoP7me-vstZVjyjfA-19" vertex="1">
          <mxGeometry width="480" height="40" as="geometry" />
        </mxCell>
        <mxCell id="GSeCoP7me-vstZVjyjfA-21" value="&lt;u&gt;cmpyId&lt;/u&gt;" style="shape=partialRectangle;html=1;whiteSpace=wrap;connectable=0;strokeColor=inherit;overflow=hidden;fillColor=none;top=0;left=0;bottom=0;right=0;pointerEvents=1;" parent="GSeCoP7me-vstZVjyjfA-20" vertex="1">
          <mxGeometry width="60" height="40" as="geometry">
            <mxRectangle width="60" height="40" as="alternateBounds" />
          </mxGeometry>
        </mxCell>
        <mxCell id="GSeCoP7me-vstZVjyjfA-22" value="name" style="shape=partialRectangle;html=1;whiteSpace=wrap;connectable=0;strokeColor=inherit;overflow=hidden;fillColor=none;top=0;left=0;bottom=0;right=0;pointerEvents=1;" parent="GSeCoP7me-vstZVjyjfA-20" vertex="1">
          <mxGeometry x="60" width="60" height="40" as="geometry">
            <mxRectangle width="60" height="40" as="alternateBounds" />
          </mxGeometry>
        </mxCell>
        <mxCell id="GSeCoP7me-vstZVjyjfA-23" value="industry_type" style="shape=partialRectangle;html=1;whiteSpace=wrap;connectable=0;strokeColor=inherit;overflow=hidden;fillColor=none;top=0;left=0;bottom=0;right=0;pointerEvents=1;" parent="GSeCoP7me-vstZVjyjfA-20" vertex="1">
          <mxGeometry x="120" width="90" height="40" as="geometry">
            <mxRectangle width="90" height="40" as="alternateBounds" />
          </mxGeometry>
        </mxCell>
        <mxCell id="GSeCoP7me-vstZVjyjfA-24" value="email" style="shape=partialRectangle;html=1;whiteSpace=wrap;connectable=0;strokeColor=inherit;overflow=hidden;fillColor=none;top=0;left=0;bottom=0;right=0;pointerEvents=1;" parent="GSeCoP7me-vstZVjyjfA-20" vertex="1">
          <mxGeometry x="210" width="50" height="40" as="geometry">
            <mxRectangle width="50" height="40" as="alternateBounds" />
          </mxGeometry>
        </mxCell>
        <mxCell id="GSeCoP7me-vstZVjyjfA-25" value="phone" style="shape=partialRectangle;html=1;whiteSpace=wrap;connectable=0;strokeColor=inherit;overflow=hidden;fillColor=none;top=0;left=0;bottom=0;right=0;pointerEvents=1;" parent="GSeCoP7me-vstZVjyjfA-20" vertex="1">
          <mxGeometry x="260" width="50" height="40" as="geometry">
            <mxRectangle width="50" height="40" as="alternateBounds" />
          </mxGeometry>
        </mxCell>
        <mxCell id="GSeCoP7me-vstZVjyjfA-26" value="address" style="shape=partialRectangle;html=1;whiteSpace=wrap;connectable=0;strokeColor=inherit;overflow=hidden;fillColor=none;top=0;left=0;bottom=0;right=0;pointerEvents=1;" parent="GSeCoP7me-vstZVjyjfA-20" vertex="1">
          <mxGeometry x="310" width="60" height="40" as="geometry">
            <mxRectangle width="60" height="40" as="alternateBounds" />
          </mxGeometry>
        </mxCell>
        <mxCell id="GSeCoP7me-vstZVjyjfA-27" value="registered_at" style="shape=partialRectangle;html=1;whiteSpace=wrap;connectable=0;strokeColor=inherit;overflow=hidden;fillColor=none;top=0;left=0;bottom=0;right=0;pointerEvents=1;" parent="GSeCoP7me-vstZVjyjfA-20" vertex="1">
          <mxGeometry x="370" width="110" height="40" as="geometry">
            <mxRectangle width="110" height="40" as="alternateBounds" />
          </mxGeometry>
        </mxCell>
        <mxCell id="GSeCoP7me-vstZVjyjfA-28" value="COMPANIES" style="text;html=1;align=center;verticalAlign=middle;resizable=0;points=[];autosize=1;strokeColor=none;fillColor=none;" parent="1" vertex="1">
          <mxGeometry x="1760" y="280" width="90" height="30" as="geometry" />
        </mxCell>
        <mxCell id="GSeCoP7me-vstZVjyjfA-29" value="" style="shape=table;startSize=0;container=1;collapsible=0;childLayout=tableLayout;" parent="1" vertex="1">
          <mxGeometry x="1760" y="440" width="610" height="40" as="geometry" />
        </mxCell>
        <mxCell id="GSeCoP7me-vstZVjyjfA-30" value="" style="shape=tableRow;horizontal=0;startSize=0;swimlaneHead=0;swimlaneBody=0;strokeColor=inherit;top=0;left=0;bottom=0;right=0;collapsible=0;dropTarget=0;fillColor=none;points=[[0,0.5],[1,0.5]];portConstraint=eastwest;" parent="GSeCoP7me-vstZVjyjfA-29" vertex="1">
          <mxGeometry width="610" height="40" as="geometry" />
        </mxCell>
        <mxCell id="GSeCoP7me-vstZVjyjfA-31" value="&lt;u&gt;empId&lt;/u&gt;" style="shape=partialRectangle;html=1;whiteSpace=wrap;connectable=0;strokeColor=inherit;overflow=hidden;fillColor=none;top=0;left=0;bottom=0;right=0;pointerEvents=1;" parent="GSeCoP7me-vstZVjyjfA-30" vertex="1">
          <mxGeometry width="60" height="40" as="geometry">
            <mxRectangle width="60" height="40" as="alternateBounds" />
          </mxGeometry>
        </mxCell>
        <mxCell id="GSeCoP7me-vstZVjyjfA-32" value="name" style="shape=partialRectangle;html=1;whiteSpace=wrap;connectable=0;strokeColor=inherit;overflow=hidden;fillColor=none;top=0;left=0;bottom=0;right=0;pointerEvents=1;" parent="GSeCoP7me-vstZVjyjfA-30" vertex="1">
          <mxGeometry x="60" width="60" height="40" as="geometry">
            <mxRectangle width="60" height="40" as="alternateBounds" />
          </mxGeometry>
        </mxCell>
        <mxCell id="GSeCoP7me-vstZVjyjfA-33" value="email" style="shape=partialRectangle;html=1;whiteSpace=wrap;connectable=0;strokeColor=inherit;overflow=hidden;fillColor=none;top=0;left=0;bottom=0;right=0;pointerEvents=1;" parent="GSeCoP7me-vstZVjyjfA-30" vertex="1">
          <mxGeometry x="120" width="60" height="40" as="geometry">
            <mxRectangle width="60" height="40" as="alternateBounds" />
          </mxGeometry>
        </mxCell>
        <mxCell id="GSeCoP7me-vstZVjyjfA-34" value="phone" style="shape=partialRectangle;html=1;whiteSpace=wrap;connectable=0;strokeColor=inherit;overflow=hidden;fillColor=none;top=0;left=0;bottom=0;right=0;pointerEvents=1;" parent="GSeCoP7me-vstZVjyjfA-30" vertex="1">
          <mxGeometry x="180" width="60" height="40" as="geometry">
            <mxRectangle width="60" height="40" as="alternateBounds" />
          </mxGeometry>
        </mxCell>
        <mxCell id="GSeCoP7me-vstZVjyjfA-35" value="position" style="shape=partialRectangle;html=1;whiteSpace=wrap;connectable=0;strokeColor=inherit;overflow=hidden;fillColor=none;top=0;left=0;bottom=0;right=0;pointerEvents=1;" parent="GSeCoP7me-vstZVjyjfA-30" vertex="1">
          <mxGeometry x="240" width="70" height="40" as="geometry">
            <mxRectangle width="70" height="40" as="alternateBounds" />
          </mxGeometry>
        </mxCell>
        <mxCell id="GSeCoP7me-vstZVjyjfA-36" value="skillset" style="shape=partialRectangle;html=1;whiteSpace=wrap;connectable=0;strokeColor=inherit;overflow=hidden;fillColor=none;top=0;left=0;bottom=0;right=0;pointerEvents=1;" parent="GSeCoP7me-vstZVjyjfA-30" vertex="1">
          <mxGeometry x="310" width="60" height="40" as="geometry">
            <mxRectangle width="60" height="40" as="alternateBounds" />
          </mxGeometry>
        </mxCell>
        <mxCell id="GSeCoP7me-vstZVjyjfA-37" value="rate" style="shape=partialRectangle;html=1;whiteSpace=wrap;connectable=0;strokeColor=inherit;overflow=hidden;fillColor=none;top=0;left=0;bottom=0;right=0;pointerEvents=1;" parent="GSeCoP7me-vstZVjyjfA-30" vertex="1">
          <mxGeometry x="370" width="50" height="40" as="geometry">
            <mxRectangle width="50" height="40" as="alternateBounds" />
          </mxGeometry>
        </mxCell>
        <mxCell id="GSeCoP7me-vstZVjyjfA-39" value="availability_status" style="shape=partialRectangle;html=1;whiteSpace=wrap;connectable=0;strokeColor=inherit;overflow=hidden;fillColor=none;top=0;left=0;bottom=0;right=0;pointerEvents=1;" parent="GSeCoP7me-vstZVjyjfA-30" vertex="1">
          <mxGeometry x="420" width="110" height="40" as="geometry">
            <mxRectangle width="110" height="40" as="alternateBounds" />
          </mxGeometry>
        </mxCell>
        <mxCell id="GSeCoP7me-vstZVjyjfA-38" value="&lt;u&gt;&lt;i&gt;cmpyId&lt;/i&gt;&lt;/u&gt;" style="shape=partialRectangle;html=1;whiteSpace=wrap;connectable=0;strokeColor=inherit;overflow=hidden;fillColor=none;top=0;left=0;bottom=0;right=0;pointerEvents=1;" parent="GSeCoP7me-vstZVjyjfA-30" vertex="1">
          <mxGeometry x="530" width="80" height="40" as="geometry">
            <mxRectangle width="80" height="40" as="alternateBounds" />
          </mxGeometry>
        </mxCell>
        <mxCell id="GSeCoP7me-vstZVjyjfA-40" value="EMPLOYEES" style="text;html=1;align=center;verticalAlign=middle;resizable=0;points=[];autosize=1;strokeColor=none;fillColor=none;" parent="1" vertex="1">
          <mxGeometry x="1760" y="410" width="100" height="30" as="geometry" />
        </mxCell>
        <mxCell id="GSeCoP7me-vstZVjyjfA-41" value="" style="shape=table;startSize=0;container=1;collapsible=0;childLayout=tableLayout;" parent="1" vertex="1">
          <mxGeometry x="1760" y="565" width="620" height="40" as="geometry" />
        </mxCell>
        <mxCell id="GSeCoP7me-vstZVjyjfA-42" value="" style="shape=tableRow;horizontal=0;startSize=0;swimlaneHead=0;swimlaneBody=0;strokeColor=inherit;top=0;left=0;bottom=0;right=0;collapsible=0;dropTarget=0;fillColor=none;points=[[0,0.5],[1,0.5]];portConstraint=eastwest;" parent="GSeCoP7me-vstZVjyjfA-41" vertex="1">
          <mxGeometry width="620" height="40" as="geometry" />
        </mxCell>
        <mxCell id="GSeCoP7me-vstZVjyjfA-43" value="&lt;u&gt;recordId&lt;/u&gt;" style="shape=partialRectangle;html=1;whiteSpace=wrap;connectable=0;strokeColor=inherit;overflow=hidden;fillColor=none;top=0;left=0;bottom=0;right=0;pointerEvents=1;" parent="GSeCoP7me-vstZVjyjfA-42" vertex="1">
          <mxGeometry width="60" height="40" as="geometry">
            <mxRectangle width="60" height="40" as="alternateBounds" />
          </mxGeometry>
        </mxCell>
        <mxCell id="GSeCoP7me-vstZVjyjfA-44" value="start_date" style="shape=partialRectangle;html=1;whiteSpace=wrap;connectable=0;strokeColor=inherit;overflow=hidden;fillColor=none;top=0;left=0;bottom=0;right=0;pointerEvents=1;" parent="GSeCoP7me-vstZVjyjfA-42" vertex="1">
          <mxGeometry x="60" width="60" height="40" as="geometry">
            <mxRectangle width="60" height="40" as="alternateBounds" />
          </mxGeometry>
        </mxCell>
        <mxCell id="GSeCoP7me-vstZVjyjfA-45" value="end_date" style="shape=partialRectangle;html=1;whiteSpace=wrap;connectable=0;strokeColor=inherit;overflow=hidden;fillColor=none;top=0;left=0;bottom=0;right=0;pointerEvents=1;" parent="GSeCoP7me-vstZVjyjfA-42" vertex="1">
          <mxGeometry x="120" width="60" height="40" as="geometry">
            <mxRectangle width="60" height="40" as="alternateBounds" />
          </mxGeometry>
        </mxCell>
        <mxCell id="GSeCoP7me-vstZVjyjfA-46" value="job_title" style="shape=partialRectangle;html=1;whiteSpace=wrap;connectable=0;strokeColor=inherit;overflow=hidden;fillColor=none;top=0;left=0;bottom=0;right=0;pointerEvents=1;" parent="GSeCoP7me-vstZVjyjfA-42" vertex="1">
          <mxGeometry x="180" width="60" height="40" as="geometry">
            <mxRectangle width="60" height="40" as="alternateBounds" />
          </mxGeometry>
        </mxCell>
        <mxCell id="GSeCoP7me-vstZVjyjfA-47" value="performance_rating" style="shape=partialRectangle;html=1;whiteSpace=wrap;connectable=0;strokeColor=inherit;overflow=hidden;fillColor=none;top=0;left=0;bottom=0;right=0;pointerEvents=1;" parent="GSeCoP7me-vstZVjyjfA-42" vertex="1">
          <mxGeometry x="240" width="140" height="40" as="geometry">
            <mxRectangle width="140" height="40" as="alternateBounds" />
          </mxGeometry>
        </mxCell>
        <mxCell id="GSeCoP7me-vstZVjyjfA-49" value="remarks" style="shape=partialRectangle;html=1;whiteSpace=wrap;connectable=0;strokeColor=inherit;overflow=hidden;fillColor=none;top=0;left=0;bottom=0;right=0;pointerEvents=1;" parent="GSeCoP7me-vstZVjyjfA-42" vertex="1">
          <mxGeometry x="380" width="80" height="40" as="geometry">
            <mxRectangle width="80" height="40" as="alternateBounds" />
          </mxGeometry>
        </mxCell>
        <mxCell id="GSeCoP7me-vstZVjyjfA-48" value="&lt;u&gt;&lt;i&gt;empId&lt;/i&gt;&lt;/u&gt;" style="shape=partialRectangle;html=1;whiteSpace=wrap;connectable=0;strokeColor=inherit;overflow=hidden;fillColor=none;top=0;left=0;bottom=0;right=0;pointerEvents=1;" parent="GSeCoP7me-vstZVjyjfA-42" vertex="1">
          <mxGeometry x="460" width="80" height="40" as="geometry">
            <mxRectangle width="80" height="40" as="alternateBounds" />
          </mxGeometry>
        </mxCell>
        <mxCell id="GSeCoP7me-vstZVjyjfA-51" value="&lt;u&gt;&lt;i&gt;cmpyId&lt;/i&gt;&lt;/u&gt;" style="shape=partialRectangle;html=1;whiteSpace=wrap;connectable=0;strokeColor=inherit;overflow=hidden;fillColor=none;top=0;left=0;bottom=0;right=0;pointerEvents=1;" parent="GSeCoP7me-vstZVjyjfA-42" vertex="1">
          <mxGeometry x="540" width="80" height="40" as="geometry">
            <mxRectangle width="80" height="40" as="alternateBounds" />
          </mxGeometry>
        </mxCell>
        <mxCell id="GSeCoP7me-vstZVjyjfA-50" value="EMPLOYEEMENT RECORDS" style="text;html=1;align=center;verticalAlign=middle;resizable=0;points=[];autosize=1;strokeColor=none;fillColor=none;" parent="1" vertex="1">
          <mxGeometry x="1760" y="535" width="190" height="30" as="geometry" />
        </mxCell>
        <mxCell id="GSeCoP7me-vstZVjyjfA-52" value="" style="shape=table;startSize=0;container=1;collapsible=0;childLayout=tableLayout;" parent="1" vertex="1">
          <mxGeometry x="1760" y="710" width="610" height="40" as="geometry" />
        </mxCell>
        <mxCell id="GSeCoP7me-vstZVjyjfA-53" value="" style="shape=tableRow;horizontal=0;startSize=0;swimlaneHead=0;swimlaneBody=0;strokeColor=inherit;top=0;left=0;bottom=0;right=0;collapsible=0;dropTarget=0;fillColor=none;points=[[0,0.5],[1,0.5]];portConstraint=eastwest;" parent="GSeCoP7me-vstZVjyjfA-52" vertex="1">
          <mxGeometry width="610" height="40" as="geometry" />
        </mxCell>
        <mxCell id="GSeCoP7me-vstZVjyjfA-54" value="&lt;u&gt;jobId&lt;/u&gt;" style="shape=partialRectangle;html=1;whiteSpace=wrap;connectable=0;strokeColor=inherit;overflow=hidden;fillColor=none;top=0;left=0;bottom=0;right=0;pointerEvents=1;" parent="GSeCoP7me-vstZVjyjfA-53" vertex="1">
          <mxGeometry width="60" height="40" as="geometry">
            <mxRectangle width="60" height="40" as="alternateBounds" />
          </mxGeometry>
        </mxCell>
        <mxCell id="GSeCoP7me-vstZVjyjfA-55" value="job_title" style="shape=partialRectangle;html=1;whiteSpace=wrap;connectable=0;strokeColor=inherit;overflow=hidden;fillColor=none;top=0;left=0;bottom=0;right=0;pointerEvents=1;" parent="GSeCoP7me-vstZVjyjfA-53" vertex="1">
          <mxGeometry x="60" width="60" height="40" as="geometry">
            <mxRectangle width="60" height="40" as="alternateBounds" />
          </mxGeometry>
        </mxCell>
        <mxCell id="GSeCoP7me-vstZVjyjfA-56" value="required_skill" style="shape=partialRectangle;html=1;whiteSpace=wrap;connectable=0;strokeColor=inherit;overflow=hidden;fillColor=none;top=0;left=0;bottom=0;right=0;pointerEvents=1;" parent="GSeCoP7me-vstZVjyjfA-53" vertex="1">
          <mxGeometry x="120" width="100" height="40" as="geometry">
            <mxRectangle width="100" height="40" as="alternateBounds" />
          </mxGeometry>
        </mxCell>
        <mxCell id="GSeCoP7me-vstZVjyjfA-57" value="job_details" style="shape=partialRectangle;html=1;whiteSpace=wrap;connectable=0;strokeColor=inherit;overflow=hidden;fillColor=none;top=0;left=0;bottom=0;right=0;pointerEvents=1;" parent="GSeCoP7me-vstZVjyjfA-53" vertex="1">
          <mxGeometry x="220" width="80" height="40" as="geometry">
            <mxRectangle width="80" height="40" as="alternateBounds" />
          </mxGeometry>
        </mxCell>
        <mxCell id="GSeCoP7me-vstZVjyjfA-58" value="rate" style="shape=partialRectangle;html=1;whiteSpace=wrap;connectable=0;strokeColor=inherit;overflow=hidden;fillColor=none;top=0;left=0;bottom=0;right=0;pointerEvents=1;" parent="GSeCoP7me-vstZVjyjfA-53" vertex="1">
          <mxGeometry x="300" width="50" height="40" as="geometry">
            <mxRectangle width="50" height="40" as="alternateBounds" />
          </mxGeometry>
        </mxCell>
        <mxCell id="GSeCoP7me-vstZVjyjfA-59" value="status" style="shape=partialRectangle;html=1;whiteSpace=wrap;connectable=0;strokeColor=inherit;overflow=hidden;fillColor=none;top=0;left=0;bottom=0;right=0;pointerEvents=1;" parent="GSeCoP7me-vstZVjyjfA-53" vertex="1">
          <mxGeometry x="350" width="70" height="40" as="geometry">
            <mxRectangle width="70" height="40" as="alternateBounds" />
          </mxGeometry>
        </mxCell>
        <mxCell id="GSeCoP7me-vstZVjyjfA-60" value="posted_time" style="shape=partialRectangle;html=1;whiteSpace=wrap;connectable=0;strokeColor=inherit;overflow=hidden;fillColor=none;top=0;left=0;bottom=0;right=0;pointerEvents=1;" parent="GSeCoP7me-vstZVjyjfA-53" vertex="1">
          <mxGeometry x="420" width="110" height="40" as="geometry">
            <mxRectangle width="110" height="40" as="alternateBounds" />
          </mxGeometry>
        </mxCell>
        <mxCell id="GSeCoP7me-vstZVjyjfA-63" value="&lt;u&gt;&lt;i&gt;cmpyId&lt;/i&gt;&lt;/u&gt;" style="shape=partialRectangle;html=1;whiteSpace=wrap;connectable=0;strokeColor=inherit;overflow=hidden;fillColor=none;top=0;left=0;bottom=0;right=0;pointerEvents=1;" parent="GSeCoP7me-vstZVjyjfA-53" vertex="1">
          <mxGeometry x="530" width="80" height="40" as="geometry">
            <mxRectangle width="80" height="40" as="alternateBounds" />
          </mxGeometry>
        </mxCell>
        <mxCell id="GSeCoP7me-vstZVjyjfA-61" value="JOB_POSTINGS" style="text;html=1;align=center;verticalAlign=middle;resizable=0;points=[];autosize=1;strokeColor=none;fillColor=none;" parent="1" vertex="1">
          <mxGeometry x="1760" y="680" width="120" height="30" as="geometry" />
        </mxCell>
        <mxCell id="GSeCoP7me-vstZVjyjfA-64" value="" style="shape=table;startSize=0;container=1;collapsible=0;childLayout=tableLayout;" parent="1" vertex="1">
          <mxGeometry x="1760" y="840" width="630" height="40" as="geometry" />
        </mxCell>
        <mxCell id="GSeCoP7me-vstZVjyjfA-65" value="" style="shape=tableRow;horizontal=0;startSize=0;swimlaneHead=0;swimlaneBody=0;strokeColor=inherit;top=0;left=0;bottom=0;right=0;collapsible=0;dropTarget=0;fillColor=none;points=[[0,0.5],[1,0.5]];portConstraint=eastwest;" parent="GSeCoP7me-vstZVjyjfA-64" vertex="1">
          <mxGeometry width="630" height="40" as="geometry" />
        </mxCell>
        <mxCell id="GSeCoP7me-vstZVjyjfA-66" value="&lt;u&gt;contractId&lt;/u&gt;" style="shape=partialRectangle;html=1;whiteSpace=wrap;connectable=0;strokeColor=inherit;overflow=hidden;fillColor=none;top=0;left=0;bottom=0;right=0;pointerEvents=1;" parent="GSeCoP7me-vstZVjyjfA-65" vertex="1">
          <mxGeometry width="80" height="40" as="geometry">
            <mxRectangle width="80" height="40" as="alternateBounds" />
          </mxGeometry>
        </mxCell>
        <mxCell id="GSeCoP7me-vstZVjyjfA-67" value="start_date" style="shape=partialRectangle;html=1;whiteSpace=wrap;connectable=0;strokeColor=inherit;overflow=hidden;fillColor=none;top=0;left=0;bottom=0;right=0;pointerEvents=1;" parent="GSeCoP7me-vstZVjyjfA-65" vertex="1">
          <mxGeometry x="80" width="70" height="40" as="geometry">
            <mxRectangle width="70" height="40" as="alternateBounds" />
          </mxGeometry>
        </mxCell>
        <mxCell id="GSeCoP7me-vstZVjyjfA-68" value="end_date" style="shape=partialRectangle;html=1;whiteSpace=wrap;connectable=0;strokeColor=inherit;overflow=hidden;fillColor=none;top=0;left=0;bottom=0;right=0;pointerEvents=1;" parent="GSeCoP7me-vstZVjyjfA-65" vertex="1">
          <mxGeometry x="150" width="70" height="40" as="geometry">
            <mxRectangle width="70" height="40" as="alternateBounds" />
          </mxGeometry>
        </mxCell>
        <mxCell id="GSeCoP7me-vstZVjyjfA-69" value="status" style="shape=partialRectangle;html=1;whiteSpace=wrap;connectable=0;strokeColor=inherit;overflow=hidden;fillColor=none;top=0;left=0;bottom=0;right=0;pointerEvents=1;" parent="GSeCoP7me-vstZVjyjfA-65" vertex="1">
          <mxGeometry x="220" width="50" height="40" as="geometry">
            <mxRectangle width="50" height="40" as="alternateBounds" />
          </mxGeometry>
        </mxCell>
        <mxCell id="GSeCoP7me-vstZVjyjfA-70" value="terms" style="shape=partialRectangle;html=1;whiteSpace=wrap;connectable=0;strokeColor=inherit;overflow=hidden;fillColor=none;top=0;left=0;bottom=0;right=0;pointerEvents=1;" parent="GSeCoP7me-vstZVjyjfA-65" vertex="1">
          <mxGeometry x="270" width="50" height="40" as="geometry">
            <mxRectangle width="50" height="40" as="alternateBounds" />
          </mxGeometry>
        </mxCell>
        <mxCell id="GSeCoP7me-vstZVjyjfA-71" value="&lt;u&gt;&lt;i&gt;parentCompanyId&lt;/i&gt;&lt;/u&gt;" style="shape=partialRectangle;html=1;whiteSpace=wrap;connectable=0;strokeColor=inherit;overflow=hidden;fillColor=none;top=0;left=0;bottom=0;right=0;pointerEvents=1;" parent="GSeCoP7me-vstZVjyjfA-65" vertex="1">
          <mxGeometry x="320" width="130" height="40" as="geometry">
            <mxRectangle width="130" height="40" as="alternateBounds" />
          </mxGeometry>
        </mxCell>
        <mxCell id="GSeCoP7me-vstZVjyjfA-72" value="&lt;u&gt;&lt;i&gt;clientCompanyId&lt;/i&gt;&lt;/u&gt;" style="shape=partialRectangle;html=1;whiteSpace=wrap;connectable=0;strokeColor=inherit;overflow=hidden;fillColor=none;top=0;left=0;bottom=0;right=0;pointerEvents=1;" parent="GSeCoP7me-vstZVjyjfA-65" vertex="1">
          <mxGeometry x="450" width="120" height="40" as="geometry">
            <mxRectangle width="120" height="40" as="alternateBounds" />
          </mxGeometry>
        </mxCell>
        <mxCell id="GSeCoP7me-vstZVjyjfA-74" value="&lt;u&gt;&lt;i&gt;empId&lt;/i&gt;&lt;/u&gt;" style="shape=partialRectangle;html=1;whiteSpace=wrap;connectable=0;strokeColor=inherit;overflow=hidden;fillColor=none;top=0;left=0;bottom=0;right=0;pointerEvents=1;" parent="GSeCoP7me-vstZVjyjfA-65" vertex="1">
          <mxGeometry x="570" width="60" height="40" as="geometry">
            <mxRectangle width="60" height="40" as="alternateBounds" />
          </mxGeometry>
        </mxCell>
        <mxCell id="GSeCoP7me-vstZVjyjfA-73" value="totalCost" style="ellipse;whiteSpace=wrap;html=1;align=center;dashed=1;" parent="1" vertex="1">
          <mxGeometry x="908" y="717.5" width="80" height="30" as="geometry" />
        </mxCell>
        <mxCell id="GSeCoP7me-vstZVjyjfA-75" value="CONTRACTS" style="text;html=1;align=center;verticalAlign=middle;resizable=0;points=[];autosize=1;strokeColor=none;fillColor=none;" parent="1" vertex="1">
          <mxGeometry x="1760" y="810" width="100" height="30" as="geometry" />
        </mxCell>
        <mxCell id="GSeCoP7me-vstZVjyjfA-76" value="" style="shape=table;startSize=0;container=1;collapsible=0;childLayout=tableLayout;" parent="1" vertex="1">
          <mxGeometry x="1760" y="975" width="310" height="40" as="geometry" />
        </mxCell>
        <mxCell id="GSeCoP7me-vstZVjyjfA-77" value="" style="shape=tableRow;horizontal=0;startSize=0;swimlaneHead=0;swimlaneBody=0;strokeColor=inherit;top=0;left=0;bottom=0;right=0;collapsible=0;dropTarget=0;fillColor=none;points=[[0,0.5],[1,0.5]];portConstraint=eastwest;" parent="GSeCoP7me-vstZVjyjfA-76" vertex="1">
          <mxGeometry width="310" height="40" as="geometry" />
        </mxCell>
        <mxCell id="GSeCoP7me-vstZVjyjfA-78" value="&lt;u&gt;paymentId&lt;/u&gt;" style="shape=partialRectangle;html=1;whiteSpace=wrap;connectable=0;strokeColor=inherit;overflow=hidden;fillColor=none;top=0;left=0;bottom=0;right=0;pointerEvents=1;" parent="GSeCoP7me-vstZVjyjfA-77" vertex="1">
          <mxGeometry width="80" height="40" as="geometry">
            <mxRectangle width="80" height="40" as="alternateBounds" />
          </mxGeometry>
        </mxCell>
        <mxCell id="GSeCoP7me-vstZVjyjfA-80" value="payment_date" style="shape=partialRectangle;html=1;whiteSpace=wrap;connectable=0;strokeColor=inherit;overflow=hidden;fillColor=none;top=0;left=0;bottom=0;right=0;pointerEvents=1;" parent="GSeCoP7me-vstZVjyjfA-77" vertex="1">
          <mxGeometry x="80" width="100" height="40" as="geometry">
            <mxRectangle width="100" height="40" as="alternateBounds" />
          </mxGeometry>
        </mxCell>
        <mxCell id="GSeCoP7me-vstZVjyjfA-81" value="status" style="shape=partialRectangle;html=1;whiteSpace=wrap;connectable=0;strokeColor=inherit;overflow=hidden;fillColor=none;top=0;left=0;bottom=0;right=0;pointerEvents=1;" parent="GSeCoP7me-vstZVjyjfA-77" vertex="1">
          <mxGeometry x="180" width="50" height="40" as="geometry">
            <mxRectangle width="50" height="40" as="alternateBounds" />
          </mxGeometry>
        </mxCell>
        <mxCell id="GSeCoP7me-vstZVjyjfA-82" value="&lt;u&gt;&lt;i&gt;contractId&lt;/i&gt;&lt;/u&gt;" style="shape=partialRectangle;html=1;whiteSpace=wrap;connectable=0;strokeColor=inherit;overflow=hidden;fillColor=none;top=0;left=0;bottom=0;right=0;pointerEvents=1;" parent="GSeCoP7me-vstZVjyjfA-77" vertex="1">
          <mxGeometry x="230" width="80" height="40" as="geometry">
            <mxRectangle width="80" height="40" as="alternateBounds" />
          </mxGeometry>
        </mxCell>
        <mxCell id="GSeCoP7me-vstZVjyjfA-84" value="amount" style="ellipse;whiteSpace=wrap;html=1;align=center;dashed=1;" parent="1" vertex="1">
          <mxGeometry x="1130" y="610" width="58" height="32.5" as="geometry" />
        </mxCell>
        <mxCell id="GSeCoP7me-vstZVjyjfA-85" value="PAYMENT" style="text;html=1;align=center;verticalAlign=middle;resizable=0;points=[];autosize=1;strokeColor=none;fillColor=none;" parent="1" vertex="1">
          <mxGeometry x="1760" y="945" width="80" height="30" as="geometry" />
        </mxCell>
        <mxCell id="GSeCoP7me-vstZVjyjfA-101" value="" style="shape=table;startSize=0;container=1;collapsible=0;childLayout=tableLayout;" parent="1" vertex="1">
          <mxGeometry x="2600" y="562" width="240" height="40" as="geometry" />
        </mxCell>
        <mxCell id="GSeCoP7me-vstZVjyjfA-102" value="" style="shape=tableRow;horizontal=0;startSize=0;swimlaneHead=0;swimlaneBody=0;strokeColor=inherit;top=0;left=0;bottom=0;right=0;collapsible=0;dropTarget=0;fillColor=none;points=[[0,0.5],[1,0.5]];portConstraint=eastwest;" parent="GSeCoP7me-vstZVjyjfA-101" vertex="1">
          <mxGeometry width="240" height="40" as="geometry" />
        </mxCell>
        <mxCell id="GSeCoP7me-vstZVjyjfA-103" value="&lt;u&gt;logId&lt;/u&gt;" style="shape=partialRectangle;html=1;whiteSpace=wrap;connectable=0;strokeColor=inherit;overflow=hidden;fillColor=none;top=0;left=0;bottom=0;right=0;pointerEvents=1;" parent="GSeCoP7me-vstZVjyjfA-102" vertex="1">
          <mxGeometry width="60" height="40" as="geometry">
            <mxRectangle width="60" height="40" as="alternateBounds" />
          </mxGeometry>
        </mxCell>
        <mxCell id="GSeCoP7me-vstZVjyjfA-104" value="&lt;u&gt;&lt;i&gt;userId&lt;/i&gt;&lt;/u&gt;" style="shape=partialRectangle;html=1;whiteSpace=wrap;connectable=0;strokeColor=inherit;overflow=hidden;fillColor=none;top=0;left=0;bottom=0;right=0;pointerEvents=1;" parent="GSeCoP7me-vstZVjyjfA-102" vertex="1">
          <mxGeometry x="60" width="60" height="40" as="geometry">
            <mxRectangle width="60" height="40" as="alternateBounds" />
          </mxGeometry>
        </mxCell>
        <mxCell id="GSeCoP7me-vstZVjyjfA-105" value="action" style="shape=partialRectangle;html=1;whiteSpace=wrap;connectable=0;strokeColor=inherit;overflow=hidden;fillColor=none;top=0;left=0;bottom=0;right=0;pointerEvents=1;" parent="GSeCoP7me-vstZVjyjfA-102" vertex="1">
          <mxGeometry x="120" width="60" height="40" as="geometry">
            <mxRectangle width="60" height="40" as="alternateBounds" />
          </mxGeometry>
        </mxCell>
        <mxCell id="GSeCoP7me-vstZVjyjfA-106" value="time" style="shape=partialRectangle;html=1;whiteSpace=wrap;connectable=0;strokeColor=inherit;overflow=hidden;fillColor=none;top=0;left=0;bottom=0;right=0;pointerEvents=1;" parent="GSeCoP7me-vstZVjyjfA-102" vertex="1">
          <mxGeometry x="180" width="60" height="40" as="geometry">
            <mxRectangle width="60" height="40" as="alternateBounds" />
          </mxGeometry>
        </mxCell>
        <mxCell id="GSeCoP7me-vstZVjyjfA-93" value="" style="shape=table;startSize=0;container=1;collapsible=0;childLayout=tableLayout;" parent="1" vertex="1">
          <mxGeometry x="2600" y="417" width="330" height="40" as="geometry" />
        </mxCell>
        <mxCell id="GSeCoP7me-vstZVjyjfA-94" value="" style="shape=tableRow;horizontal=0;startSize=0;swimlaneHead=0;swimlaneBody=0;strokeColor=inherit;top=0;left=0;bottom=0;right=0;collapsible=0;dropTarget=0;fillColor=none;points=[[0,0.5],[1,0.5]];portConstraint=eastwest;" parent="GSeCoP7me-vstZVjyjfA-93" vertex="1">
          <mxGeometry width="330" height="40" as="geometry" />
        </mxCell>
        <mxCell id="GSeCoP7me-vstZVjyjfA-95" value="&lt;u&gt;notificationId&lt;/u&gt;" style="shape=partialRectangle;html=1;whiteSpace=wrap;connectable=0;strokeColor=inherit;overflow=hidden;fillColor=none;top=0;left=0;bottom=0;right=0;pointerEvents=1;" parent="GSeCoP7me-vstZVjyjfA-94" vertex="1">
          <mxGeometry width="80" height="40" as="geometry">
            <mxRectangle width="80" height="40" as="alternateBounds" />
          </mxGeometry>
        </mxCell>
        <mxCell id="GSeCoP7me-vstZVjyjfA-96" value="message" style="shape=partialRectangle;html=1;whiteSpace=wrap;connectable=0;strokeColor=inherit;overflow=hidden;fillColor=none;top=0;left=0;bottom=0;right=0;pointerEvents=1;" parent="GSeCoP7me-vstZVjyjfA-94" vertex="1">
          <mxGeometry x="80" width="70" height="40" as="geometry">
            <mxRectangle width="70" height="40" as="alternateBounds" />
          </mxGeometry>
        </mxCell>
        <mxCell id="GSeCoP7me-vstZVjyjfA-97" value="read_status" style="shape=partialRectangle;html=1;whiteSpace=wrap;connectable=0;strokeColor=inherit;overflow=hidden;fillColor=none;top=0;left=0;bottom=0;right=0;pointerEvents=1;" parent="GSeCoP7me-vstZVjyjfA-94" vertex="1">
          <mxGeometry x="150" width="70" height="40" as="geometry">
            <mxRectangle width="70" height="40" as="alternateBounds" />
          </mxGeometry>
        </mxCell>
        <mxCell id="GSeCoP7me-vstZVjyjfA-98" value="time" style="shape=partialRectangle;html=1;whiteSpace=wrap;connectable=0;strokeColor=inherit;overflow=hidden;fillColor=none;top=0;left=0;bottom=0;right=0;pointerEvents=1;" parent="GSeCoP7me-vstZVjyjfA-94" vertex="1">
          <mxGeometry x="220" width="50" height="40" as="geometry">
            <mxRectangle width="50" height="40" as="alternateBounds" />
          </mxGeometry>
        </mxCell>
        <mxCell id="GSeCoP7me-vstZVjyjfA-99" value="&lt;u&gt;&lt;i&gt;userId&lt;/i&gt;&lt;/u&gt;" style="shape=partialRectangle;html=1;whiteSpace=wrap;connectable=0;strokeColor=inherit;overflow=hidden;fillColor=none;top=0;left=0;bottom=0;right=0;pointerEvents=1;" parent="GSeCoP7me-vstZVjyjfA-94" vertex="1">
          <mxGeometry x="270" width="60" height="40" as="geometry">
            <mxRectangle width="60" height="40" as="alternateBounds" />
          </mxGeometry>
        </mxCell>
        <mxCell id="GSeCoP7me-vstZVjyjfA-109" value="MATCHES" style="text;html=1;align=center;verticalAlign=middle;resizable=0;points=[];autosize=1;strokeColor=none;fillColor=none;" parent="1" vertex="1">
          <mxGeometry x="2600" y="252" width="80" height="30" as="geometry" />
        </mxCell>
        <mxCell id="GSeCoP7me-vstZVjyjfA-110" value="NOTIFICATIONS" style="text;html=1;align=center;verticalAlign=middle;resizable=0;points=[];autosize=1;strokeColor=none;fillColor=none;" parent="1" vertex="1">
          <mxGeometry x="2600" y="387" width="120" height="30" as="geometry" />
        </mxCell>
        <mxCell id="GSeCoP7me-vstZVjyjfA-111" value="ACTIVITY_LOG" style="text;html=1;align=center;verticalAlign=middle;resizable=0;points=[];autosize=1;strokeColor=none;fillColor=none;" parent="1" vertex="1">
          <mxGeometry x="2600" y="532" width="110" height="30" as="geometry" />
        </mxCell>
        <mxCell id="GSeCoP7me-vstZVjyjfA-115" value="" style="shape=table;startSize=0;container=1;collapsible=0;childLayout=tableLayout;" parent="1" vertex="1">
          <mxGeometry x="2600" y="282" width="490" height="40" as="geometry" />
        </mxCell>
        <mxCell id="GSeCoP7me-vstZVjyjfA-116" value="" style="shape=tableRow;horizontal=0;startSize=0;swimlaneHead=0;swimlaneBody=0;strokeColor=inherit;top=0;left=0;bottom=0;right=0;collapsible=0;dropTarget=0;fillColor=none;points=[[0,0.5],[1,0.5]];portConstraint=eastwest;" parent="GSeCoP7me-vstZVjyjfA-115" vertex="1">
          <mxGeometry width="490" height="40" as="geometry" />
        </mxCell>
        <mxCell id="GSeCoP7me-vstZVjyjfA-117" value="&lt;u&gt;matchId&lt;/u&gt;" style="shape=partialRectangle;html=1;whiteSpace=wrap;connectable=0;strokeColor=inherit;overflow=hidden;fillColor=none;top=0;left=0;bottom=0;right=0;pointerEvents=1;" parent="GSeCoP7me-vstZVjyjfA-116" vertex="1">
          <mxGeometry width="80" height="40" as="geometry">
            <mxRectangle width="80" height="40" as="alternateBounds" />
          </mxGeometry>
        </mxCell>
        <mxCell id="GSeCoP7me-vstZVjyjfA-120" value="status" style="shape=partialRectangle;html=1;whiteSpace=wrap;connectable=0;strokeColor=inherit;overflow=hidden;fillColor=none;top=0;left=0;bottom=0;right=0;pointerEvents=1;" parent="GSeCoP7me-vstZVjyjfA-116" vertex="1">
          <mxGeometry x="80" width="50" height="40" as="geometry">
            <mxRectangle width="50" height="40" as="alternateBounds" />
          </mxGeometry>
        </mxCell>
        <mxCell id="GSeCoP7me-vstZVjyjfA-121" value="time" style="shape=partialRectangle;html=1;whiteSpace=wrap;connectable=0;strokeColor=inherit;overflow=hidden;fillColor=none;top=0;left=0;bottom=0;right=0;pointerEvents=1;" parent="GSeCoP7me-vstZVjyjfA-116" vertex="1">
          <mxGeometry x="130" width="50" height="40" as="geometry">
            <mxRectangle width="50" height="40" as="alternateBounds" />
          </mxGeometry>
        </mxCell>
        <mxCell id="GSeCoP7me-vstZVjyjfA-122" value="&lt;u&gt;&lt;i&gt;parentCompanyId&lt;/i&gt;&lt;/u&gt;" style="shape=partialRectangle;html=1;whiteSpace=wrap;connectable=0;strokeColor=inherit;overflow=hidden;fillColor=none;top=0;left=0;bottom=0;right=0;pointerEvents=1;" parent="GSeCoP7me-vstZVjyjfA-116" vertex="1">
          <mxGeometry x="180" width="130" height="40" as="geometry">
            <mxRectangle width="130" height="40" as="alternateBounds" />
          </mxGeometry>
        </mxCell>
        <mxCell id="GSeCoP7me-vstZVjyjfA-123" value="&lt;u&gt;&lt;i&gt;clientCompanyId&lt;/i&gt;&lt;/u&gt;" style="shape=partialRectangle;html=1;whiteSpace=wrap;connectable=0;strokeColor=inherit;overflow=hidden;fillColor=none;top=0;left=0;bottom=0;right=0;pointerEvents=1;" parent="GSeCoP7me-vstZVjyjfA-116" vertex="1">
          <mxGeometry x="310" width="120" height="40" as="geometry">
            <mxRectangle width="120" height="40" as="alternateBounds" />
          </mxGeometry>
        </mxCell>
        <mxCell id="GSeCoP7me-vstZVjyjfA-124" value="&lt;u&gt;&lt;i&gt;empId&lt;/i&gt;&lt;/u&gt;" style="shape=partialRectangle;html=1;whiteSpace=wrap;connectable=0;strokeColor=inherit;overflow=hidden;fillColor=none;top=0;left=0;bottom=0;right=0;pointerEvents=1;" parent="GSeCoP7me-vstZVjyjfA-116" vertex="1">
          <mxGeometry x="430" width="60" height="40" as="geometry">
            <mxRectangle width="60" height="40" as="alternateBounds" />
          </mxGeometry>
        </mxCell>
        <mxCell id="GSeCoP7me-vstZVjyjfA-126" value="Name: Md. Nafis Muktashid Arpon&lt;div&gt;ID: 2232602042&lt;span style=&quot;white-space: pre;&quot;&gt;&#x9;&lt;/span&gt;Group: 09&lt;/div&gt;" style="text;html=1;align=center;verticalAlign=middle;resizable=0;points=[];autosize=1;strokeColor=none;fillColor=none;" parent="1" vertex="1">
          <mxGeometry x="3050" y="1080" width="210" height="40" as="geometry" />
        </mxCell>
        <mxCell id="GSeCoP7me-vstZVjyjfA-127" value="" style="shape=table;startSize=0;container=1;collapsible=0;childLayout=tableLayout;" parent="1" vertex="1">
          <mxGeometry x="2600" y="700" width="240" height="40" as="geometry" />
        </mxCell>
        <mxCell id="GSeCoP7me-vstZVjyjfA-128" value="" style="shape=tableRow;horizontal=0;startSize=0;swimlaneHead=0;swimlaneBody=0;strokeColor=inherit;top=0;left=0;bottom=0;right=0;collapsible=0;dropTarget=0;fillColor=none;points=[[0,0.5],[1,0.5]];portConstraint=eastwest;" parent="GSeCoP7me-vstZVjyjfA-127" vertex="1">
          <mxGeometry width="240" height="40" as="geometry" />
        </mxCell>
        <mxCell id="GSeCoP7me-vstZVjyjfA-129" value="&lt;u&gt;recordId&lt;/u&gt;" style="shape=partialRectangle;html=1;whiteSpace=wrap;connectable=0;strokeColor=inherit;overflow=hidden;fillColor=none;top=0;left=0;bottom=0;right=0;pointerEvents=1;" parent="GSeCoP7me-vstZVjyjfA-128" vertex="1">
          <mxGeometry width="60" height="40" as="geometry">
            <mxRectangle width="60" height="40" as="alternateBounds" />
          </mxGeometry>
        </mxCell>
        <mxCell id="GSeCoP7me-vstZVjyjfA-130" value="&lt;u&gt;&lt;i&gt;contractId&lt;/i&gt;&lt;/u&gt;" style="shape=partialRectangle;html=1;whiteSpace=wrap;connectable=0;strokeColor=inherit;overflow=hidden;fillColor=none;top=0;left=0;bottom=0;right=0;pointerEvents=1;" parent="GSeCoP7me-vstZVjyjfA-128" vertex="1">
          <mxGeometry x="60" width="60" height="40" as="geometry">
            <mxRectangle width="60" height="40" as="alternateBounds" />
          </mxGeometry>
        </mxCell>
        <mxCell id="GSeCoP7me-vstZVjyjfA-131" value="&lt;u&gt;&lt;i&gt;cmpyId&lt;/i&gt;&lt;/u&gt;" style="shape=partialRectangle;html=1;whiteSpace=wrap;connectable=0;strokeColor=inherit;overflow=hidden;fillColor=none;top=0;left=0;bottom=0;right=0;pointerEvents=1;" parent="GSeCoP7me-vstZVjyjfA-128" vertex="1">
          <mxGeometry x="120" width="60" height="40" as="geometry">
            <mxRectangle width="60" height="40" as="alternateBounds" />
          </mxGeometry>
        </mxCell>
        <mxCell id="GSeCoP7me-vstZVjyjfA-132" value="empID" style="shape=partialRectangle;html=1;whiteSpace=wrap;connectable=0;strokeColor=inherit;overflow=hidden;fillColor=none;top=0;left=0;bottom=0;right=0;pointerEvents=1;" parent="GSeCoP7me-vstZVjyjfA-128" vertex="1">
          <mxGeometry x="180" width="60" height="40" as="geometry">
            <mxRectangle width="60" height="40" as="alternateBounds" />
          </mxGeometry>
        </mxCell>
        <mxCell id="GSeCoP7me-vstZVjyjfA-135" value="COMPANY-EMPLOYEE ASSIGNEMENT" style="text;html=1;align=center;verticalAlign=middle;resizable=0;points=[];autosize=1;strokeColor=none;fillColor=none;" parent="1" vertex="1">
          <mxGeometry x="2600" y="670" width="240" height="30" as="geometry" />
        </mxCell>
        <mxCell id="GSeCoP7me-vstZVjyjfA-136" value="" style="shape=table;startSize=0;container=1;collapsible=0;childLayout=tableLayout;" parent="1" vertex="1">
          <mxGeometry x="2600" y="832" width="180" height="40" as="geometry" />
        </mxCell>
        <mxCell id="GSeCoP7me-vstZVjyjfA-137" value="" style="shape=tableRow;horizontal=0;startSize=0;swimlaneHead=0;swimlaneBody=0;strokeColor=inherit;top=0;left=0;bottom=0;right=0;collapsible=0;dropTarget=0;fillColor=none;points=[[0,0.5],[1,0.5]];portConstraint=eastwest;" parent="GSeCoP7me-vstZVjyjfA-136" vertex="1">
          <mxGeometry width="180" height="40" as="geometry" />
        </mxCell>
        <mxCell id="GSeCoP7me-vstZVjyjfA-138" value="&lt;u&gt;recordId&lt;/u&gt;" style="shape=partialRectangle;html=1;whiteSpace=wrap;connectable=0;strokeColor=inherit;overflow=hidden;fillColor=none;top=0;left=0;bottom=0;right=0;pointerEvents=1;" parent="GSeCoP7me-vstZVjyjfA-137" vertex="1">
          <mxGeometry width="60" height="40" as="geometry">
            <mxRectangle width="60" height="40" as="alternateBounds" />
          </mxGeometry>
        </mxCell>
        <mxCell id="GSeCoP7me-vstZVjyjfA-140" value="&lt;u&gt;&lt;i&gt;cmpyId&lt;/i&gt;&lt;/u&gt;" style="shape=partialRectangle;html=1;whiteSpace=wrap;connectable=0;strokeColor=inherit;overflow=hidden;fillColor=none;top=0;left=0;bottom=0;right=0;pointerEvents=1;" parent="GSeCoP7me-vstZVjyjfA-137" vertex="1">
          <mxGeometry x="60" width="60" height="40" as="geometry">
            <mxRectangle width="60" height="40" as="alternateBounds" />
          </mxGeometry>
        </mxCell>
        <mxCell id="GSeCoP7me-vstZVjyjfA-141" value="&lt;u&gt;&lt;i&gt;jobId&lt;/i&gt;&lt;/u&gt;" style="shape=partialRectangle;html=1;whiteSpace=wrap;connectable=0;strokeColor=inherit;overflow=hidden;fillColor=none;top=0;left=0;bottom=0;right=0;pointerEvents=1;" parent="GSeCoP7me-vstZVjyjfA-137" vertex="1">
          <mxGeometry x="120" width="60" height="40" as="geometry">
            <mxRectangle width="60" height="40" as="alternateBounds" />
          </mxGeometry>
        </mxCell>
        <mxCell id="GSeCoP7me-vstZVjyjfA-142" value="COMPANY-JOB APPLY" style="text;html=1;align=center;verticalAlign=middle;resizable=0;points=[];autosize=1;strokeColor=none;fillColor=none;" parent="1" vertex="1">
          <mxGeometry x="2600" y="802" width="150" height="30" as="geometry" />
        </mxCell>
        <mxCell id="GSeCoP7me-vstZVjyjfA-143" value="" style="shape=table;startSize=0;container=1;collapsible=0;childLayout=tableLayout;" parent="1" vertex="1">
          <mxGeometry x="2600" y="971" width="180" height="40" as="geometry" />
        </mxCell>
        <mxCell id="GSeCoP7me-vstZVjyjfA-144" value="" style="shape=tableRow;horizontal=0;startSize=0;swimlaneHead=0;swimlaneBody=0;strokeColor=inherit;top=0;left=0;bottom=0;right=0;collapsible=0;dropTarget=0;fillColor=none;points=[[0,0.5],[1,0.5]];portConstraint=eastwest;" parent="GSeCoP7me-vstZVjyjfA-143" vertex="1">
          <mxGeometry width="180" height="40" as="geometry" />
        </mxCell>
        <mxCell id="GSeCoP7me-vstZVjyjfA-145" value="&lt;u&gt;recordId&lt;/u&gt;" style="shape=partialRectangle;html=1;whiteSpace=wrap;connectable=0;strokeColor=inherit;overflow=hidden;fillColor=none;top=0;left=0;bottom=0;right=0;pointerEvents=1;" parent="GSeCoP7me-vstZVjyjfA-144" vertex="1">
          <mxGeometry width="60" height="40" as="geometry">
            <mxRectangle width="60" height="40" as="alternateBounds" />
          </mxGeometry>
        </mxCell>
        <mxCell id="GSeCoP7me-vstZVjyjfA-147" value="&lt;u&gt;&lt;i&gt;cmpyId&lt;/i&gt;&lt;/u&gt;" style="shape=partialRectangle;html=1;whiteSpace=wrap;connectable=0;strokeColor=inherit;overflow=hidden;fillColor=none;top=0;left=0;bottom=0;right=0;pointerEvents=1;" parent="GSeCoP7me-vstZVjyjfA-144" vertex="1">
          <mxGeometry x="60" width="60" height="40" as="geometry">
            <mxRectangle width="60" height="40" as="alternateBounds" />
          </mxGeometry>
        </mxCell>
        <mxCell id="GSeCoP7me-vstZVjyjfA-148" value="&lt;u&gt;&lt;i&gt;jobId&lt;/i&gt;&lt;/u&gt;" style="shape=partialRectangle;html=1;whiteSpace=wrap;connectable=0;strokeColor=inherit;overflow=hidden;fillColor=none;top=0;left=0;bottom=0;right=0;pointerEvents=1;" parent="GSeCoP7me-vstZVjyjfA-144" vertex="1">
          <mxGeometry x="120" width="60" height="40" as="geometry">
            <mxRectangle width="60" height="40" as="alternateBounds" />
          </mxGeometry>
        </mxCell>
        <mxCell id="GSeCoP7me-vstZVjyjfA-149" value="COMPANY-JOB POST" style="text;html=1;align=center;verticalAlign=middle;resizable=0;points=[];autosize=1;strokeColor=none;fillColor=none;" parent="1" vertex="1">
          <mxGeometry x="2600" y="941" width="150" height="30" as="geometry" />
        </mxCell>
        <mxCell id="GSeCoP7me-vstZVjyjfA-150" value="" style="shape=table;startSize=0;container=1;collapsible=0;childLayout=tableLayout;" parent="1" vertex="1">
          <mxGeometry x="2600" y="160" width="650" height="40" as="geometry" />
        </mxCell>
        <mxCell id="GSeCoP7me-vstZVjyjfA-151" value="" style="shape=tableRow;horizontal=0;startSize=0;swimlaneHead=0;swimlaneBody=0;strokeColor=inherit;top=0;left=0;bottom=0;right=0;collapsible=0;dropTarget=0;fillColor=none;points=[[0,0.5],[1,0.5]];portConstraint=eastwest;" parent="GSeCoP7me-vstZVjyjfA-150" vertex="1">
          <mxGeometry width="650" height="40" as="geometry" />
        </mxCell>
        <mxCell id="GSeCoP7me-vstZVjyjfA-152" value="&lt;u&gt;reviewId&lt;/u&gt;" style="shape=partialRectangle;html=1;whiteSpace=wrap;connectable=0;strokeColor=inherit;overflow=hidden;fillColor=none;top=0;left=0;bottom=0;right=0;pointerEvents=1;" parent="GSeCoP7me-vstZVjyjfA-151" vertex="1">
          <mxGeometry width="60" height="40" as="geometry">
            <mxRectangle width="60" height="40" as="alternateBounds" />
          </mxGeometry>
        </mxCell>
        <mxCell id="GSeCoP7me-vstZVjyjfA-153" value="&lt;u&gt;&lt;i&gt;contractId&lt;/i&gt;&lt;/u&gt;" style="shape=partialRectangle;html=1;whiteSpace=wrap;connectable=0;strokeColor=inherit;overflow=hidden;fillColor=none;top=0;left=0;bottom=0;right=0;pointerEvents=1;" parent="GSeCoP7me-vstZVjyjfA-151" vertex="1">
          <mxGeometry x="60" width="80" height="40" as="geometry">
            <mxRectangle width="80" height="40" as="alternateBounds" />
          </mxGeometry>
        </mxCell>
        <mxCell id="GSeCoP7me-vstZVjyjfA-154" value="&lt;u&gt;&lt;i&gt;parentCompanyId&lt;/i&gt;&lt;/u&gt;" style="shape=partialRectangle;html=1;whiteSpace=wrap;connectable=0;strokeColor=inherit;overflow=hidden;fillColor=none;top=0;left=0;bottom=0;right=0;pointerEvents=1;" parent="GSeCoP7me-vstZVjyjfA-151" vertex="1">
          <mxGeometry x="140" width="130" height="40" as="geometry">
            <mxRectangle width="130" height="40" as="alternateBounds" />
          </mxGeometry>
        </mxCell>
        <mxCell id="GSeCoP7me-vstZVjyjfA-155" value="&lt;u&gt;&lt;i&gt;clientCompanyId&lt;/i&gt;&lt;/u&gt;" style="shape=partialRectangle;html=1;whiteSpace=wrap;connectable=0;strokeColor=inherit;overflow=hidden;fillColor=none;top=0;left=0;bottom=0;right=0;pointerEvents=1;" parent="GSeCoP7me-vstZVjyjfA-151" vertex="1">
          <mxGeometry x="270" width="110" height="40" as="geometry">
            <mxRectangle width="110" height="40" as="alternateBounds" />
          </mxGeometry>
        </mxCell>
        <mxCell id="GSeCoP7me-vstZVjyjfA-156" value="rating" style="shape=partialRectangle;html=1;whiteSpace=wrap;connectable=0;strokeColor=inherit;overflow=hidden;fillColor=none;top=0;left=0;bottom=0;right=0;pointerEvents=1;" parent="GSeCoP7me-vstZVjyjfA-151" vertex="1">
          <mxGeometry x="380" width="60" height="40" as="geometry">
            <mxRectangle width="60" height="40" as="alternateBounds" />
          </mxGeometry>
        </mxCell>
        <mxCell id="GSeCoP7me-vstZVjyjfA-157" value="comment" style="shape=partialRectangle;html=1;whiteSpace=wrap;connectable=0;strokeColor=inherit;overflow=hidden;fillColor=none;top=0;left=0;bottom=0;right=0;pointerEvents=1;" parent="GSeCoP7me-vstZVjyjfA-151" vertex="1">
          <mxGeometry x="440" width="90" height="40" as="geometry">
            <mxRectangle width="90" height="40" as="alternateBounds" />
          </mxGeometry>
        </mxCell>
        <mxCell id="GSeCoP7me-vstZVjyjfA-158" value="time" style="shape=partialRectangle;html=1;whiteSpace=wrap;connectable=0;strokeColor=inherit;overflow=hidden;fillColor=none;top=0;left=0;bottom=0;right=0;pointerEvents=1;" parent="GSeCoP7me-vstZVjyjfA-151" vertex="1">
          <mxGeometry x="530" width="50" height="40" as="geometry">
            <mxRectangle width="50" height="40" as="alternateBounds" />
          </mxGeometry>
        </mxCell>
        <mxCell id="GSeCoP7me-vstZVjyjfA-159" value="&lt;u&gt;&lt;i&gt;empId&lt;/i&gt;&lt;/u&gt;" style="shape=partialRectangle;html=1;whiteSpace=wrap;connectable=0;strokeColor=inherit;overflow=hidden;fillColor=none;top=0;left=0;bottom=0;right=0;pointerEvents=1;" parent="GSeCoP7me-vstZVjyjfA-151" vertex="1">
          <mxGeometry x="580" width="70" height="40" as="geometry">
            <mxRectangle width="70" height="40" as="alternateBounds" />
          </mxGeometry>
        </mxCell>
        <mxCell id="GSeCoP7me-vstZVjyjfA-160" value="REIVEWS" style="text;html=1;align=center;verticalAlign=middle;resizable=0;points=[];autosize=1;strokeColor=none;fillColor=none;" parent="1" vertex="1">
          <mxGeometry x="2600" y="130" width="80" height="30" as="geometry" />
        </mxCell>
        <mxCell id="GSeCoP7me-vstZVjyjfA-342" value="" style="shape=table;startSize=0;container=1;collapsible=0;childLayout=tableLayout;" parent="1" vertex="1">
          <mxGeometry x="4200" y="240" width="590" height="40" as="geometry" />
        </mxCell>
        <mxCell id="GSeCoP7me-vstZVjyjfA-343" value="" style="shape=tableRow;horizontal=0;startSize=0;swimlaneHead=0;swimlaneBody=0;strokeColor=inherit;top=0;left=0;bottom=0;right=0;collapsible=0;dropTarget=0;fillColor=none;points=[[0,0.5],[1,0.5]];portConstraint=eastwest;" parent="GSeCoP7me-vstZVjyjfA-342" vertex="1">
          <mxGeometry width="590" height="40" as="geometry" />
        </mxCell>
        <mxCell id="GSeCoP7me-vstZVjyjfA-344" value="&lt;u&gt;contractId&lt;/u&gt;" style="shape=partialRectangle;html=1;whiteSpace=wrap;connectable=0;strokeColor=inherit;overflow=hidden;fillColor=none;top=0;left=0;bottom=0;right=0;pointerEvents=1;" parent="GSeCoP7me-vstZVjyjfA-343" vertex="1">
          <mxGeometry width="80" height="40" as="geometry">
            <mxRectangle width="80" height="40" as="alternateBounds" />
          </mxGeometry>
        </mxCell>
        <mxCell id="GSeCoP7me-vstZVjyjfA-345" value="start_date" style="shape=partialRectangle;html=1;whiteSpace=wrap;connectable=0;strokeColor=inherit;overflow=hidden;fillColor=none;top=0;left=0;bottom=0;right=0;pointerEvents=1;" parent="GSeCoP7me-vstZVjyjfA-343" vertex="1">
          <mxGeometry x="80" width="70" height="40" as="geometry">
            <mxRectangle width="70" height="40" as="alternateBounds" />
          </mxGeometry>
        </mxCell>
        <mxCell id="GSeCoP7me-vstZVjyjfA-346" value="end_date" style="shape=partialRectangle;html=1;whiteSpace=wrap;connectable=0;strokeColor=inherit;overflow=hidden;fillColor=none;top=0;left=0;bottom=0;right=0;pointerEvents=1;" parent="GSeCoP7me-vstZVjyjfA-343" vertex="1">
          <mxGeometry x="150" width="70" height="40" as="geometry">
            <mxRectangle width="70" height="40" as="alternateBounds" />
          </mxGeometry>
        </mxCell>
        <mxCell id="GSeCoP7me-vstZVjyjfA-347" value="status" style="shape=partialRectangle;html=1;whiteSpace=wrap;connectable=0;strokeColor=inherit;overflow=hidden;fillColor=none;top=0;left=0;bottom=0;right=0;pointerEvents=1;" parent="GSeCoP7me-vstZVjyjfA-343" vertex="1">
          <mxGeometry x="220" width="50" height="40" as="geometry">
            <mxRectangle width="50" height="40" as="alternateBounds" />
          </mxGeometry>
        </mxCell>
        <mxCell id="GSeCoP7me-vstZVjyjfA-349" value="&lt;u&gt;&lt;i&gt;applyingCompanyId&lt;/i&gt;&lt;/u&gt;" style="shape=partialRectangle;html=1;whiteSpace=wrap;connectable=0;strokeColor=inherit;overflow=hidden;fillColor=none;top=0;left=0;bottom=0;right=0;pointerEvents=1;" parent="GSeCoP7me-vstZVjyjfA-343" vertex="1">
          <mxGeometry x="270" width="130" height="40" as="geometry">
            <mxRectangle width="130" height="40" as="alternateBounds" />
          </mxGeometry>
        </mxCell>
        <mxCell id="GSeCoP7me-vstZVjyjfA-350" value="&lt;u&gt;&lt;i&gt;hiringCompanyId&lt;/i&gt;&lt;/u&gt;" style="shape=partialRectangle;html=1;whiteSpace=wrap;connectable=0;strokeColor=inherit;overflow=hidden;fillColor=none;top=0;left=0;bottom=0;right=0;pointerEvents=1;" parent="GSeCoP7me-vstZVjyjfA-343" vertex="1">
          <mxGeometry x="400" width="120" height="40" as="geometry">
            <mxRectangle width="120" height="40" as="alternateBounds" />
          </mxGeometry>
        </mxCell>
        <mxCell id="Td_jvPPp4fFjdix4C41g-2" value="&lt;u&gt;&lt;i&gt;jobId&lt;/i&gt;&lt;/u&gt;" style="shape=partialRectangle;html=1;whiteSpace=wrap;connectable=0;strokeColor=inherit;overflow=hidden;fillColor=none;top=0;left=0;bottom=0;right=0;pointerEvents=1;" vertex="1" parent="GSeCoP7me-vstZVjyjfA-343">
          <mxGeometry x="520" width="70" height="40" as="geometry">
            <mxRectangle width="70" height="40" as="alternateBounds" />
          </mxGeometry>
        </mxCell>
        <mxCell id="GSeCoP7me-vstZVjyjfA-352" value="CONTRACTS" style="text;html=1;align=center;verticalAlign=middle;resizable=0;points=[];autosize=1;strokeColor=none;fillColor=none;" parent="1" vertex="1">
          <mxGeometry x="4200" y="210" width="100" height="30" as="geometry" />
        </mxCell>
        <mxCell id="GSeCoP7me-vstZVjyjfA-353" value="" style="shape=table;startSize=0;container=1;collapsible=0;childLayout=tableLayout;" parent="1" vertex="1">
          <mxGeometry x="4200" y="460" width="390" height="40" as="geometry" />
        </mxCell>
        <mxCell id="GSeCoP7me-vstZVjyjfA-354" value="" style="shape=tableRow;horizontal=0;startSize=0;swimlaneHead=0;swimlaneBody=0;strokeColor=inherit;top=0;left=0;bottom=0;right=0;collapsible=0;dropTarget=0;fillColor=none;points=[[0,0.5],[1,0.5]];portConstraint=eastwest;" parent="GSeCoP7me-vstZVjyjfA-353" vertex="1">
          <mxGeometry width="390" height="40" as="geometry" />
        </mxCell>
        <mxCell id="GSeCoP7me-vstZVjyjfA-355" value="&lt;u&gt;paymentId&lt;/u&gt;" style="shape=partialRectangle;html=1;whiteSpace=wrap;connectable=0;strokeColor=inherit;overflow=hidden;fillColor=none;top=0;left=0;bottom=0;right=0;pointerEvents=1;" parent="GSeCoP7me-vstZVjyjfA-354" vertex="1">
          <mxGeometry width="80" height="40" as="geometry">
            <mxRectangle width="80" height="40" as="alternateBounds" />
          </mxGeometry>
        </mxCell>
        <mxCell id="GSeCoP7me-vstZVjyjfA-446" value="amount" style="shape=partialRectangle;html=1;whiteSpace=wrap;connectable=0;strokeColor=inherit;overflow=hidden;fillColor=none;top=0;left=0;bottom=0;right=0;pointerEvents=1;" parent="GSeCoP7me-vstZVjyjfA-354" vertex="1">
          <mxGeometry x="80" width="80" height="40" as="geometry">
            <mxRectangle width="80" height="40" as="alternateBounds" />
          </mxGeometry>
        </mxCell>
        <mxCell id="GSeCoP7me-vstZVjyjfA-356" value="payment_date" style="shape=partialRectangle;html=1;whiteSpace=wrap;connectable=0;strokeColor=inherit;overflow=hidden;fillColor=none;top=0;left=0;bottom=0;right=0;pointerEvents=1;" parent="GSeCoP7me-vstZVjyjfA-354" vertex="1">
          <mxGeometry x="160" width="100" height="40" as="geometry">
            <mxRectangle width="100" height="40" as="alternateBounds" />
          </mxGeometry>
        </mxCell>
        <mxCell id="GSeCoP7me-vstZVjyjfA-357" value="status" style="shape=partialRectangle;html=1;whiteSpace=wrap;connectable=0;strokeColor=inherit;overflow=hidden;fillColor=none;top=0;left=0;bottom=0;right=0;pointerEvents=1;" parent="GSeCoP7me-vstZVjyjfA-354" vertex="1">
          <mxGeometry x="260" width="50" height="40" as="geometry">
            <mxRectangle width="50" height="40" as="alternateBounds" />
          </mxGeometry>
        </mxCell>
        <mxCell id="GSeCoP7me-vstZVjyjfA-358" value="&lt;u&gt;&lt;i&gt;contractId&lt;/i&gt;&lt;/u&gt;" style="shape=partialRectangle;html=1;whiteSpace=wrap;connectable=0;strokeColor=inherit;overflow=hidden;fillColor=none;top=0;left=0;bottom=0;right=0;pointerEvents=1;" parent="GSeCoP7me-vstZVjyjfA-354" vertex="1">
          <mxGeometry x="310" width="80" height="40" as="geometry">
            <mxRectangle width="80" height="40" as="alternateBounds" />
          </mxGeometry>
        </mxCell>
        <mxCell id="GSeCoP7me-vstZVjyjfA-359" value="PAYMENT" style="text;html=1;align=center;verticalAlign=middle;resizable=0;points=[];autosize=1;strokeColor=none;fillColor=none;" parent="1" vertex="1">
          <mxGeometry x="4200" y="430" width="80" height="30" as="geometry" />
        </mxCell>
        <mxCell id="GSeCoP7me-vstZVjyjfA-384" value="Name: Md. Nafis Muktashid Arpon&lt;div&gt;ID: 2232602042&lt;span style=&quot;white-space: pre;&quot;&gt;&#x9;&lt;/span&gt;Group: 09&lt;/div&gt;" style="text;html=1;align=center;verticalAlign=middle;resizable=0;points=[];autosize=1;strokeColor=none;fillColor=none;" parent="1" vertex="1">
          <mxGeometry x="4710" y="1060" width="210" height="40" as="geometry" />
        </mxCell>
        <mxCell id="GSeCoP7me-vstZVjyjfA-385" value="" style="shape=table;startSize=0;container=1;collapsible=0;childLayout=tableLayout;" parent="1" vertex="1">
          <mxGeometry x="4200" y="590" width="310" height="40" as="geometry" />
        </mxCell>
        <mxCell id="GSeCoP7me-vstZVjyjfA-386" value="" style="shape=tableRow;horizontal=0;startSize=0;swimlaneHead=0;swimlaneBody=0;strokeColor=inherit;top=0;left=0;bottom=0;right=0;collapsible=0;dropTarget=0;fillColor=none;points=[[0,0.5],[1,0.5]];portConstraint=eastwest;" parent="GSeCoP7me-vstZVjyjfA-385" vertex="1">
          <mxGeometry width="310" height="40" as="geometry" />
        </mxCell>
        <mxCell id="GSeCoP7me-vstZVjyjfA-387" value="&lt;u&gt;recordId&lt;/u&gt;" style="shape=partialRectangle;html=1;whiteSpace=wrap;connectable=0;strokeColor=inherit;overflow=hidden;fillColor=none;top=0;left=0;bottom=0;right=0;pointerEvents=1;" parent="GSeCoP7me-vstZVjyjfA-386" vertex="1">
          <mxGeometry width="60" height="40" as="geometry">
            <mxRectangle width="60" height="40" as="alternateBounds" />
          </mxGeometry>
        </mxCell>
        <mxCell id="GSeCoP7me-vstZVjyjfA-388" value="&lt;u&gt;&lt;i&gt;contractId&lt;/i&gt;&lt;/u&gt;" style="shape=partialRectangle;html=1;whiteSpace=wrap;connectable=0;strokeColor=inherit;overflow=hidden;fillColor=none;top=0;left=0;bottom=0;right=0;pointerEvents=1;" parent="GSeCoP7me-vstZVjyjfA-386" vertex="1">
          <mxGeometry x="60" width="80" height="40" as="geometry">
            <mxRectangle width="80" height="40" as="alternateBounds" />
          </mxGeometry>
        </mxCell>
        <mxCell id="GSeCoP7me-vstZVjyjfA-389" value="&lt;u&gt;&lt;i&gt;companyId&lt;/i&gt;&lt;/u&gt;" style="shape=partialRectangle;html=1;whiteSpace=wrap;connectable=0;strokeColor=inherit;overflow=hidden;fillColor=none;top=0;left=0;bottom=0;right=0;pointerEvents=1;" parent="GSeCoP7me-vstZVjyjfA-386" vertex="1">
          <mxGeometry x="140" width="80" height="40" as="geometry">
            <mxRectangle width="80" height="40" as="alternateBounds" />
          </mxGeometry>
        </mxCell>
        <mxCell id="GSeCoP7me-vstZVjyjfA-390" value="&lt;u&gt;&lt;i&gt;employeeId&lt;/i&gt;&lt;/u&gt;" style="shape=partialRectangle;html=1;whiteSpace=wrap;connectable=0;strokeColor=inherit;overflow=hidden;fillColor=none;top=0;left=0;bottom=0;right=0;pointerEvents=1;" parent="GSeCoP7me-vstZVjyjfA-386" vertex="1">
          <mxGeometry x="220" width="90" height="40" as="geometry">
            <mxRectangle width="90" height="40" as="alternateBounds" />
          </mxGeometry>
        </mxCell>
        <mxCell id="GSeCoP7me-vstZVjyjfA-391" value="COMPANY-EMPLOYEE ASSIGNEMENT" style="text;html=1;align=center;verticalAlign=middle;resizable=0;points=[];autosize=1;strokeColor=none;fillColor=none;" parent="1" vertex="1">
          <mxGeometry x="4200" y="560" width="240" height="30" as="geometry" />
        </mxCell>
        <mxCell id="GSeCoP7me-vstZVjyjfA-288" value="" style="shape=table;startSize=0;container=1;collapsible=0;childLayout=tableLayout;" parent="1" vertex="1">
          <mxGeometry x="3400" y="120" width="541" height="40" as="geometry" />
        </mxCell>
        <mxCell id="GSeCoP7me-vstZVjyjfA-289" value="" style="shape=tableRow;horizontal=0;startSize=0;swimlaneHead=0;swimlaneBody=0;strokeColor=inherit;top=0;left=0;bottom=0;right=0;collapsible=0;dropTarget=0;fillColor=none;points=[[0,0.5],[1,0.5]];portConstraint=eastwest;" parent="GSeCoP7me-vstZVjyjfA-288" vertex="1">
          <mxGeometry width="541" height="40" as="geometry" />
        </mxCell>
        <mxCell id="GSeCoP7me-vstZVjyjfA-290" value="&lt;u&gt;userId&lt;/u&gt;" style="shape=partialRectangle;html=1;whiteSpace=wrap;connectable=0;strokeColor=inherit;overflow=hidden;fillColor=none;top=0;left=0;bottom=0;right=0;pointerEvents=1;" parent="GSeCoP7me-vstZVjyjfA-289" vertex="1">
          <mxGeometry width="78" height="40" as="geometry">
            <mxRectangle width="78" height="40" as="alternateBounds" />
          </mxGeometry>
        </mxCell>
        <mxCell id="GSeCoP7me-vstZVjyjfA-291" value="password" style="shape=partialRectangle;html=1;whiteSpace=wrap;connectable=0;strokeColor=inherit;overflow=hidden;fillColor=none;top=0;left=0;bottom=0;right=0;pointerEvents=1;" parent="GSeCoP7me-vstZVjyjfA-289" vertex="1">
          <mxGeometry x="78" width="77" height="40" as="geometry">
            <mxRectangle width="77" height="40" as="alternateBounds" />
          </mxGeometry>
        </mxCell>
        <mxCell id="GSeCoP7me-vstZVjyjfA-292" value="name" style="shape=partialRectangle;html=1;whiteSpace=wrap;connectable=0;strokeColor=inherit;overflow=hidden;fillColor=none;top=0;left=0;bottom=0;right=0;pointerEvents=1;" parent="GSeCoP7me-vstZVjyjfA-289" vertex="1">
          <mxGeometry x="155" width="65" height="40" as="geometry">
            <mxRectangle width="65" height="40" as="alternateBounds" />
          </mxGeometry>
        </mxCell>
        <mxCell id="GSeCoP7me-vstZVjyjfA-293" value="email" style="shape=partialRectangle;html=1;whiteSpace=wrap;connectable=0;strokeColor=inherit;overflow=hidden;fillColor=none;top=0;left=0;bottom=0;right=0;pointerEvents=1;" parent="GSeCoP7me-vstZVjyjfA-289" vertex="1">
          <mxGeometry x="220" width="70" height="40" as="geometry">
            <mxRectangle width="70" height="40" as="alternateBounds" />
          </mxGeometry>
        </mxCell>
        <mxCell id="GSeCoP7me-vstZVjyjfA-294" value="phone_num" style="shape=partialRectangle;html=1;whiteSpace=wrap;connectable=0;strokeColor=inherit;overflow=hidden;fillColor=none;top=0;left=0;bottom=0;right=0;pointerEvents=1;" parent="GSeCoP7me-vstZVjyjfA-289" vertex="1">
          <mxGeometry x="290" width="97" height="40" as="geometry">
            <mxRectangle width="97" height="40" as="alternateBounds" />
          </mxGeometry>
        </mxCell>
        <mxCell id="GSeCoP7me-vstZVjyjfA-295" value="user_type" style="shape=partialRectangle;html=1;whiteSpace=wrap;connectable=0;strokeColor=inherit;overflow=hidden;fillColor=none;top=0;left=0;bottom=0;right=0;pointerEvents=1;" parent="GSeCoP7me-vstZVjyjfA-289" vertex="1">
          <mxGeometry x="387" width="77" height="40" as="geometry">
            <mxRectangle width="77" height="40" as="alternateBounds" />
          </mxGeometry>
        </mxCell>
        <mxCell id="GSeCoP7me-vstZVjyjfA-296" value="created_at" style="shape=partialRectangle;html=1;whiteSpace=wrap;connectable=0;strokeColor=inherit;overflow=hidden;fillColor=none;top=0;left=0;bottom=0;right=0;pointerEvents=1;" parent="GSeCoP7me-vstZVjyjfA-289" vertex="1">
          <mxGeometry x="464" width="77" height="40" as="geometry">
            <mxRectangle width="77" height="40" as="alternateBounds" />
          </mxGeometry>
        </mxCell>
        <mxCell id="GSeCoP7me-vstZVjyjfA-297" value="USERS" style="text;html=1;align=center;verticalAlign=middle;resizable=0;points=[];autosize=1;strokeColor=none;fillColor=none;" parent="1" vertex="1">
          <mxGeometry x="3400" y="90" width="60" height="30" as="geometry" />
        </mxCell>
        <mxCell id="GSeCoP7me-vstZVjyjfA-298" value="" style="shape=table;startSize=0;container=1;collapsible=0;childLayout=tableLayout;" parent="1" vertex="1">
          <mxGeometry x="3400" y="238" width="530" height="40" as="geometry" />
        </mxCell>
        <mxCell id="GSeCoP7me-vstZVjyjfA-299" value="" style="shape=tableRow;horizontal=0;startSize=0;swimlaneHead=0;swimlaneBody=0;strokeColor=inherit;top=0;left=0;bottom=0;right=0;collapsible=0;dropTarget=0;fillColor=none;points=[[0,0.5],[1,0.5]];portConstraint=eastwest;" parent="GSeCoP7me-vstZVjyjfA-298" vertex="1">
          <mxGeometry width="530" height="40" as="geometry" />
        </mxCell>
        <mxCell id="GSeCoP7me-vstZVjyjfA-300" value="&lt;u&gt;companyId&lt;/u&gt;" style="shape=partialRectangle;html=1;whiteSpace=wrap;connectable=0;strokeColor=inherit;overflow=hidden;fillColor=none;top=0;left=0;bottom=0;right=0;pointerEvents=1;" parent="GSeCoP7me-vstZVjyjfA-299" vertex="1">
          <mxGeometry width="80" height="40" as="geometry">
            <mxRectangle width="80" height="40" as="alternateBounds" />
          </mxGeometry>
        </mxCell>
        <mxCell id="GSeCoP7me-vstZVjyjfA-301" value="name" style="shape=partialRectangle;html=1;whiteSpace=wrap;connectable=0;strokeColor=inherit;overflow=hidden;fillColor=none;top=0;left=0;bottom=0;right=0;pointerEvents=1;" parent="GSeCoP7me-vstZVjyjfA-299" vertex="1">
          <mxGeometry x="80" width="80" height="40" as="geometry">
            <mxRectangle width="80" height="40" as="alternateBounds" />
          </mxGeometry>
        </mxCell>
        <mxCell id="GSeCoP7me-vstZVjyjfA-302" value="industry_type" style="shape=partialRectangle;html=1;whiteSpace=wrap;connectable=0;strokeColor=inherit;overflow=hidden;fillColor=none;top=0;left=0;bottom=0;right=0;pointerEvents=1;" parent="GSeCoP7me-vstZVjyjfA-299" vertex="1">
          <mxGeometry x="160" width="100" height="40" as="geometry">
            <mxRectangle width="100" height="40" as="alternateBounds" />
          </mxGeometry>
        </mxCell>
        <mxCell id="GSeCoP7me-vstZVjyjfA-303" value="email" style="shape=partialRectangle;html=1;whiteSpace=wrap;connectable=0;strokeColor=inherit;overflow=hidden;fillColor=none;top=0;left=0;bottom=0;right=0;pointerEvents=1;" parent="GSeCoP7me-vstZVjyjfA-299" vertex="1">
          <mxGeometry x="260" width="50" height="40" as="geometry">
            <mxRectangle width="50" height="40" as="alternateBounds" />
          </mxGeometry>
        </mxCell>
        <mxCell id="GSeCoP7me-vstZVjyjfA-304" value="phone" style="shape=partialRectangle;html=1;whiteSpace=wrap;connectable=0;strokeColor=inherit;overflow=hidden;fillColor=none;top=0;left=0;bottom=0;right=0;pointerEvents=1;" parent="GSeCoP7me-vstZVjyjfA-299" vertex="1">
          <mxGeometry x="310" width="50" height="40" as="geometry">
            <mxRectangle width="50" height="40" as="alternateBounds" />
          </mxGeometry>
        </mxCell>
        <mxCell id="GSeCoP7me-vstZVjyjfA-305" value="address" style="shape=partialRectangle;html=1;whiteSpace=wrap;connectable=0;strokeColor=inherit;overflow=hidden;fillColor=none;top=0;left=0;bottom=0;right=0;pointerEvents=1;" parent="GSeCoP7me-vstZVjyjfA-299" vertex="1">
          <mxGeometry x="360" width="80" height="40" as="geometry">
            <mxRectangle width="80" height="40" as="alternateBounds" />
          </mxGeometry>
        </mxCell>
        <mxCell id="GSeCoP7me-vstZVjyjfA-306" value="registered_at" style="shape=partialRectangle;html=1;whiteSpace=wrap;connectable=0;strokeColor=inherit;overflow=hidden;fillColor=none;top=0;left=0;bottom=0;right=0;pointerEvents=1;" parent="GSeCoP7me-vstZVjyjfA-299" vertex="1">
          <mxGeometry x="440" width="90" height="40" as="geometry">
            <mxRectangle width="90" height="40" as="alternateBounds" />
          </mxGeometry>
        </mxCell>
        <mxCell id="GSeCoP7me-vstZVjyjfA-307" value="COMPANIES" style="text;html=1;align=center;verticalAlign=middle;resizable=0;points=[];autosize=1;strokeColor=none;fillColor=none;" parent="1" vertex="1">
          <mxGeometry x="3400" y="208" width="90" height="30" as="geometry" />
        </mxCell>
        <mxCell id="GSeCoP7me-vstZVjyjfA-308" value="" style="shape=table;startSize=0;container=1;collapsible=0;childLayout=tableLayout;" parent="1" vertex="1">
          <mxGeometry x="3400" y="360" width="630" height="40" as="geometry" />
        </mxCell>
        <mxCell id="GSeCoP7me-vstZVjyjfA-309" value="" style="shape=tableRow;horizontal=0;startSize=0;swimlaneHead=0;swimlaneBody=0;strokeColor=inherit;top=0;left=0;bottom=0;right=0;collapsible=0;dropTarget=0;fillColor=none;points=[[0,0.5],[1,0.5]];portConstraint=eastwest;" parent="GSeCoP7me-vstZVjyjfA-308" vertex="1">
          <mxGeometry width="630" height="40" as="geometry" />
        </mxCell>
        <mxCell id="GSeCoP7me-vstZVjyjfA-310" value="&lt;u&gt;empIoyeeId&lt;/u&gt;" style="shape=partialRectangle;html=1;whiteSpace=wrap;connectable=0;strokeColor=inherit;overflow=hidden;fillColor=none;top=0;left=0;bottom=0;right=0;pointerEvents=1;" parent="GSeCoP7me-vstZVjyjfA-309" vertex="1">
          <mxGeometry width="80" height="40" as="geometry">
            <mxRectangle width="80" height="40" as="alternateBounds" />
          </mxGeometry>
        </mxCell>
        <mxCell id="GSeCoP7me-vstZVjyjfA-311" value="name" style="shape=partialRectangle;html=1;whiteSpace=wrap;connectable=0;strokeColor=inherit;overflow=hidden;fillColor=none;top=0;left=0;bottom=0;right=0;pointerEvents=1;" parent="GSeCoP7me-vstZVjyjfA-309" vertex="1">
          <mxGeometry x="80" width="60" height="40" as="geometry">
            <mxRectangle width="60" height="40" as="alternateBounds" />
          </mxGeometry>
        </mxCell>
        <mxCell id="GSeCoP7me-vstZVjyjfA-312" value="email" style="shape=partialRectangle;html=1;whiteSpace=wrap;connectable=0;strokeColor=inherit;overflow=hidden;fillColor=none;top=0;left=0;bottom=0;right=0;pointerEvents=1;" parent="GSeCoP7me-vstZVjyjfA-309" vertex="1">
          <mxGeometry x="140" width="50" height="40" as="geometry">
            <mxRectangle width="50" height="40" as="alternateBounds" />
          </mxGeometry>
        </mxCell>
        <mxCell id="GSeCoP7me-vstZVjyjfA-313" value="phone" style="shape=partialRectangle;html=1;whiteSpace=wrap;connectable=0;strokeColor=inherit;overflow=hidden;fillColor=none;top=0;left=0;bottom=0;right=0;pointerEvents=1;" parent="GSeCoP7me-vstZVjyjfA-309" vertex="1">
          <mxGeometry x="190" width="60" height="40" as="geometry">
            <mxRectangle width="60" height="40" as="alternateBounds" />
          </mxGeometry>
        </mxCell>
        <mxCell id="GSeCoP7me-vstZVjyjfA-314" value="position" style="shape=partialRectangle;html=1;whiteSpace=wrap;connectable=0;strokeColor=inherit;overflow=hidden;fillColor=none;top=0;left=0;bottom=0;right=0;pointerEvents=1;" parent="GSeCoP7me-vstZVjyjfA-309" vertex="1">
          <mxGeometry x="250" width="90" height="40" as="geometry">
            <mxRectangle width="90" height="40" as="alternateBounds" />
          </mxGeometry>
        </mxCell>
        <mxCell id="GSeCoP7me-vstZVjyjfA-316" value="rate" style="shape=partialRectangle;html=1;whiteSpace=wrap;connectable=0;strokeColor=inherit;overflow=hidden;fillColor=none;top=0;left=0;bottom=0;right=0;pointerEvents=1;" parent="GSeCoP7me-vstZVjyjfA-309" vertex="1">
          <mxGeometry x="340" width="60" height="40" as="geometry">
            <mxRectangle width="60" height="40" as="alternateBounds" />
          </mxGeometry>
        </mxCell>
        <mxCell id="GSeCoP7me-vstZVjyjfA-317" value="availability_status" style="shape=partialRectangle;html=1;whiteSpace=wrap;connectable=0;strokeColor=inherit;overflow=hidden;fillColor=none;top=0;left=0;bottom=0;right=0;pointerEvents=1;" parent="GSeCoP7me-vstZVjyjfA-309" vertex="1">
          <mxGeometry x="400" width="130" height="40" as="geometry">
            <mxRectangle width="130" height="40" as="alternateBounds" />
          </mxGeometry>
        </mxCell>
        <mxCell id="GSeCoP7me-vstZVjyjfA-428" value="&lt;u&gt;&lt;i&gt;companyId&lt;/i&gt;&lt;/u&gt;" style="shape=partialRectangle;html=1;whiteSpace=wrap;connectable=0;strokeColor=inherit;overflow=hidden;fillColor=none;top=0;left=0;bottom=0;right=0;pointerEvents=1;" parent="GSeCoP7me-vstZVjyjfA-309" vertex="1">
          <mxGeometry x="530" width="100" height="40" as="geometry">
            <mxRectangle width="100" height="40" as="alternateBounds" />
          </mxGeometry>
        </mxCell>
        <mxCell id="GSeCoP7me-vstZVjyjfA-319" value="EMPLOYEES" style="text;html=1;align=center;verticalAlign=middle;resizable=0;points=[];autosize=1;strokeColor=none;fillColor=none;" parent="1" vertex="1">
          <mxGeometry x="3400" y="330" width="100" height="30" as="geometry" />
        </mxCell>
        <mxCell id="GSeCoP7me-vstZVjyjfA-320" value="" style="shape=table;startSize=0;container=1;collapsible=0;childLayout=tableLayout;" parent="1" vertex="1">
          <mxGeometry x="3400" y="730" width="550" height="40" as="geometry" />
        </mxCell>
        <mxCell id="GSeCoP7me-vstZVjyjfA-321" value="" style="shape=tableRow;horizontal=0;startSize=0;swimlaneHead=0;swimlaneBody=0;strokeColor=inherit;top=0;left=0;bottom=0;right=0;collapsible=0;dropTarget=0;fillColor=none;points=[[0,0.5],[1,0.5]];portConstraint=eastwest;" parent="GSeCoP7me-vstZVjyjfA-320" vertex="1">
          <mxGeometry width="550" height="40" as="geometry" />
        </mxCell>
        <mxCell id="GSeCoP7me-vstZVjyjfA-322" value="&lt;u&gt;recordId&lt;/u&gt;" style="shape=partialRectangle;html=1;whiteSpace=wrap;connectable=0;strokeColor=inherit;overflow=hidden;fillColor=none;top=0;left=0;bottom=0;right=0;pointerEvents=1;" parent="GSeCoP7me-vstZVjyjfA-321" vertex="1">
          <mxGeometry width="60" height="40" as="geometry">
            <mxRectangle width="60" height="40" as="alternateBounds" />
          </mxGeometry>
        </mxCell>
        <mxCell id="GSeCoP7me-vstZVjyjfA-323" value="start_date" style="shape=partialRectangle;html=1;whiteSpace=wrap;connectable=0;strokeColor=inherit;overflow=hidden;fillColor=none;top=0;left=0;bottom=0;right=0;pointerEvents=1;" parent="GSeCoP7me-vstZVjyjfA-321" vertex="1">
          <mxGeometry x="60" width="60" height="40" as="geometry">
            <mxRectangle width="60" height="40" as="alternateBounds" />
          </mxGeometry>
        </mxCell>
        <mxCell id="GSeCoP7me-vstZVjyjfA-324" value="end_date" style="shape=partialRectangle;html=1;whiteSpace=wrap;connectable=0;strokeColor=inherit;overflow=hidden;fillColor=none;top=0;left=0;bottom=0;right=0;pointerEvents=1;" parent="GSeCoP7me-vstZVjyjfA-321" vertex="1">
          <mxGeometry x="120" width="60" height="40" as="geometry">
            <mxRectangle width="60" height="40" as="alternateBounds" />
          </mxGeometry>
        </mxCell>
        <mxCell id="GSeCoP7me-vstZVjyjfA-325" value="job_title" style="shape=partialRectangle;html=1;whiteSpace=wrap;connectable=0;strokeColor=inherit;overflow=hidden;fillColor=none;top=0;left=0;bottom=0;right=0;pointerEvents=1;" parent="GSeCoP7me-vstZVjyjfA-321" vertex="1">
          <mxGeometry x="180" width="60" height="40" as="geometry">
            <mxRectangle width="60" height="40" as="alternateBounds" />
          </mxGeometry>
        </mxCell>
        <mxCell id="GSeCoP7me-vstZVjyjfA-326" value="performance_rating" style="shape=partialRectangle;html=1;whiteSpace=wrap;connectable=0;strokeColor=inherit;overflow=hidden;fillColor=none;top=0;left=0;bottom=0;right=0;pointerEvents=1;" parent="GSeCoP7me-vstZVjyjfA-321" vertex="1">
          <mxGeometry x="240" width="140" height="40" as="geometry">
            <mxRectangle width="140" height="40" as="alternateBounds" />
          </mxGeometry>
        </mxCell>
        <mxCell id="GSeCoP7me-vstZVjyjfA-327" value="remarks" style="shape=partialRectangle;html=1;whiteSpace=wrap;connectable=0;strokeColor=inherit;overflow=hidden;fillColor=none;top=0;left=0;bottom=0;right=0;pointerEvents=1;" parent="GSeCoP7me-vstZVjyjfA-321" vertex="1">
          <mxGeometry x="380" width="80" height="40" as="geometry">
            <mxRectangle width="80" height="40" as="alternateBounds" />
          </mxGeometry>
        </mxCell>
        <mxCell id="GSeCoP7me-vstZVjyjfA-328" value="&lt;u&gt;&lt;i&gt;employeeId&lt;/i&gt;&lt;/u&gt;" style="shape=partialRectangle;html=1;whiteSpace=wrap;connectable=0;strokeColor=inherit;overflow=hidden;fillColor=none;top=0;left=0;bottom=0;right=0;pointerEvents=1;" parent="GSeCoP7me-vstZVjyjfA-321" vertex="1">
          <mxGeometry x="460" width="90" height="40" as="geometry">
            <mxRectangle width="90" height="40" as="alternateBounds" />
          </mxGeometry>
        </mxCell>
        <mxCell id="GSeCoP7me-vstZVjyjfA-330" value="EMPLOYEEMENT RECORDS" style="text;html=1;align=center;verticalAlign=middle;resizable=0;points=[];autosize=1;strokeColor=none;fillColor=none;" parent="1" vertex="1">
          <mxGeometry x="3400" y="700" width="190" height="30" as="geometry" />
        </mxCell>
        <mxCell id="GSeCoP7me-vstZVjyjfA-331" value="" style="shape=table;startSize=0;container=1;collapsible=0;childLayout=tableLayout;" parent="1" vertex="1">
          <mxGeometry x="3400" y="860" width="610" height="40" as="geometry" />
        </mxCell>
        <mxCell id="GSeCoP7me-vstZVjyjfA-332" value="" style="shape=tableRow;horizontal=0;startSize=0;swimlaneHead=0;swimlaneBody=0;strokeColor=inherit;top=0;left=0;bottom=0;right=0;collapsible=0;dropTarget=0;fillColor=none;points=[[0,0.5],[1,0.5]];portConstraint=eastwest;" parent="GSeCoP7me-vstZVjyjfA-331" vertex="1">
          <mxGeometry width="610" height="40" as="geometry" />
        </mxCell>
        <mxCell id="GSeCoP7me-vstZVjyjfA-333" value="&lt;u&gt;jobId&lt;/u&gt;" style="shape=partialRectangle;html=1;whiteSpace=wrap;connectable=0;strokeColor=inherit;overflow=hidden;fillColor=none;top=0;left=0;bottom=0;right=0;pointerEvents=1;" parent="GSeCoP7me-vstZVjyjfA-332" vertex="1">
          <mxGeometry width="60" height="40" as="geometry">
            <mxRectangle width="60" height="40" as="alternateBounds" />
          </mxGeometry>
        </mxCell>
        <mxCell id="GSeCoP7me-vstZVjyjfA-334" value="job_title" style="shape=partialRectangle;html=1;whiteSpace=wrap;connectable=0;strokeColor=inherit;overflow=hidden;fillColor=none;top=0;left=0;bottom=0;right=0;pointerEvents=1;" parent="GSeCoP7me-vstZVjyjfA-332" vertex="1">
          <mxGeometry x="60" width="60" height="40" as="geometry">
            <mxRectangle width="60" height="40" as="alternateBounds" />
          </mxGeometry>
        </mxCell>
        <mxCell id="GSeCoP7me-vstZVjyjfA-335" value="required_skill" style="shape=partialRectangle;html=1;whiteSpace=wrap;connectable=0;strokeColor=inherit;overflow=hidden;fillColor=none;top=0;left=0;bottom=0;right=0;pointerEvents=1;" parent="GSeCoP7me-vstZVjyjfA-332" vertex="1">
          <mxGeometry x="120" width="100" height="40" as="geometry">
            <mxRectangle width="100" height="40" as="alternateBounds" />
          </mxGeometry>
        </mxCell>
        <mxCell id="GSeCoP7me-vstZVjyjfA-336" value="job_details" style="shape=partialRectangle;html=1;whiteSpace=wrap;connectable=0;strokeColor=inherit;overflow=hidden;fillColor=none;top=0;left=0;bottom=0;right=0;pointerEvents=1;" parent="GSeCoP7me-vstZVjyjfA-332" vertex="1">
          <mxGeometry x="220" width="80" height="40" as="geometry">
            <mxRectangle width="80" height="40" as="alternateBounds" />
          </mxGeometry>
        </mxCell>
        <mxCell id="GSeCoP7me-vstZVjyjfA-337" value="rate" style="shape=partialRectangle;html=1;whiteSpace=wrap;connectable=0;strokeColor=inherit;overflow=hidden;fillColor=none;top=0;left=0;bottom=0;right=0;pointerEvents=1;" parent="GSeCoP7me-vstZVjyjfA-332" vertex="1">
          <mxGeometry x="300" width="50" height="40" as="geometry">
            <mxRectangle width="50" height="40" as="alternateBounds" />
          </mxGeometry>
        </mxCell>
        <mxCell id="GSeCoP7me-vstZVjyjfA-338" value="status" style="shape=partialRectangle;html=1;whiteSpace=wrap;connectable=0;strokeColor=inherit;overflow=hidden;fillColor=none;top=0;left=0;bottom=0;right=0;pointerEvents=1;" parent="GSeCoP7me-vstZVjyjfA-332" vertex="1">
          <mxGeometry x="350" width="70" height="40" as="geometry">
            <mxRectangle width="70" height="40" as="alternateBounds" />
          </mxGeometry>
        </mxCell>
        <mxCell id="GSeCoP7me-vstZVjyjfA-339" value="posted_time" style="shape=partialRectangle;html=1;whiteSpace=wrap;connectable=0;strokeColor=inherit;overflow=hidden;fillColor=none;top=0;left=0;bottom=0;right=0;pointerEvents=1;" parent="GSeCoP7me-vstZVjyjfA-332" vertex="1">
          <mxGeometry x="420" width="110" height="40" as="geometry">
            <mxRectangle width="110" height="40" as="alternateBounds" />
          </mxGeometry>
        </mxCell>
        <mxCell id="GSeCoP7me-vstZVjyjfA-340" value="&lt;u&gt;&lt;i&gt;companyId&lt;/i&gt;&lt;/u&gt;" style="shape=partialRectangle;html=1;whiteSpace=wrap;connectable=0;strokeColor=inherit;overflow=hidden;fillColor=none;top=0;left=0;bottom=0;right=0;pointerEvents=1;" parent="GSeCoP7me-vstZVjyjfA-332" vertex="1">
          <mxGeometry x="530" width="80" height="40" as="geometry">
            <mxRectangle width="80" height="40" as="alternateBounds" />
          </mxGeometry>
        </mxCell>
        <mxCell id="GSeCoP7me-vstZVjyjfA-341" value="JOB_POSTINGS" style="text;html=1;align=center;verticalAlign=middle;resizable=0;points=[];autosize=1;strokeColor=none;fillColor=none;" parent="1" vertex="1">
          <mxGeometry x="3400" y="830" width="120" height="30" as="geometry" />
        </mxCell>
        <mxCell id="GSeCoP7me-vstZVjyjfA-392" value="" style="shape=table;startSize=0;container=1;collapsible=0;childLayout=tableLayout;" parent="1" vertex="1">
          <mxGeometry x="3400" y="960" width="240" height="40" as="geometry" />
        </mxCell>
        <mxCell id="GSeCoP7me-vstZVjyjfA-393" value="" style="shape=tableRow;horizontal=0;startSize=0;swimlaneHead=0;swimlaneBody=0;strokeColor=inherit;top=0;left=0;bottom=0;right=0;collapsible=0;dropTarget=0;fillColor=none;points=[[0,0.5],[1,0.5]];portConstraint=eastwest;" parent="GSeCoP7me-vstZVjyjfA-392" vertex="1">
          <mxGeometry width="240" height="40" as="geometry" />
        </mxCell>
        <mxCell id="GSeCoP7me-vstZVjyjfA-394" value="&lt;u&gt;recordId&lt;/u&gt;" style="shape=partialRectangle;html=1;whiteSpace=wrap;connectable=0;strokeColor=inherit;overflow=hidden;fillColor=none;top=0;left=0;bottom=0;right=0;pointerEvents=1;" parent="GSeCoP7me-vstZVjyjfA-393" vertex="1">
          <mxGeometry width="60" height="40" as="geometry">
            <mxRectangle width="60" height="40" as="alternateBounds" />
          </mxGeometry>
        </mxCell>
        <mxCell id="GSeCoP7me-vstZVjyjfA-395" value="&lt;u&gt;&lt;i&gt;cmpyId&lt;/i&gt;&lt;/u&gt;" style="shape=partialRectangle;html=1;whiteSpace=wrap;connectable=0;strokeColor=inherit;overflow=hidden;fillColor=none;top=0;left=0;bottom=0;right=0;pointerEvents=1;" parent="GSeCoP7me-vstZVjyjfA-393" vertex="1">
          <mxGeometry x="60" width="60" height="40" as="geometry">
            <mxRectangle width="60" height="40" as="alternateBounds" />
          </mxGeometry>
        </mxCell>
        <mxCell id="GSeCoP7me-vstZVjyjfA-396" value="&lt;u&gt;&lt;i&gt;jobId&lt;/i&gt;&lt;/u&gt;" style="shape=partialRectangle;html=1;whiteSpace=wrap;connectable=0;strokeColor=inherit;overflow=hidden;fillColor=none;top=0;left=0;bottom=0;right=0;pointerEvents=1;" parent="GSeCoP7me-vstZVjyjfA-393" vertex="1">
          <mxGeometry x="120" width="60" height="40" as="geometry">
            <mxRectangle width="60" height="40" as="alternateBounds" />
          </mxGeometry>
        </mxCell>
        <mxCell id="Td_jvPPp4fFjdix4C41g-1" value="status" style="shape=partialRectangle;html=1;whiteSpace=wrap;connectable=0;strokeColor=inherit;overflow=hidden;fillColor=none;top=0;left=0;bottom=0;right=0;pointerEvents=1;" vertex="1" parent="GSeCoP7me-vstZVjyjfA-393">
          <mxGeometry x="180" width="60" height="40" as="geometry">
            <mxRectangle width="60" height="40" as="alternateBounds" />
          </mxGeometry>
        </mxCell>
        <mxCell id="GSeCoP7me-vstZVjyjfA-397" value="JOB APPLICATIONS" style="text;html=1;align=center;verticalAlign=middle;resizable=0;points=[];autosize=1;strokeColor=none;fillColor=none;" parent="1" vertex="1">
          <mxGeometry x="3400" y="930" width="140" height="30" as="geometry" />
        </mxCell>
        <mxCell id="GSeCoP7me-vstZVjyjfA-398" value="" style="shape=table;startSize=0;container=1;collapsible=0;childLayout=tableLayout;" parent="1" vertex="1">
          <mxGeometry x="4200" y="120" width="180" height="40" as="geometry" />
        </mxCell>
        <mxCell id="GSeCoP7me-vstZVjyjfA-399" value="" style="shape=tableRow;horizontal=0;startSize=0;swimlaneHead=0;swimlaneBody=0;strokeColor=inherit;top=0;left=0;bottom=0;right=0;collapsible=0;dropTarget=0;fillColor=none;points=[[0,0.5],[1,0.5]];portConstraint=eastwest;" parent="GSeCoP7me-vstZVjyjfA-398" vertex="1">
          <mxGeometry width="180" height="40" as="geometry" />
        </mxCell>
        <mxCell id="GSeCoP7me-vstZVjyjfA-400" value="&lt;u&gt;recordId&lt;/u&gt;" style="shape=partialRectangle;html=1;whiteSpace=wrap;connectable=0;strokeColor=inherit;overflow=hidden;fillColor=none;top=0;left=0;bottom=0;right=0;pointerEvents=1;" parent="GSeCoP7me-vstZVjyjfA-399" vertex="1">
          <mxGeometry width="60" height="40" as="geometry">
            <mxRectangle width="60" height="40" as="alternateBounds" />
          </mxGeometry>
        </mxCell>
        <mxCell id="GSeCoP7me-vstZVjyjfA-401" value="&lt;u&gt;&lt;i&gt;cmpyId&lt;/i&gt;&lt;/u&gt;" style="shape=partialRectangle;html=1;whiteSpace=wrap;connectable=0;strokeColor=inherit;overflow=hidden;fillColor=none;top=0;left=0;bottom=0;right=0;pointerEvents=1;" parent="GSeCoP7me-vstZVjyjfA-399" vertex="1">
          <mxGeometry x="60" width="60" height="40" as="geometry">
            <mxRectangle width="60" height="40" as="alternateBounds" />
          </mxGeometry>
        </mxCell>
        <mxCell id="GSeCoP7me-vstZVjyjfA-402" value="&lt;u&gt;&lt;i&gt;jobId&lt;/i&gt;&lt;/u&gt;" style="shape=partialRectangle;html=1;whiteSpace=wrap;connectable=0;strokeColor=inherit;overflow=hidden;fillColor=none;top=0;left=0;bottom=0;right=0;pointerEvents=1;" parent="GSeCoP7me-vstZVjyjfA-399" vertex="1">
          <mxGeometry x="120" width="60" height="40" as="geometry">
            <mxRectangle width="60" height="40" as="alternateBounds" />
          </mxGeometry>
        </mxCell>
        <mxCell id="GSeCoP7me-vstZVjyjfA-403" value="COMPANY-JOB POST" style="text;html=1;align=center;verticalAlign=middle;resizable=0;points=[];autosize=1;strokeColor=none;fillColor=none;" parent="1" vertex="1">
          <mxGeometry x="4200" y="90" width="150" height="30" as="geometry" />
        </mxCell>
        <mxCell id="GSeCoP7me-vstZVjyjfA-415" value="" style="shape=table;startSize=0;container=1;collapsible=0;childLayout=tableLayout;" parent="1" vertex="1">
          <mxGeometry x="3400" y="480" width="310" height="40" as="geometry" />
        </mxCell>
        <mxCell id="GSeCoP7me-vstZVjyjfA-416" value="" style="shape=tableRow;horizontal=0;startSize=0;swimlaneHead=0;swimlaneBody=0;strokeColor=inherit;top=0;left=0;bottom=0;right=0;collapsible=0;dropTarget=0;fillColor=none;points=[[0,0.5],[1,0.5]];portConstraint=eastwest;" parent="GSeCoP7me-vstZVjyjfA-415" vertex="1">
          <mxGeometry width="310" height="40" as="geometry" />
        </mxCell>
        <mxCell id="GSeCoP7me-vstZVjyjfA-417" value="&lt;u&gt;employeeId&lt;/u&gt;" style="shape=partialRectangle;html=1;whiteSpace=wrap;connectable=0;strokeColor=inherit;overflow=hidden;fillColor=none;top=0;left=0;bottom=0;right=0;pointerEvents=1;" parent="GSeCoP7me-vstZVjyjfA-416" vertex="1">
          <mxGeometry width="80" height="40" as="geometry">
            <mxRectangle width="80" height="40" as="alternateBounds" />
          </mxGeometry>
        </mxCell>
        <mxCell id="GSeCoP7me-vstZVjyjfA-418" value="&lt;u&gt;skillId&lt;/u&gt;" style="shape=partialRectangle;html=1;whiteSpace=wrap;connectable=0;strokeColor=inherit;overflow=hidden;fillColor=none;top=0;left=0;bottom=0;right=0;pointerEvents=1;" parent="GSeCoP7me-vstZVjyjfA-416" vertex="1">
          <mxGeometry x="80" width="100" height="40" as="geometry">
            <mxRectangle width="100" height="40" as="alternateBounds" />
          </mxGeometry>
        </mxCell>
        <mxCell id="GSeCoP7me-vstZVjyjfA-420" value="experience_level" style="shape=partialRectangle;html=1;whiteSpace=wrap;connectable=0;strokeColor=inherit;overflow=hidden;fillColor=none;top=0;left=0;bottom=0;right=0;pointerEvents=1;" parent="GSeCoP7me-vstZVjyjfA-416" vertex="1">
          <mxGeometry x="180" width="130" height="40" as="geometry">
            <mxRectangle width="130" height="40" as="alternateBounds" />
          </mxGeometry>
        </mxCell>
        <mxCell id="GSeCoP7me-vstZVjyjfA-421" value="EMPLOYEE SKILLS" style="text;html=1;align=center;verticalAlign=middle;resizable=0;points=[];autosize=1;strokeColor=none;fillColor=none;" parent="1" vertex="1">
          <mxGeometry x="3400" y="450" width="130" height="30" as="geometry" />
        </mxCell>
        <mxCell id="GSeCoP7me-vstZVjyjfA-423" value="" style="shape=table;startSize=0;container=1;collapsible=0;childLayout=tableLayout;" parent="1" vertex="1">
          <mxGeometry x="3400" y="595" width="150" height="40" as="geometry" />
        </mxCell>
        <mxCell id="GSeCoP7me-vstZVjyjfA-424" value="" style="shape=tableRow;horizontal=0;startSize=0;swimlaneHead=0;swimlaneBody=0;strokeColor=inherit;top=0;left=0;bottom=0;right=0;collapsible=0;dropTarget=0;fillColor=none;points=[[0,0.5],[1,0.5]];portConstraint=eastwest;" parent="GSeCoP7me-vstZVjyjfA-423" vertex="1">
          <mxGeometry width="150" height="40" as="geometry" />
        </mxCell>
        <mxCell id="GSeCoP7me-vstZVjyjfA-425" value="&lt;u&gt;skillId&lt;/u&gt;" style="shape=partialRectangle;html=1;whiteSpace=wrap;connectable=0;strokeColor=inherit;overflow=hidden;fillColor=none;top=0;left=0;bottom=0;right=0;pointerEvents=1;" parent="GSeCoP7me-vstZVjyjfA-424" vertex="1">
          <mxGeometry width="60" height="40" as="geometry">
            <mxRectangle width="60" height="40" as="alternateBounds" />
          </mxGeometry>
        </mxCell>
        <mxCell id="GSeCoP7me-vstZVjyjfA-426" value="skill_name" style="shape=partialRectangle;html=1;whiteSpace=wrap;connectable=0;strokeColor=inherit;overflow=hidden;fillColor=none;top=0;left=0;bottom=0;right=0;pointerEvents=1;" parent="GSeCoP7me-vstZVjyjfA-424" vertex="1">
          <mxGeometry x="60" width="90" height="40" as="geometry">
            <mxRectangle width="90" height="40" as="alternateBounds" />
          </mxGeometry>
        </mxCell>
        <mxCell id="GSeCoP7me-vstZVjyjfA-427" value="SKILLS" style="text;html=1;align=center;verticalAlign=middle;resizable=0;points=[];autosize=1;strokeColor=none;fillColor=none;" parent="1" vertex="1">
          <mxGeometry x="3400" y="565" width="60" height="30" as="geometry" />
        </mxCell>
        <mxCell id="GSeCoP7me-vstZVjyjfA-438" value="" style="shape=table;startSize=0;container=1;collapsible=0;childLayout=tableLayout;" parent="1" vertex="1">
          <mxGeometry x="4200" y="355" width="210" height="40" as="geometry" />
        </mxCell>
        <mxCell id="GSeCoP7me-vstZVjyjfA-439" value="" style="shape=tableRow;horizontal=0;startSize=0;swimlaneHead=0;swimlaneBody=0;strokeColor=inherit;top=0;left=0;bottom=0;right=0;collapsible=0;dropTarget=0;fillColor=none;points=[[0,0.5],[1,0.5]];portConstraint=eastwest;" parent="GSeCoP7me-vstZVjyjfA-438" vertex="1">
          <mxGeometry width="210" height="40" as="geometry" />
        </mxCell>
        <mxCell id="GSeCoP7me-vstZVjyjfA-440" value="&lt;u&gt;termId&lt;/u&gt;" style="shape=partialRectangle;html=1;whiteSpace=wrap;connectable=0;strokeColor=inherit;overflow=hidden;fillColor=none;top=0;left=0;bottom=0;right=0;pointerEvents=1;" parent="GSeCoP7me-vstZVjyjfA-439" vertex="1">
          <mxGeometry width="60" height="40" as="geometry">
            <mxRectangle width="60" height="40" as="alternateBounds" />
          </mxGeometry>
        </mxCell>
        <mxCell id="GSeCoP7me-vstZVjyjfA-441" value="&lt;u&gt;&lt;i&gt;contractId&lt;/i&gt;&lt;/u&gt;" style="shape=partialRectangle;html=1;whiteSpace=wrap;connectable=0;strokeColor=inherit;overflow=hidden;fillColor=none;top=0;left=0;bottom=0;right=0;pointerEvents=1;" parent="GSeCoP7me-vstZVjyjfA-439" vertex="1">
          <mxGeometry x="60" width="70" height="40" as="geometry">
            <mxRectangle width="70" height="40" as="alternateBounds" />
          </mxGeometry>
        </mxCell>
        <mxCell id="GSeCoP7me-vstZVjyjfA-442" value="description" style="shape=partialRectangle;html=1;whiteSpace=wrap;connectable=0;strokeColor=inherit;overflow=hidden;fillColor=none;top=0;left=0;bottom=0;right=0;pointerEvents=1;" parent="GSeCoP7me-vstZVjyjfA-439" vertex="1">
          <mxGeometry x="130" width="80" height="40" as="geometry">
            <mxRectangle width="80" height="40" as="alternateBounds" />
          </mxGeometry>
        </mxCell>
        <mxCell id="GSeCoP7me-vstZVjyjfA-443" value="CONTRACT TERMS" style="text;html=1;align=center;verticalAlign=middle;resizable=0;points=[];autosize=1;strokeColor=none;fillColor=none;" parent="1" vertex="1">
          <mxGeometry x="4200" y="325" width="140" height="30" as="geometry" />
        </mxCell>
        <mxCell id="GSeCoP7me-vstZVjyjfA-360" value="" style="shape=table;startSize=0;container=1;collapsible=0;childLayout=tableLayout;" parent="1" vertex="1">
          <mxGeometry x="4200" y="722.5" width="240" height="40" as="geometry" />
        </mxCell>
        <mxCell id="GSeCoP7me-vstZVjyjfA-361" value="" style="shape=tableRow;horizontal=0;startSize=0;swimlaneHead=0;swimlaneBody=0;strokeColor=inherit;top=0;left=0;bottom=0;right=0;collapsible=0;dropTarget=0;fillColor=none;points=[[0,0.5],[1,0.5]];portConstraint=eastwest;" parent="GSeCoP7me-vstZVjyjfA-360" vertex="1">
          <mxGeometry width="240" height="40" as="geometry" />
        </mxCell>
        <mxCell id="GSeCoP7me-vstZVjyjfA-362" value="&lt;u&gt;logId&lt;/u&gt;" style="shape=partialRectangle;html=1;whiteSpace=wrap;connectable=0;strokeColor=inherit;overflow=hidden;fillColor=none;top=0;left=0;bottom=0;right=0;pointerEvents=1;" parent="GSeCoP7me-vstZVjyjfA-361" vertex="1">
          <mxGeometry width="60" height="40" as="geometry">
            <mxRectangle width="60" height="40" as="alternateBounds" />
          </mxGeometry>
        </mxCell>
        <mxCell id="GSeCoP7me-vstZVjyjfA-363" value="&lt;u&gt;&lt;i&gt;userId&lt;/i&gt;&lt;/u&gt;" style="shape=partialRectangle;html=1;whiteSpace=wrap;connectable=0;strokeColor=inherit;overflow=hidden;fillColor=none;top=0;left=0;bottom=0;right=0;pointerEvents=1;" parent="GSeCoP7me-vstZVjyjfA-361" vertex="1">
          <mxGeometry x="60" width="60" height="40" as="geometry">
            <mxRectangle width="60" height="40" as="alternateBounds" />
          </mxGeometry>
        </mxCell>
        <mxCell id="GSeCoP7me-vstZVjyjfA-364" value="action" style="shape=partialRectangle;html=1;whiteSpace=wrap;connectable=0;strokeColor=inherit;overflow=hidden;fillColor=none;top=0;left=0;bottom=0;right=0;pointerEvents=1;" parent="GSeCoP7me-vstZVjyjfA-361" vertex="1">
          <mxGeometry x="120" width="60" height="40" as="geometry">
            <mxRectangle width="60" height="40" as="alternateBounds" />
          </mxGeometry>
        </mxCell>
        <mxCell id="GSeCoP7me-vstZVjyjfA-365" value="time" style="shape=partialRectangle;html=1;whiteSpace=wrap;connectable=0;strokeColor=inherit;overflow=hidden;fillColor=none;top=0;left=0;bottom=0;right=0;pointerEvents=1;" parent="GSeCoP7me-vstZVjyjfA-361" vertex="1">
          <mxGeometry x="180" width="60" height="40" as="geometry">
            <mxRectangle width="60" height="40" as="alternateBounds" />
          </mxGeometry>
        </mxCell>
        <mxCell id="GSeCoP7me-vstZVjyjfA-366" value="" style="shape=table;startSize=0;container=1;collapsible=0;childLayout=tableLayout;" parent="1" vertex="1">
          <mxGeometry x="4200" y="970" width="330" height="40" as="geometry" />
        </mxCell>
        <mxCell id="GSeCoP7me-vstZVjyjfA-367" value="" style="shape=tableRow;horizontal=0;startSize=0;swimlaneHead=0;swimlaneBody=0;strokeColor=inherit;top=0;left=0;bottom=0;right=0;collapsible=0;dropTarget=0;fillColor=none;points=[[0,0.5],[1,0.5]];portConstraint=eastwest;" parent="GSeCoP7me-vstZVjyjfA-366" vertex="1">
          <mxGeometry width="330" height="40" as="geometry" />
        </mxCell>
        <mxCell id="GSeCoP7me-vstZVjyjfA-368" value="&lt;u&gt;notificationId&lt;/u&gt;" style="shape=partialRectangle;html=1;whiteSpace=wrap;connectable=0;strokeColor=inherit;overflow=hidden;fillColor=none;top=0;left=0;bottom=0;right=0;pointerEvents=1;" parent="GSeCoP7me-vstZVjyjfA-367" vertex="1">
          <mxGeometry width="80" height="40" as="geometry">
            <mxRectangle width="80" height="40" as="alternateBounds" />
          </mxGeometry>
        </mxCell>
        <mxCell id="GSeCoP7me-vstZVjyjfA-369" value="message" style="shape=partialRectangle;html=1;whiteSpace=wrap;connectable=0;strokeColor=inherit;overflow=hidden;fillColor=none;top=0;left=0;bottom=0;right=0;pointerEvents=1;" parent="GSeCoP7me-vstZVjyjfA-367" vertex="1">
          <mxGeometry x="80" width="70" height="40" as="geometry">
            <mxRectangle width="70" height="40" as="alternateBounds" />
          </mxGeometry>
        </mxCell>
        <mxCell id="GSeCoP7me-vstZVjyjfA-370" value="read_status" style="shape=partialRectangle;html=1;whiteSpace=wrap;connectable=0;strokeColor=inherit;overflow=hidden;fillColor=none;top=0;left=0;bottom=0;right=0;pointerEvents=1;" parent="GSeCoP7me-vstZVjyjfA-367" vertex="1">
          <mxGeometry x="150" width="70" height="40" as="geometry">
            <mxRectangle width="70" height="40" as="alternateBounds" />
          </mxGeometry>
        </mxCell>
        <mxCell id="GSeCoP7me-vstZVjyjfA-371" value="time" style="shape=partialRectangle;html=1;whiteSpace=wrap;connectable=0;strokeColor=inherit;overflow=hidden;fillColor=none;top=0;left=0;bottom=0;right=0;pointerEvents=1;" parent="GSeCoP7me-vstZVjyjfA-367" vertex="1">
          <mxGeometry x="220" width="50" height="40" as="geometry">
            <mxRectangle width="50" height="40" as="alternateBounds" />
          </mxGeometry>
        </mxCell>
        <mxCell id="GSeCoP7me-vstZVjyjfA-372" value="&lt;u&gt;&lt;i&gt;userId&lt;/i&gt;&lt;/u&gt;" style="shape=partialRectangle;html=1;whiteSpace=wrap;connectable=0;strokeColor=inherit;overflow=hidden;fillColor=none;top=0;left=0;bottom=0;right=0;pointerEvents=1;" parent="GSeCoP7me-vstZVjyjfA-367" vertex="1">
          <mxGeometry x="270" width="60" height="40" as="geometry">
            <mxRectangle width="60" height="40" as="alternateBounds" />
          </mxGeometry>
        </mxCell>
        <mxCell id="GSeCoP7me-vstZVjyjfA-374" value="NOTIFICATIONS" style="text;html=1;align=center;verticalAlign=middle;resizable=0;points=[];autosize=1;strokeColor=none;fillColor=none;" parent="1" vertex="1">
          <mxGeometry x="4200" y="940" width="120" height="30" as="geometry" />
        </mxCell>
        <mxCell id="GSeCoP7me-vstZVjyjfA-375" value="ACTIVITY_LOG" style="text;html=1;align=center;verticalAlign=middle;resizable=0;points=[];autosize=1;strokeColor=none;fillColor=none;" parent="1" vertex="1">
          <mxGeometry x="4200" y="692.5" width="110" height="30" as="geometry" />
        </mxCell>
        <mxCell id="GSeCoP7me-vstZVjyjfA-404" value="" style="shape=table;startSize=0;container=1;collapsible=0;childLayout=tableLayout;" parent="1" vertex="1">
          <mxGeometry x="4200" y="850" width="500" height="40" as="geometry" />
        </mxCell>
        <mxCell id="GSeCoP7me-vstZVjyjfA-405" value="" style="shape=tableRow;horizontal=0;startSize=0;swimlaneHead=0;swimlaneBody=0;strokeColor=inherit;top=0;left=0;bottom=0;right=0;collapsible=0;dropTarget=0;fillColor=none;points=[[0,0.5],[1,0.5]];portConstraint=eastwest;" parent="GSeCoP7me-vstZVjyjfA-404" vertex="1">
          <mxGeometry width="500" height="40" as="geometry" />
        </mxCell>
        <mxCell id="GSeCoP7me-vstZVjyjfA-406" value="&lt;u&gt;reviewId&lt;/u&gt;" style="shape=partialRectangle;html=1;whiteSpace=wrap;connectable=0;strokeColor=inherit;overflow=hidden;fillColor=none;top=0;left=0;bottom=0;right=0;pointerEvents=1;" parent="GSeCoP7me-vstZVjyjfA-405" vertex="1">
          <mxGeometry width="60" height="40" as="geometry">
            <mxRectangle width="60" height="40" as="alternateBounds" />
          </mxGeometry>
        </mxCell>
        <mxCell id="GSeCoP7me-vstZVjyjfA-408" value="&lt;u&gt;&lt;i&gt;employeeId&lt;/i&gt;&lt;/u&gt;" style="shape=partialRectangle;html=1;whiteSpace=wrap;connectable=0;strokeColor=inherit;overflow=hidden;fillColor=none;top=0;left=0;bottom=0;right=0;pointerEvents=1;" parent="GSeCoP7me-vstZVjyjfA-405" vertex="1">
          <mxGeometry x="60" width="100" height="40" as="geometry">
            <mxRectangle width="100" height="40" as="alternateBounds" />
          </mxGeometry>
        </mxCell>
        <mxCell id="GSeCoP7me-vstZVjyjfA-409" value="&lt;u&gt;&lt;i&gt;hiringCompanyId&lt;/i&gt;&lt;/u&gt;" style="shape=partialRectangle;html=1;whiteSpace=wrap;connectable=0;strokeColor=inherit;overflow=hidden;fillColor=none;top=0;left=0;bottom=0;right=0;pointerEvents=1;" parent="GSeCoP7me-vstZVjyjfA-405" vertex="1">
          <mxGeometry x="160" width="140" height="40" as="geometry">
            <mxRectangle width="140" height="40" as="alternateBounds" />
          </mxGeometry>
        </mxCell>
        <mxCell id="GSeCoP7me-vstZVjyjfA-410" value="rating" style="shape=partialRectangle;html=1;whiteSpace=wrap;connectable=0;strokeColor=inherit;overflow=hidden;fillColor=none;top=0;left=0;bottom=0;right=0;pointerEvents=1;" parent="GSeCoP7me-vstZVjyjfA-405" vertex="1">
          <mxGeometry x="300" width="60" height="40" as="geometry">
            <mxRectangle width="60" height="40" as="alternateBounds" />
          </mxGeometry>
        </mxCell>
        <mxCell id="GSeCoP7me-vstZVjyjfA-411" value="comment" style="shape=partialRectangle;html=1;whiteSpace=wrap;connectable=0;strokeColor=inherit;overflow=hidden;fillColor=none;top=0;left=0;bottom=0;right=0;pointerEvents=1;" parent="GSeCoP7me-vstZVjyjfA-405" vertex="1">
          <mxGeometry x="360" width="90" height="40" as="geometry">
            <mxRectangle width="90" height="40" as="alternateBounds" />
          </mxGeometry>
        </mxCell>
        <mxCell id="GSeCoP7me-vstZVjyjfA-412" value="time" style="shape=partialRectangle;html=1;whiteSpace=wrap;connectable=0;strokeColor=inherit;overflow=hidden;fillColor=none;top=0;left=0;bottom=0;right=0;pointerEvents=1;" parent="GSeCoP7me-vstZVjyjfA-405" vertex="1">
          <mxGeometry x="450" width="50" height="40" as="geometry">
            <mxRectangle width="50" height="40" as="alternateBounds" />
          </mxGeometry>
        </mxCell>
        <mxCell id="GSeCoP7me-vstZVjyjfA-414" value="REIVEWS" style="text;html=1;align=center;verticalAlign=middle;resizable=0;points=[];autosize=1;strokeColor=none;fillColor=none;" parent="1" vertex="1">
          <mxGeometry x="4200" y="820" width="80" height="30" as="geometry" />
        </mxCell>
        <mxCell id="GSeCoP7me-vstZVjyjfA-447" value="Relational Schema" style="text;html=1;align=center;verticalAlign=middle;resizable=0;points=[];autosize=1;strokeColor=none;fillColor=none;" parent="1" vertex="1">
          <mxGeometry x="2421" y="50" width="120" height="30" as="geometry" />
        </mxCell>
        <mxCell id="GSeCoP7me-vstZVjyjfA-448" value="Normalised Relational Schema" style="text;html=1;align=center;verticalAlign=middle;resizable=0;points=[];autosize=1;strokeColor=none;fillColor=none;" parent="1" vertex="1">
          <mxGeometry x="4040" y="20" width="190" height="30" as="geometry" />
        </mxCell>
        <mxCell id="GSeCoP7me-vstZVjyjfA-449" value="ER Diagram" style="text;html=1;align=center;verticalAlign=middle;resizable=0;points=[];autosize=1;strokeColor=none;fillColor=none;" parent="1" vertex="1">
          <mxGeometry x="782" y="20" width="90" height="30" as="geometry" />
        </mxCell>
      </root>
    </mxGraphModel>
  </diagram>
</mxfile>
